<?xml version="1.0" encoding="UTF-8"?>
<svg id="Capa_2" data-name="Capa 2" xmlns="http://www.w3.org/2000/svg" viewBox="0 0 345.77 292.2">
  <defs>
    <style>
      .cls-1 {
        fill: #674747;
      }

      .cls-2 {
        fill: #fff;
      }

      .cls-3 {
        fill: #dbb4b4;
      }

      .cls-4 {
        fill: #ffa08d;
      }

      .cls-5 {
        fill: #656565;
      }

      .cls-6 {
        fill: #ffc5b3;
      }

      .cls-7 {
        fill: #54bec6;
      }

      .cls-8 {
        fill: #6bdadd;
      }

      .cls-9 {
        fill: #c43e3d;
      }

      .cls-10 {
        fill: #352222;
      }

      .cls-11 {
        fill: #d4d4d4;
      }

      .cls-12 {
        fill: #eac363;
      }

      .cls-13 {
        fill: #35a7aa;
      }

      .cls-14 {
        fill: #737373;
      }

      .cls-15 {
        fill: #d14a4a;
      }

      .cls-16 {
        fill: #f9dd89;
      }

      .cls-17 {
        fill: #513939;
      }

      .cls-18 {
        fill: #cca3a3;
      }

      .cls-19 {
        fill: #efd3d3;
      }

      .cls-20 {
        fill: #e05555;
      }

      .cls-21 {
        fill: #ea6565;
      }

      .cls-22 {
        fill: #c13e3e;
      }

      .cls-23 {
        fill: #289999;
      }

      .cls-24 {
        fill: #c4c4c4;
      }
    </style>
  </defs>
  <g id="Layer_1" data-name="Layer 1">
    <g>
      <g>
        <polygon class="cls-11" points="0 176.28 156.6 85.8 345.77 197.28 188.96 287.65 0 176.28"/>
        <polygon class="cls-14" points="0 176.29 188.96 287.65 188.96 292.2 0 180.84 0 176.29"/>
        <polygon class="cls-5" points="345.77 197.28 345.77 201.84 188.96 292.2 188.96 287.65 345.77 197.28"/>
      </g>
      <path class="cls-24" d="m201.8,171.16c0-10.88-16.58-19.7-37.03-19.7-3.44,0-6.77.25-9.93.72l-32.22-18.7-23.78,13.66,30.75,17.87c-1.19,1.93-1.84,3.99-1.84,6.14,0,10.88,16.58,19.7,37.03,19.7,2.88,0-54.31-27.29-51.62-27.62l-41.83,17.57,80.05,44.26,35.41-20.16,21.29,10.49,26.31-17.05-34.93-20.27c1.52-2.15,2.35-4.48,2.35-6.91Z"/>
      <polygon class="cls-24" points="277.04 222.21 249.4 206.3 259.12 200.72 254.46 197.89 218.04 218.71 222.69 221.61 239.78 211.82 267.32 227.77 250.31 237.5 254.96 240.4 291.39 219.51 286.73 216.68 277.04 222.21"/>
      <g>
        <g>
          <g>
            <path class="cls-2" d="m284.52,76.69c-12.99-37.49-60.38-65.37-124.71-73.59v13.67c64.33,8.22,111.72,36.1,124.71,73.59l2.88,8.31,2.96.34v-13.67l-2.96-.34-2.88-8.31Z"/>
            <polygon class="cls-15" points="159.81 119 159.81 116.09 158.76 115.97 159.81 119"/>
            <path class="cls-13" d="m284.52,90.35c-12.99-37.49-60.38-65.37-124.71-73.59v102.24c64.33,8.22,111.72,36.1,124.71,73.59l2.88,8.31,2.96.34v-102.24h0s-2.96-.34-2.96-.34l-2.88-8.31Z"/>
            <g>
              <path class="cls-2" d="m169.86,73.36c6.95,1.14,13.67,2.53,20.15,4.13v-20.81c-6.48-1.6-13.2-2.99-20.15-4.13v20.81Z"/>
              <path class="cls-2" d="m220.02,87.19c7.38,3.02,14.26,6.39,20.6,10.08v-20.81c-6.34-3.68-13.22-7.05-20.6-10.08v20.81Z"/>
              <path class="cls-2" d="m194.94,78.77c6.87,1.85,13.45,3.97,19.71,6.32v-20.81c-6.26-2.35-12.83-4.46-19.71-6.32v20.81Z"/>
            </g>
            <g>
              <path class="cls-2" d="m169.86,103.3c6.95,1.14,13.67,2.53,20.15,4.13v-20.81c-6.48-1.6-13.2-2.99-20.15-4.13v20.81Z"/>
              <path class="cls-2" d="m220.02,117.13c7.38,3.02,14.26,6.39,20.6,10.08v-20.81c-6.34-3.68-13.22-7.05-20.6-10.08v20.81Z"/>
              <path class="cls-2" d="m194.94,108.7c6.87,1.85,13.45,3.97,19.71,6.32v-20.81c-6.26-2.35-12.83-4.46-19.71-6.32v20.81Z"/>
            </g>
            <path class="cls-2" d="m169.86,31.29c30.45,5,56.64,14.55,76.59,27.47v-4.98c-19.95-12.92-46.14-22.47-76.59-27.47v4.98Z"/>
            <path class="cls-2" d="m169.86,43.29c30.45,5,56.64,14.55,76.59,27.47v-4.98c-19.95-12.92-46.14-22.47-76.59-27.47v4.98Z"/>
          </g>
          <path class="cls-7" d="m159.05,0l.76,3.1c64.33,8.22,111.72,36.1,124.71,73.59l2.88,8.31.38-.05,3.42.39-3.92-11.31C274.06,35.86,225.18,7.64,159.05,0Z"/>
          <polygon class="cls-23" points="287.4 200.9 291.2 201.25 291.2 85.34 287.4 85 287.4 200.9"/>
          <polygon class="cls-23" points="158.76 115.97 159.81 119 159.81 3.1 158.76 .06 158.76 115.97"/>
        </g>
        <path class="cls-13" d="m186.33,59.67c-.87-.73-3.55,1.11-4.55,1.85-1.5-.18-3.42-1.29-7.19,1.03-.29.18-.26,1.04.47.88,1.84-.42,2.99-.17,4.79-.03-.31.35-.63.7-.91,1.08-1,1.14-1,1.59-1.7,2.65-1.07-.33-2.79.18-3.75.66-.29.15-.21.6.09.68.47.12.93.23,1.4.37,1.87.53,2.14,2.48,2.62,3.28.15.24.57.29.7,0,.48-1.04.39-2.58.07-3.75,1.3-.97,2.63-2.21,3.64-3.33,1.12,1.82,1.31,3.33,1.62,5.09.06.36.59.38.75.1,1.06-1.82,1.04-4.94-.41-6.9,1.16-1.11,3.09-3.04,2.37-3.64Z"/>
        <g>
          <path class="cls-13" d="m205.92,64.99s-2.46-.63-3.27-.44c-.84.19-1.23,1.45-1.37,3.08-.11,1.27-.15,2.75-.15,2.75l8.2,2.19s-.11-2.77-.18-4.29-.54-2.7-3.23-3.29Z"/>
          <path class="cls-13" d="m209.29,71.67c-1.26-.47-5.43-1.77-8.04-2.22s-2.36,4.57-2.36,4.57l11.73,3.13s.56-4.77-1.33-5.48Z"/>
          <path class="cls-13" d="m199.58,72.96s-.53,3.86,1.29,3.83c1.65-.02,1.51-3.57,1.51-3.57l-2.8-.25Z"/>
          <path class="cls-13" d="m206.63,74.86s-.53,3.86,1.29,3.83c1.65-.02,1.51-3.57,1.51-3.57l-2.8-.25Z"/>
          <path class="cls-2" d="m205.36,66.18c-.95-.17-1.76-.25-2.18.25-.82,1-.61,3.11-.61,3.11l5.12,1.39s.66-2.26-.08-3.68c-.35-.67-1.34-.92-2.26-1.08Z"/>
        </g>
        <g>
          <path class="cls-13" d="m223.89,78.29l.94,4.95s4.27,1.83,5.8,2.49c1.15.5,4.97,2.46,4.97,2.46l2.5-3.72s-3.85-2.34-9.53-4.55c-1.45-.57-3.03-1.12-4.69-1.63Z"/>
          <path class="cls-13" d="m228.86,76.8l-2.18,3,8.09,3.87s.2-3.6-.52-4.56c-.82-1.09-5.39-2.32-5.39-2.32Z"/>
          <path class="cls-2" d="m229.49,77.94l-1.21,1.63,3.35,1.4s1.14-2.47-2.14-3.03Z"/>
        </g>
        <path class="cls-13" d="m186.03,95.44c-.53.05-1,.28-1.45.56.15-.44,1.71-4.48-2.38-6.04-1.55-.59-3.64.18-4.35,3.71-.18.88-.5,1.64-1.05,1.85,0,0,.7-2.64-1.51-3.28-1.76-.5-3.52,1.77-2.86,3.51.54,1.41,2.02,2.39,3.57,2.11.39-.07.76-.23,1.11-.43.84,1.1,2.29,1.88,3.67,1.67.48-.07.92-.26,1.34-.5.82,2.52,6.32,2.64,6.06-1.03-.09-1.31-.76-2.26-2.15-2.13Zm-9.94-.25c-.22.62-1.81,1.1-2.2.59-.91-1.18-.18-2.27.5-2.52,1.64-.59,2.16.66,1.7,1.93Zm2.98,3.01c-.56-.19-1.07-.63-1.56-1.03.34-.25.89-.65,1.72-2.69,1.21-2.96,4.04-3.22,4.29.58.19,2.93-3.16,3.58-4.45,3.13Zm4.45-.42c.6-.29.76-1.21,1.46-1.27,5.17-.45.3,5.68-1.46,1.27Z"/>
        <path class="cls-13" d="m210.93,102.86c-.03-2.82-.97-5.15-3.25-5.28-1.27-.07-2.29.56-3.38,1.12-.98.51-1.98,1.34-3.16,1.2-2.56-.3-1.9-2.44-1.73-3.84-1.51.87-2.1,4.06-.29,5.22,1.05.68,2.3.66,3.47.3,1.04-.32,1.89-1.09,2.93-1.37,2.02-.54,3.68.58,4.33,2.4-.21-.02-.42-.03-.63-.02-4.14.13-6.69,4.51-10.55.34-.68,2.12.88,3.94,2.47,4.5,1.21.43,2.49.23,3.67-.21,1.97-.73,5.71-4.06,7.14.01.15.44.45.37.7-.08,1.09-2.02.2-3.67-1.73-4.29Z"/>
        <g>
          <path class="cls-13" d="m223.08,109.08c-.14.1-.02.28.13.25,5.04-1.11,9.29-1.43,13.49,2.17.45.38.33-.18-.02-.65-3.04-4.22-9.44-4.83-13.6-1.76Z"/>
          <path class="cls-13" d="m223.71,114.67c-.14.1-.02.28.13.25,5.04-1.11,9.29-1.43,13.49,2.17.45.38.33-.18-.02-.65-3.04-4.22-9.44-4.83-13.6-1.76Z"/>
          <path class="cls-13" d="m226.06,109.93c-1.18,0-1.18,1.84,0,1.84s1.18-1.84,0-1.84Z"/>
          <path class="cls-13" d="m229.75,115.38c-1.18,0-1.18,1.84,0,1.84s1.18-1.84,0-1.84Z"/>
          <path class="cls-13" d="m230.41,109.93c-1.18,0-1.18,1.84,0,1.84s1.18-1.84,0-1.84Z"/>
          <path class="cls-13" d="m234.53,111.19c-1.18,0-1.18,1.84,0,1.84s1.18-1.84,0-1.84Z"/>
          <path class="cls-13" d="m233.64,115.86c-1.18,0-1.18,1.84,0,1.84s1.18-1.84,0-1.84Z"/>
        </g>
      </g>
      <g>
        <g>
          <path class="cls-2" d="m104.16,148.08c0,.31.45.56,1,.56s1-.25,1-.56l3.62-19.54-2.34-1.46c0,.33-3.28,21-3.28,21Z"/>
          <path class="cls-2" d="m125.55,160.39c0,.31.45.56,1,.56s1-.25,1-.56l.81-21.37-2.34-1.46c0,.33-.47,22.83-.47,22.83Z"/>
          <path class="cls-2" d="m141.88,151.18c0,.31.45.56,1,.56s1-.25,1-.56l.81-21.37-2.34-1.46c0,.33-.47,22.83-.47,22.83Z"/>
          <path class="cls-2" d="m120.84,138.85c0,.31.45.56,1,.56s1-.25,1-.56l3.62-19.54-2.34-1.46c0,.33-3.28,21-3.28,21Z"/>
          <g>
            <g>
              <polygon class="cls-13" points="106.97 125.83 125.11 115.36 125.11 91.17 106.97 101.65 106.97 125.83"/>
              <polygon class="cls-23" points="105.35 127.08 106.97 127.92 106.97 101.65 105.35 100.8 105.35 127.08"/>
              <polygon class="cls-7" points="105.35 100.8 106.97 101.65 125.11 91.17 123.49 90.32 105.35 100.8"/>
            </g>
            <polygon class="cls-7" points="106.97 125.83 127.8 137.86 145.94 127.39 125.11 115.36 106.97 125.83"/>
            <polygon class="cls-23" points="105.35 127.08 127.8 140.04 127.8 137.86 105.35 124.88 105.35 127.08"/>
            <polygon class="cls-13" points="127.8 140.04 145.94 129.58 145.94 127.39 127.8 137.86 127.8 140.04"/>
          </g>
          <path class="cls-19" d="m149.43,92.71c-2.63.51-7.65,1.95-7.65,1.95,0,0-2.33-6.33-6.28-12.47-3.96-6.14-8.97-4.66-8.93-3.73,0,0,3.28,11.88,4.39,14.11,1.11,2.23,4.31,9.04,7.72,10.05,1.53.45,6.22-.66,9.33-1.84.86-.33,2.54-.56,3.66-1.92.88-1.07.1-5.94-2.23-6.14Z"/>
        </g>
        <g>
          <path class="cls-17" d="m159.63,153.9c-1.77-1.72-3.09-3.16-3.09-3.16l-8.03-.34v2.66s.24,1.1,1.49,1.89c1.25.79,3.7,2.14,5.03,2.62,1.88.68,5.24,1.4,6.72,1.45,1.69.06,2.42-.73,1.53-1.59-1.52-1.48-2.02-1.94-3.65-3.53Z"/>
          <path class="cls-17" d="m145.49,162.29c-1.77-1.72-3.09-3.16-3.09-3.16l-8.03-2.37v4.69s.24,1.1,1.49,1.89c1.25.79,3.7,2.14,5.03,2.62,1.88.67,5.24,1.4,6.72,1.45,1.69.06,2.42-.73,1.53-1.59-1.52-1.48-2.02-1.94-3.65-3.53Z"/>
          <path class="cls-10" d="m153.41,120.11c-2.49-1.76-10.27-6.33-13.09-8.04-4.85-2.92-7.47-5.45-7.47-5.45l-16.05,6.17s-1.86,6.59,1.47,10.42c2.97,3.42,14.33,11.51,14.33,11.51l.8,23.98s2.49,2.46,5.51,2.47c3.94.02,4.52-2.92,4.52-2.92,0,0-.09-9.5-.37-18.35-.13-4.11-.42-6.63-1.28-9.92-1.07-4.1-8.52-8.71-8.52-8.71l13.14,7.59.61,22.18s2.26.94,5.28.95c3.94.02,5.67-2.42,5.67-2.42,0,0-.72-12.09-1.71-20.8-.6-5.27-1.29-7.61-2.82-8.69Z"/>
          <g>
            <path class="cls-2" d="m135.21,88.38c-.61-5.84-5.73-9.97-5.73-9.97-4.78-1.88-9.4,1.69-9.4,1.69,0,0-6.51,3.11-6.89,5.98-.23,1.72,1.03,12.2,1.88,18.69.27,2.08-1.91,7.54,1.22,9.52,5.36.8,15.8-2.83,18.86-5.61,1.27-1.16.58-4.52.25-9.13-.31-4.38-.04-9.76-.19-11.17Z"/>
            <path class="cls-23" d="m129.12,86.96l-.36-2.84-1.4-.5-1.69,1.98,1.78,2.12,1.1,17.77,2.39,1.87,1.22-3.39s-.72-8.59-1.08-10.57c-.36-1.99-1.96-6.43-1.96-6.43Z"/>
            <g>
              <path class="cls-4" d="m121.71,73.91l-1.26,6.98s3.77,3.5,5.4,4.01c1.52-1.29,2.11-2.18,2.11-2.18l-.31-4.5-5.94-4.32Z"/>
              <path class="cls-6" d="m121.01,66.23c-1.31,1.68-1.72,5.87.09,8.83,1.61,2.63,5.28,4.11,6.91,4.37,2.91.47,6.05-7.57,2.73-12.49-3.17-4.69-8.03-2.87-9.72-.72Z"/>
            </g>
            <path class="cls-19" d="m127.74,79.46l-.37,4.16,2.96,1.21s.3-4.41-2.6-5.37Z"/>
            <path class="cls-19" d="m120.9,78.41c-2.02,1.98-.24,5.04-.24,5.04,1.5,1.64,5.59,3.51,5.59,3.51l1.12-3.35s-2.36-.68-3.72-2c-1.75-1.7-2.75-3.21-2.75-3.21Z"/>
            <path class="cls-10" d="m124.49,62.48c-3.87.48-5.72,5.06-5.72,7.17,0,3.39,2.34,5.42,2.34,5.42,0,0-.09-2.06.53-2.6.55-.47,1.03-.21,1.32.91.37.13.81.11.81.11,0,0-.48-4.99,3.91-6.56,1.18-.42,2.23-.19,3.39.56,1.7-2.68-2.71-5.49-6.58-5.01Z"/>
          </g>
          <path class="cls-2" d="m119.32,93.43s-.07,5.69,3.38,4.28c3.29-1.35,1.73-6.41,1.73-6.41l-5.11,2.13Z"/>
          <path class="cls-2" d="m130.82,88.89s.7,4.76,2.53,4.11c2.31-.81,1.06-5.88,1.06-5.88l-3.6,1.76Z"/>
          <path class="cls-19" d="m129.7,105.73c-1.21-.87-2.76-2.26-4.61-3.42-3.03-8.33-3.03-14.33-7.34-17.4-4.6-3.27-5.87,2.81-5.84,8.1.02,4.09,3.32,8.64,7.41,15.07,1.72,2.7,9.6,7.29,13.04,6.34,2.5-.69,1.06-5.14,1.06-5.14,0,0-.09-.92-3.72-3.54Z"/>
          <g>
            <path class="cls-6" d="m159.89,93.29c-1.33-.18-3.23-1.28-5.13-1.28-1.68,0-4.52,1.93-4.52,1.93,0,0,.09.28.78,2.2s.46,1.8,2.06,1.1c1.16-.51,2.74-.81,4.25-.24,1.51.57,3.18.14,4.88-.51,1.7-.65,1.76-2.36,1.31-2.81-.44-.45-2.3-.21-3.63-.39Z"/>
            <path class="cls-6" d="m159.06,91.4c-1.1.8-2.26,1.33-2.26,1.33l1.51.84s.49-.27,1.33-1.2c.84-.93.24-1.56-.58-.97Z"/>
          </g>
          <path class="cls-2" d="m151.04,95.24c-.19-1.18.56-2.17.56-2.17l-1.91.56s-.77.82-.41,2.51c.32,1.54,2.01,2.04,2.01,2.04l1.8-.94s-1.85-.82-2.04-2Z"/>
          <path class="cls-2" d="m134.75,109.98l-1.58-1.19s-1.77.11-2.04,2.29c-.28,2.18.96,3.08.96,3.08l2.31.2s-1.13-1.32-.57-2.54c.56-1.23.92-1.84.92-1.84Z"/>
        </g>
        <g>
          <path class="cls-17" d="m129.45,79.01c-.12.1-.4.21-.53.31.67,1.03,1.42,2.62,1.89,4.77.64,2.93-.17,10.67-.71,12.25-.68-1.35-3.1-8.18-5.86-11.26-1.76-1.96-3.58-4.12-4.69-4.93-.53-.38-.51.23-.33.38.42.34,2.9,3,4.62,4.91,3.45,3.85,6.04,11.66,6.06,11.7l.26.58.23-.59c.09-.24,1.77-9.37.95-13.15-.47-2.16-1.14-3.85-1.88-4.96Z"/>
          <polygon class="cls-19" points="128.25 96.28 128.6 101.67 132.02 99.7 132.02 99.69 131.67 94.31 128.25 96.28"/>
          <polygon class="cls-22" points="128.54 96.49 128.58 97.09 131.48 95.41 131.44 94.81 128.54 96.49"/>
          <polygon class="cls-2" points="128.66 97.56 128.92 101.1 130.67 100.08 130.42 96.55 128.66 97.56"/>
        </g>
        <g>
          <g>
            <path class="cls-19" d="m165.57,168.97c-5.58,0-10.1,2.54-10.1,5.68s4.52,5.68,10.1,5.68,10.1-2.54,10.1-5.68-4.52-5.68-10.1-5.68Z"/>
            <rect class="cls-19" x="155.48" y="172.97" width="20.2" height="1.69"/>
            <path class="cls-2" d="m165.57,167.55c-5.58,0-10.1,2.54-10.1,5.68s4.52,5.68,10.1,5.68,10.1-2.54,10.1-5.68-4.52-5.68-10.1-5.68Z"/>
            <path class="cls-3" d="m165.59,168.78c-4.23,0-7.65,1.93-7.65,4.31s3.43,4.31,7.65,4.31,7.65-1.93,7.65-4.31-3.43-4.31-7.65-4.31Z"/>
          </g>
          <g>
            <rect class="cls-2" x="164.49" y="121.8" width="2.16" height="50.7"/>
            <path class="cls-2" d="m165.57,172.02c-.6,0-1.08.27-1.08.61s.48.61,1.08.61,1.08-.27,1.08-.61-.48-.61-1.08-.61Z"/>
          </g>
          <g>
            <ellipse class="cls-13" cx="165.57" cy="130.89" rx="34.65" ry="19.5"/>
            <rect class="cls-13" x="194.38" y="127.57" width="5.82" height="4.05"/>
            <rect class="cls-13" x="130.92" y="127.57" width="5.82" height="4.05"/>
            <path class="cls-7" d="m165.57,108.95c-19.14,0-34.65,8.73-34.65,19.5s15.51,19.5,34.65,19.5,34.65-8.73,34.65-19.5-15.52-19.5-34.65-19.5Z"/>
          </g>
        </g>
        <g>
          <path class="cls-6" d="m138.16,111.57c-1.46-1.68-2.17-1.76-3.41-1.59,0,0-1.76.72-1.68,2.25.08,1.61,1.33,2.13,1.33,2.13,0,0,3.43,2.52,5.88,2.51,2.45-.01,3.12-1.7,2.79-2.34-.58-1.11-3.68-1.54-4.91-2.96Z"/>
          <path class="cls-6" d="m133.44,113s1.28,1.9,1.37,2.78c.09.89.4,1.24.75.89s.71-1.32.31-2.03-2.44-1.64-2.44-1.64Z"/>
        </g>
        <g>
          <g>
            <path class="cls-6" d="m195.91,163.24s-6.28.05-6.05,1.36c.71,3.98.88,13.6.88,13.6,0,0-.83-.37-2.48-.92-.55.09-1.12.3-1.37.76-.55,1.02,1.16,2.12,2.96,3.02,1.8.9,3.27.9,4.16.49.66-.3,1.54-.68,1.97-.87-.12-.8-.21-1.88-.07-3.53.42-4.92.22-13,0-13.92Z"/>
            <path class="cls-17" d="m194.01,181.56c-.9.41-2.37.41-4.16-.49-1.8-.9-3.5-2-2.96-3.02.25-.46.82-.67,1.37-.76-.26-.08-.53-.17-.83-.26-3-.93-4.81-.24-4.48,1,.23.88.25,1.06,2.02,2.36,1.77,1.31,3.81,2.32,6.3,3.21,2.8,1.01,4.18,1.14,4.78-.29.36-.86.11-1.42-.07-2.62-.43.19-1.31.57-1.97.87Z"/>
          </g>
          <g>
            <path class="cls-6" d="m188.34,164.01s-6.73-2.43-6.5-1.11c.71,3.98,1.6,19.52,1.6,19.52,0,0-.83-.37-2.48-.92-.55.09-1.12.3-1.37.76-.55,1.02,1.16,2.12,2.96,3.02,1.8.9,3.27.9,4.16.49.66-.3,1.54-.68,1.97-.87-.12-.8-.21-1.88-.07-3.53.42-4.92-.04-16.46-.27-17.37Z"/>
            <path class="cls-17" d="m186.71,185.77c-.9.41-2.37.41-4.16-.49-1.8-.9-3.5-2-2.96-3.02.25-.46.82-.67,1.37-.76-.26-.08-.53-.17-.83-.26-3-.93-4.81-.24-4.48,1,.23.88.25,1.06,2.02,2.36,1.77,1.31,3.81,2.32,6.3,3.21,2.8,1.01,4.18,1.14,4.78-.29.36-.86.11-1.42-.07-2.62-.43.19-1.31.57-1.97.87Z"/>
          </g>
          <g>
            <path class="cls-2" d="m182.98,192.95c0,.3.43.55.97.55s.97-.24.97-.55l3.51-18.95-2.27-1.42c0,.32-3.18,20.37-3.18,20.37Z"/>
            <path class="cls-2" d="m204.09,184.15l3.75,22.77c0,.3.43.55.97.55s.97-.24.97-.55c0,0-3.42-23.87-3.42-24.19l-2.27,1.42Z"/>
            <path class="cls-2" d="m219.85,174.97l3.75,22.77c0,.3.43.55.97.55s.97-.24.97-.55c0,0-3.42-23.87-3.42-24.19l-2.27,1.42Z"/>
            <path class="cls-2" d="m199.15,184c0,.3.43.55.97.55s.97-.24.97-.55l3.51-18.95-2.27-1.42c0,.32-3.18,20.37-3.18,20.37Z"/>
            <g>
              <polygon class="cls-7" points="184.13 170.45 205.91 183.04 223.5 172.88 201.72 160.29 184.13 170.45"/>
              <polygon class="cls-23" points="184.13 172.58 205.91 185.15 205.91 183.04 184.13 170.45 184.13 172.58"/>
            </g>
          </g>
          <g>
            <path class="cls-6" d="m210.74,114.86c-1.54-3.25-5.08-3.64-6.92-2.37-.68.47-3.18,1.06-3.92,6.63-.49,3.74.75,5.42,1.81,6.39.44.41,2.18.48,2.18.48l-.08,4.17s2.45.97,4.79,0l2.35-.97s-.92-1.58-.76-4.32c.19-3.39,1.39-8.22.54-10.02Z"/>
            <path class="cls-16" d="m214.1,147.99c.62-4.92.38-6.56-.12-10.44-.5-3.88-3.03-8.36-3.03-8.36l-7.14-.11s-2.82,1.17-3.7,3.1c-.88,1.93-4.02,7.29-2.64,10.25,2.83,6.04.95,10.3.56,11.31-1.57,4.05-2.57,8.57-3.19,12.92,3.36,2.87,6.83,5.3,11.57,5.56,4.99.28,9.47-2.11,10.19-7.3-.17-2.92-.44-5.33-.86-6.42-2.31-5.92-1.82-9.15-1.65-10.52Z"/>
            <path class="cls-17" d="m211.04,126.19c-.06-1.28,1.65-2.56,2.2-4.99,1.73-7.62-1.81-9.78-5.15-10.49-5.97-1.26-8.74,2.56-8.37,6.49.18,1.92,1.75,2.48,3.15,3.95,1.4,1.46,2.15,2.86,5.2,5.04,1.12.8.84,6.97,2.97,11.36,2.27,4.68.95,5.53.95,5.53,0,0,6.47-2.09,3.83-9.31-.96-2.64-4.66-4.79-4.78-7.58Z"/>
            <path class="cls-6" d="m200.78,132.19c-2.65.25-7.86,14.52-7.86,14.52,0,0-4.77-1.42-9.99-2.19-1.16-.17-.79-1.35-2.25-2.28-1.94-1.24-5.85.52-4.83,1.8,1.08,1.35,3.68,3.12,5.72,3.35,2.04.24,10.38,5.4,13.2,3.74,0,0,8.5-9.41,8.68-13.42.14-3.14-1.29-5.65-2.67-5.52Z"/>
            <path class="cls-6" d="m201.37,119.95l.65,3.12s2.03-.78,1.45-3.12c-.63-2.51-2.09,0-2.09,0Z"/>
            <path class="cls-15" d="m207.23,125.65c.07.53.85,1.6,1.38,1.81.62.24,2.3-.31,2.75-.79.33-.36.25-1.95.25-1.95,0,0-2.2.75-4.38.93Z"/>
            <path class="cls-16" d="m188.93,154.6c-5.76,1.88-7.46,4.71-7.2,10.02.15,3.14,7.2,5.22,17.69,7.57,11.45,2.56,13.99-1.74,13.99-1.74l-12.26-18.22s-7.97,1-12.21,2.38Z"/>
            <path class="cls-12" d="m199.79,159.74c-1.8-2.96-1.33-7.14-1.33-7.14l-6.99,1.31s-2.54,7.68-.88,8c1.66.32,4.28-4.6,5.57-4.21,1.29.39.65,3.75,2.14,6.92,1.5,3.17,6.79,2.63,5.27.7-1.52-1.93-1.97-2.61-3.78-5.57Z"/>
          </g>
          <g>
            <polygon class="cls-13" points="205.91 183.04 205.91 183.04 205.91 185.15 223.5 175.01 223.5 172.88 223.5 172.88 223.5 149.42 205.91 159.58 205.91 183.04"/>
            <polygon class="cls-23" points="204.33 184.24 205.91 185.06 205.91 159.58 204.33 158.76 204.33 184.24"/>
            <polygon class="cls-7" points="204.33 158.76 205.91 159.58 223.5 149.42 221.92 148.6 204.33 158.76"/>
          </g>
        </g>
        <polygon class="cls-2" points="165.41 131.92 182.59 141.84 193.56 135.51 176.38 125.59 165.41 131.92"/>
        <g>
          <g>
            <polygon class="cls-2" points="151.37 121.15 164.22 128.58 183.53 117.43 170.73 109.98 151.37 121.15"/>
            <polygon class="cls-19" points="151.37 121.15 164.22 128.58 164.22 125.16 151.37 117.72 151.37 121.15"/>
            <polygon class="cls-18" points="182.3 116.8 165.48 126.61 165.48 124.43 164.22 125.16 164.22 128.58 183.53 117.43 183.53 100.59 182.3 101.31 182.3 116.8"/>
            <polygon class="cls-3" points="151.37 117.72 164.22 125.16 165.48 124.43 152.55 117 151.37 117.72"/>
            <polygon class="cls-3" points="170.73 94.65 182.31 101.41 183.56 100.69 171.91 93.93 170.73 94.65"/>
            <polygon class="cls-19" points="170.73 109.98 182.3 116.8 182.3 101.31 170.73 94.65 170.73 109.98"/>
          </g>
          <g>
            <polygon class="cls-15" points="166.22 112.21 177.39 118.62 181.36 102.46 170.2 96.09 166.22 112.21"/>
            <polygon class="cls-2" points="169.97 101.78 179.05 106.87 180.04 103.16 170.92 98.04 169.97 101.78"/>
            <polygon class="cls-22" points="167.45 111.65 176.58 116.8 178.74 108.11 169.61 102.98 167.45 111.65"/>
            <polygon class="cls-22" points="177.39 118.62 178.14 118.62 182.08 102.46 181.36 102.46 177.39 118.62"/>
            <polygon class="cls-21" points="170.2 96.09 181.36 102.46 182.08 102.46 170.9 96.09 170.2 96.09"/>
          </g>
          <g>
            <polygon class="cls-7" points="164.22 113.54 175.39 119.96 179.36 103.79 168.19 97.42 164.22 113.54"/>
            <polygon class="cls-2" points="167.97 103.11 177.04 108.21 178.04 104.5 168.91 99.37 167.97 103.11"/>
            <polygon class="cls-23" points="165.45 112.98 174.58 118.13 176.74 109.44 167.61 104.32 165.45 112.98"/>
            <polygon class="cls-23" points="175.39 119.96 176.13 119.96 180.08 103.79 179.36 103.79 175.39 119.96"/>
            <polygon class="cls-8" points="168.19 97.42 179.36 103.79 180.08 103.79 168.9 97.42 168.19 97.42"/>
          </g>
          <g>
            <polygon class="cls-15" points="161.87 117.62 169.83 122.24 173.8 106.08 165.84 101.51 161.87 117.62"/>
            <polygon class="cls-2" points="166.18 104.47 172.38 107.99 172.69 106.78 166.52 103.29 166.18 104.47"/>
            <polygon class="cls-2" points="165.53 106.54 171.73 110.06 172.04 108.85 165.87 105.36 165.53 106.54"/>
            <polygon class="cls-22" points="163.22 116.84 169.02 120.14 171.18 111.45 165.38 108.18 163.22 116.84"/>
            <polygon class="cls-22" points="169.83 122.24 170.57 122.24 174.52 106.08 173.8 106.08 169.83 122.24"/>
            <polygon class="cls-20" points="165.84 101.51 173.8 106.08 174.52 106.08 166.54 101.51 165.84 101.51"/>
          </g>
          <g>
            <polygon class="cls-15" points="157.89 120.34 165.85 124.95 169.82 108.79 161.87 104.22 157.89 120.34"/>
            <polygon class="cls-2" points="162.21 107.19 168.41 110.7 168.72 109.5 162.55 106 162.21 107.19"/>
            <polygon class="cls-2" points="161.56 109.25 167.76 112.77 168.07 111.56 161.9 108.07 161.56 109.25"/>
            <polygon class="cls-22" points="159.24 119.55 165.05 122.85 167.2 114.16 161.41 110.89 159.24 119.55"/>
            <polygon class="cls-22" points="165.85 124.95 166.6 124.95 170.55 108.79 169.82 108.79 165.85 124.95"/>
            <polygon class="cls-21" points="161.87 104.22 169.82 108.79 170.55 108.79 162.57 104.22 161.87 104.22"/>
          </g>
        </g>
      </g>
      <g>
        <g>
          <polygon class="cls-10" points="253.94 237.35 256.39 238.77 290.28 219.2 287.83 217.78 253.94 237.35"/>
          <polygon class="cls-1" points="253.94 236.03 256.39 237.45 290.28 217.88 287.83 216.46 253.94 236.03"/>
          <polygon class="cls-10" points="256.39 238.77 290.28 219.2 290.28 217.88 256.39 237.45 256.39 238.77"/>
          <polygon class="cls-17" points="253.94 237.35 256.39 238.77 256.39 237.45 253.94 236.03 253.94 237.35"/>
        </g>
        <g>
          <polygon class="cls-10" points="221.63 218.51 224.09 219.93 257.98 200.36 255.52 198.94 221.63 218.51"/>
          <polygon class="cls-1" points="221.63 217.19 224.09 218.61 257.98 199.04 255.52 197.62 221.63 217.19"/>
          <polygon class="cls-10" points="224.09 219.93 257.98 200.36 257.98 199.04 224.09 218.61 224.09 219.93"/>
          <polygon class="cls-17" points="221.63 218.51 224.09 219.93 224.09 218.61 221.63 217.19 221.63 218.51"/>
        </g>
        <g>
          <polygon class="cls-17" points="239.67 206.81 274.57 226.96 274.57 223.24 239.67 203.09 239.67 206.81"/>
          <polygon class="cls-10" points="274.57 226.96 276.29 226.08 276.29 222.35 274.57 223.24 274.57 226.96"/>
          <polygon class="cls-1" points="239.67 203.09 274.57 223.24 276.29 222.35 241.39 202.2 239.67 203.09"/>
        </g>
        <path class="cls-12" d="m242.7,99.02l-1.72,53.75,1.72,50.31,30.76,19.49,1.53-.84s-1.72-39.07-1.72-52.06,1.72-52,1.72-52l-32.29-18.64Z"/>
        <path class="cls-16" d="m241.16,99.86s-1.49,38.96-1.49,51.7,1.49,52.37,1.49,52.37l32.29,18.64s-1.49-39.85-1.49-53.38c0-12.48,1.49-50.68,1.49-50.68l-32.29-18.64Z"/>
        <g>
          <polygon class="cls-17" points="239.67 100.93 274.57 121.08 274.57 117.36 239.67 97.21 239.67 100.93"/>
          <polygon class="cls-10" points="274.57 121.08 276.29 120.2 276.29 116.47 274.57 117.36 274.57 121.08"/>
          <polygon class="cls-1" points="239.67 97.21 274.57 117.36 276.29 116.47 241.39 96.33 239.67 97.21"/>
        </g>
        <polygon class="cls-2" points="242.94 162.3 269.85 177.84 269.85 175.49 242.94 159.95 242.94 162.3"/>
        <polygon class="cls-2" points="242.94 167.19 269.85 182.73 269.85 180.37 242.94 164.83 242.94 167.19"/>
        <polygon class="cls-2" points="242.94 169.79 243.66 202.33 270.57 217.87 269.85 185.33 242.94 169.79"/>
        <polygon class="cls-2" points="243.29 118.83 270.2 134.37 270.2 132.01 243.29 116.47 243.29 118.83"/>
        <polygon class="cls-2" points="243.29 123.71 270.2 139.25 270.2 136.9 243.29 121.36 243.29 123.71"/>
        <g>
          <path class="cls-2" d="m256.74,141.41c-3.34-1.93-6.05.12-6.05,4.57s2.71,9.63,6.05,11.56c3.34,1.93,6.05-.12,6.05-4.57s-2.71-9.63-6.05-11.56Z"/>
          <g>
            <path class="cls-2" d="m248.72,143.54c0-4.24,1.57-7.09,3.97-7.99-4.33-1.33-7.59,1.89-7.59,8.01,0,6.98,4.24,15.09,9.48,18.11,2.05,1.19,3.95,1.41,5.51.83-.61-.19-1.24-.47-1.89-.84-5.24-3.02-9.48-11.13-9.48-18.11Z"/>
            <path class="cls-2" d="m258.2,136.38c-2.05-1.19-3.95-1.41-5.51-.83.61.19,1.24.47,1.89.84,5.24,3.02,9.48,11.13,9.48,18.11,0,4.24-1.57,7.09-3.97,7.99,4.33,1.33,7.59-1.89,7.59-8.01,0-6.98-4.24-15.09-9.48-18.11Z"/>
          </g>
          <path class="cls-19" d="m255.4,138.13l.16.02s-.07-.02-.16-.02Z"/>
          <path class="cls-16" d="m256.18,148.01s-2.01-5.21-1.93-7.41c.09-2.23.82-2.47,1.15-2.46l-2.32-.29s-1.79-.36-1.91,3.72c-.08,2.73,3.19,7.99,3.19,7.99h-1.75s1.67,2.38,3.38,3.66c1.23.93,3.12,1.71,3.12,1.71,0,0,.42-6.55-1.23-9.95-.82,1.3-1.7,3.05-1.7,3.05Z"/>
        </g>
      </g>
      <g>
        <polygon class="cls-13" points="93.99 163.94 103.41 147.62 124.19 159.62 106.46 171.14 93.99 163.94"/>
        <path class="cls-2" d="m104.27,196.1c.43,0,.8-.33.84-.77l2.19-22.47,14.65-8.46,2.09,19.04c.05.47.47.8.94.75.47-.05.8-.47.75-.94l-2.37-21.63-17.66,10.19-2.27,23.34c-.05.47.3.88.76.93.03,0,.06,0,.08,0Z"/>
        <path class="cls-23" d="m107.59,168.55l15.21-8.74c1.15-.66,2.08-.12,2.08,1.21v.38l-20.3,11.72,2.21-4.62c.17.21.47.25.8.06Z"/>
        <g>
          <path class="cls-2" d="m81.38,182.89c.43,0,.8-.33.84-.77l2.19-22.47,14.65-8.46,2.09,19.04c.05.47.47.8.94.75.47-.05.8-.47.75-.94l-2.37-21.63-17.66,10.19-2.27,23.34c-.05.47.3.88.76.93.03,0,.06,0,.08,0Z"/>
          <path class="cls-9" d="m80.68,130.45c-.2-.11-.47-.09-.76.08-.66.38-1.15,1.31-1.08,2l2.75,27.43,20.42-11.79v-.38c0-1.33-.93-1.87-2.08-1.21l-15.21,8.74c-.49.28-.9.1-.96-.43l-2.76-23.9c-.03-.27-.14-.46-.3-.55Z"/>
        </g>
        <path class="cls-13" d="m103.58,143.68l-22.9-13.22c-.2-.11-.47-.09-.76.08-.66.38-1.15,1.31-1.08,2l2.75,27.43,22.89,13.22-.89-29.5Z"/>
        <path class="cls-23" d="m101.72,145.75c-.07-.69.43-1.62,1.07-1.99.56-.32,1.02-.12,1.09.46l2.76,23.9c.02.16.08.28.16.37l-2.21,4.62-.11.06-2.75-27.43Z"/>
      </g>
      <g>
        <polygon class="cls-13" points="143.08 191.32 152.5 175 173.29 187 155.56 198.52 143.08 191.32"/>
        <path class="cls-2" d="m153.36,223.48c.43,0,.8-.33.84-.77l2.19-22.47,14.65-8.46,2.09,19.04c.05.47.47.8.94.75.47-.05.8-.47.75-.94l-2.37-21.63-17.66,10.19-2.27,23.34c-.05.47.3.88.76.93.03,0,.06,0,.08,0Z"/>
        <path class="cls-23" d="m156.69,195.93l15.21-8.74c1.15-.66,2.08-.12,2.08,1.21v.38l-20.3,11.72,2.21-4.62c.17.21.47.25.8.06Z"/>
        <g>
          <path class="cls-2" d="m130.48,210.27c.43,0,.8-.33.84-.77l2.19-22.47,14.65-8.46,2.09,19.04c.05.47.47.8.94.75.47-.05.8-.47.75-.94l-2.37-21.63-17.66,10.19-2.27,23.34c-.05.47.3.88.76.93.03,0,.06,0,.08,0Z"/>
          <path class="cls-9" d="m129.78,157.84c-.2-.11-.47-.09-.76.08-.66.38-1.15,1.31-1.08,2l2.75,27.43,20.42-11.79v-.38c0-1.33-.93-1.87-2.08-1.21l-15.21,8.74c-.49.28-.9.1-.96-.43l-2.76-23.9c-.03-.27-.14-.46-.3-.55Z"/>
        </g>
        <path class="cls-13" d="m152.68,171.06l-22.9-13.22c-.2-.11-.47-.09-.76.08-.66.38-1.15,1.31-1.08,2l2.75,27.43,22.89,13.22-.89-29.5Z"/>
        <path class="cls-23" d="m150.82,173.13c-.07-.69.43-1.62,1.07-1.99.56-.32,1.02-.12,1.09.46l2.76,23.9c.02.16.08.28.16.37l-2.21,4.62-.11.06-2.75-27.43Z"/>
      </g>
    </g>
  </g>
</svg>