<?xml version="1.0" encoding="UTF-8"?>
<svg id="Capa_2" data-name="Capa 2" xmlns="http://www.w3.org/2000/svg" xmlns:xlink="http://www.w3.org/1999/xlink" viewBox="0 0 73.23 90.51">
  <defs>
    <style>
      .cls-1 {
        fill: url(#New_Gradient_Swatch);
      }

      .cls-2 {
        fill: url(#New_Gradient_Swatch-2);
      }
    </style>
    <linearGradient id="New_Gradient_Swatch" data-name="New Gradient Swatch" x1="36.61" y1="17.72" x2="36.61" y2="87.89" gradientUnits="userSpaceOnUse">
      <stop offset="0" stop-color="#0094a7"/>
      <stop offset="1" stop-color="#d3e4b2"/>
    </linearGradient>
    <linearGradient id="New_Gradient_Swatch-2" data-name="New Gradient Swatch" x1="36.62" x2="36.62" y2="87.89" xlink:href="#New_Gradient_Swatch"/>
  </defs>
  <g id="Layer_1" data-name="Layer 1">
    <g>
      <path class="cls-1" d="m66.66,15.74C59.75,5.74,48.8,0,36.62,0S13.48,5.74,6.57,15.74C-.3,25.69-1.89,38.28,2.32,49.41c1.13,3.04,2.91,5.99,5.31,8.76l26.58,31.23c.6.71,1.48,1.11,2.41,1.11s1.81-.41,2.41-1.11l26.58-31.22c2.4-2.78,4.19-5.73,5.3-8.75,4.22-11.15,2.63-23.75-4.25-33.7Zm-1.68,31.48c-.86,2.33-2.27,4.63-4.17,6.84,0,0-.01.01-.01.02l-24.17,28.39-24.19-28.41c-1.91-2.21-3.31-4.51-4.18-6.86-3.48-9.2-2.16-19.62,3.53-27.86,5.71-8.27,14.76-13.01,24.84-13.01s19.12,4.74,24.84,13.01c5.69,8.24,7.02,18.66,3.53,27.88Z"/>
      <path class="cls-2" d="m36.62,18.78c-9.77,0-17.72,7.95-17.72,17.72s7.95,17.72,17.72,17.72,17.72-7.95,17.72-17.72-7.95-17.72-17.72-17.72Zm0,29.12c-6.28,0-11.39-5.11-11.39-11.39s5.11-11.39,11.39-11.39,11.39,5.11,11.39,11.39-5.11,11.39-11.39,11.39Z"/>
    </g>
  </g>
</svg>