<?xml version="1.0" encoding="UTF-8"?>
<svg xmlns="http://www.w3.org/2000/svg" viewBox="0 0 382.05 232.98">
  <defs>
    <style>
      .cls-1 {
        fill: #fff;
      }

      .cls-2 {
        fill: #dbb052;
      }

      .cls-3 {
        fill: #ff4555;
      }

      .cls-4 {
        isolation: isolate;
      }

      .cls-5 {
        fill: #0b1017;
      }

      .cls-6 {
        fill: #c43e3d;
      }

      .cls-7, .cls-8 {
        opacity: .5;
      }

      .cls-7, .cls-8, .cls-9, .cls-10 {
        mix-blend-mode: multiply;
      }

      .cls-7, .cls-11 {
        fill: #ffae80;
      }

      .cls-12, .cls-8 {
        fill: #2d2856;
      }

      .cls-13 {
        fill: #60c1d2;
      }

      .cls-14 {
        fill: #c0c7a9;
      }

      .cls-15, .cls-10 {
        fill: #d6eeeb;
      }

      .cls-16 {
        fill: #201c3d;
      }

      .cls-17 {
        fill: #706f6f;
      }

      .cls-18 {
        fill: #f9dd89;
      }

      .cls-19 {
        fill: #999;
      }

      .cls-20 {
        fill: #b3b3b3;
      }

      .cls-21 {
        fill: #c8e6e2;
      }

      .cls-22 {
        fill: #924fc2;
      }

      .cls-23 {
        fill: #40274f;
      }

      .cls-24 {
        fill: #9e2e3b;
      }

      .cls-25 {
        fill: #dce1cb;
      }

      .cls-9 {
        fill: #a263c7;
      }

      .cls-26 {
        fill: #f2f2f2;
      }
    </style>
  </defs>
  <g class="cls-4">
    <g id="Capa_2" data-name="Capa 2">
      <g id="Layer_1" data-name="Layer 1">
        <g>
          <g>
            <polygon class="cls-18" points="0 104.89 173.03 4.91 382.05 128.1 208.79 227.94 0 104.89"/>
            <polygon class="cls-2" points="0 104.89 208.79 227.94 208.79 232.98 0 109.92 0 104.89"/>
            <polygon class="cls-2" points="382.05 128.1 382.05 133.13 208.79 232.98 208.79 227.94 382.05 128.1"/>
          </g>
          <g>
            <path class="cls-1" d="m97.89,79.47c0,.37.53.67,1.18.67s1.18-.3,1.18-.67l4.28-23.12-2.77-1.73c0,.4-3.88,24.86-3.88,24.86Z"/>
            <path class="cls-1" d="m123.2,94.04c0,.37.53.67,1.18.67s1.18-.3,1.18-.67l.96-25.29-2.77-1.73c0,.4-.56,27.02-.56,27.02Z"/>
            <path class="cls-1" d="m142.53,83.14c0,.37.53.67,1.18.67s1.18-.3,1.18-.67l.96-25.29-2.77-1.73c0,.39-.56,27.02-.56,27.02Z"/>
            <path class="cls-1" d="m117.62,68.55c0,.37.53.67,1.18.67s1.18-.3,1.18-.67l4.28-23.13-2.77-1.73c0,.39-3.88,24.86-3.88,24.86Z"/>
            <g>
              <g>
                <polygon class="cls-3" points="101.21 53.15 122.68 40.75 122.68 12.12 101.21 24.52 101.21 53.15"/>
                <polygon class="cls-24" points="99.29 54.62 101.21 55.62 101.21 24.52 99.29 23.51 99.29 54.62"/>
                <polygon class="cls-24" points="99.29 23.51 101.21 24.52 122.68 12.12 120.76 11.12 99.29 23.51"/>
              </g>
              <polygon class="cls-3" points="101.21 53.15 125.87 67.38 147.34 54.98 122.68 40.75 101.21 53.15"/>
              <polygon class="cls-24" points="99.29 54.62 125.87 69.97 125.87 67.38 99.29 52.01 99.29 54.62"/>
              <polygon class="cls-24" points="125.87 69.97 147.34 57.59 147.34 54.98 125.87 67.38 125.87 69.97"/>
            </g>
          </g>
          <g>
            <g>
              <g>
                <path class="cls-17" d="m197.76,82.19c.47,0,.86-.35.91-.83l2.36-24.2,15.77-9.11,2.25,20.5c.06.5.51.86,1.01.81.5-.06.86-.51.81-1.01l-2.56-23.29-19.02,10.98-2.45,25.14c-.05.5.32.95.82,1,.03,0,.06,0,.09,0Z"/>
                <path class="cls-3" d="m222.37,11.1c-.24-.13-.52-.11-.82.07-.61.35-1.1,1.13-1.17,1.84l-2.97,29.17c-.07.64-.51,1.35-1.04,1.65l-16.38,9.5c-1.24.72-2.24,2.46-2.25,3.89v.41s22.01,12.71,22.01,12.71l20.55-13.74,4.04-32.83-21.95-12.66-.03-.02Z"/>
                <g>
                  <path class="cls-1" d="m219.77,94.9c.47,0,.86-.35.91-.83l2.36-24.2,15.77-9.11,2.25,20.5c.06.5.51.86,1.01.81.5-.06.86-.51.81-1.01l-2.56-23.29-19.01,10.98-2.45,25.14c-.05.5.32.95.82,1,.03,0,.06,0,.09,0Z"/>
                  <path class="cls-24" d="m219.76,70.35l21.98-12.69,2.96-32.96c.07-.83-.46-1.21-1.15-.82-.61.35-1.1,1.13-1.17,1.84l-2.97,29.17c-.07.64-.51,1.35-1.03,1.65l-16.38,9.5c-1.24.72-2.24,2.46-2.24,3.89v.41Z"/>
                </g>
              </g>
              <g>
                <path class="cls-5" d="m197.52,84.33c1.07,1.08,1.23,3.17.87,5.23-.8,1.2-1.25,1.77-2.61,2.18,0,0-1.7.59-3.25,1.5-3.13,3.25-6.02,3.64-7.08,3.24-3.6-1.34.26-4.42,1.31-5.18.3-.22,4.31-4.04,4.31-4.04l.95-1.5-.11-3.28,5.22-1.54.39,3.4Z"/>
                <path class="cls-22" d="m186.76,60.49c.69,8.16,3.24,14.3,5.26,25.26.95.76,2.92,1.45,4.39.96.79-.26,1.43-.85,1.71-1.97.32-9.35.24-16.58-2.34-22.62,7.85-3.45,18.22-4.55,24.63-9.9,2.49-2.15,4.37-4.13,4.95-6.08.3-.97.28-1.93-.15-2.91-.22-.51-.55-1.02-1-1.53l-2.04-1.46-8.81-1.26c-1.12.59-2.37,1.28-3.69,2.03-9.52,5.43-22.95,14.43-22.91,19.47Z"/>
                <path class="cls-9" d="m195.79,86.51s.24.09.63.21c.79-.26,1.43-.85,1.71-1.97.32-9.35.24-16.58-2.34-22.62,7.85-3.45,18.22-4.55,24.63-9.9,2.49-2.15,4.37-4.13,4.95-6.08l-.15-2.91c-.22-.51-.55-1.02-1-1.53l-2.04-1.46-8.81-1.26c-1.12.59-2.37,1.28-3.69,2.03-.67,8.29-8.74,14.13-17.68,19.68,3.36,7.73,4.32,16.46,3.8,25.8Z"/>
                <path class="cls-5" d="m211.77,92.36c1.07,1.08,1.1,3.04.87,5.23-.8,1.2-1.96,1.89-3.32,2.3,0,0-4.99,4.75-9.74,4.04-4.75-.71,0-4.12,0-4.12l5.47-4.75,1.06-1.46.05-3.09,5.22-1.54.39,3.4Z"/>
                <path class="cls-22" d="m198.75,66.52c.69,8.16,5.34,16.11,7.36,27.07,1.84,1.4,3.46,1.65,4.75.17.36-.4.69-.93.99-1.6.32-9.34-.32-17.59-2.9-23.63,7.85-3.45,14.05-6.87,20.45-12.23,4.36-3.77,4.09-10.22,1.04-13.74l-.87-.13-.17-.02-14.4,2.98c-.78.89-1.58,1.8-2.38,2.7-1.07,1.2-2.14,2.41-3.19,3.6-5.27,5.98-9.99,11.63-10.69,14.82Z"/>
                <path class="cls-9" d="m209.95,94.1l.92-.34c.36-.4.69-.93.99-1.6.32-9.34-.32-17.59-2.9-23.63,7.85-3.45,14.05-6.87,20.45-12.23,4.36-3.77,4.09-10.22,1.04-13.74l-.87-.13-16.95,5.66c-1.07,1.2-2.14,2.41-3.19,3.6,1.84.28,5.89.38,14.31.28-3,6.34-10.04,11.72-18.64,15.44,3.97,6.78,4.94,16.24,4.84,26.68Z"/>
              </g>
            </g>
            <g>
              <path class="cls-12" d="m154.37,101.15c-7.64,4.41-7.64,11.57,0,15.98,7.64,4.41,20.03,4.41,27.68,0,7.64-4.41,7.64-11.57,0-15.98-7.64-4.41-20.03-4.41-27.68,0Z"/>
              <path class="cls-14" d="m154.37,99.18c-7.64,4.41-7.64,11.57,0,15.98,7.64,4.41,20.03,4.41,27.68,0,7.64-4.41,7.64-11.57,0-15.98-7.64-4.41-20.03-4.41-27.68,0Z"/>
              <path class="cls-12" d="m163.9,104.68c-2.38,1.37-2.38,3.6,0,4.97,2.38,1.37,6.23,1.37,8.61,0,2.38-1.37,2.38-3.6,0-4.97-2.38-1.37-6.23-1.37-8.61,0Z"/>
              <path class="cls-14" d="m163.9,103.14c-2.38,1.37-2.38,3.6,0,4.97,2.38,1.37,6.23,1.37,8.61,0,2.38-1.37,2.38-3.6,0-4.97-2.38-1.37-6.23-1.37-8.61,0Z"/>
              <path class="cls-12" d="m164.9,102.56c-1.83,1.05-1.83,2.76,0,3.82,1.83,1.05,4.79,1.05,6.61,0,1.83-1.05,1.83-2.76,0-3.82-1.83-1.05-4.79-1.05-6.61,0Z"/>
              <rect class="cls-12" x="163.53" y="73.95" width="9.35" height="30.73"/>
              <path class="cls-12" d="m140.51,54.84c-15.3,8.83-15.3,23.15,0,31.98,15.3,8.83,40.09,8.83,55.39,0,15.3-8.83,15.3-23.15,0-31.98-15.3-8.83-40.09-8.83-55.39,0Z"/>
              <path class="cls-14" d="m140.51,52.59c-15.3,8.83-15.3,23.15,0,31.98,15.3,8.83,40.09,8.83,55.39,0,15.3-8.83,15.3-23.15,0-31.98-15.3-8.83-40.09-8.83-55.39,0Z"/>
              <g>
                <path class="cls-15" d="m189.61,42.13c1.16-.55,1.97-.07,2.49,1.26.17-.09.33-.19.49-.28,4.38-2.5,8.43-5.78,12.53-9.64l2.22-7.7,2.77-9.6,1.58-2.92-2.76-2.1c-4.11-.61-5.45,1.3-6.37,5.77l-3.77,13.46c-3.15,2.66-6.21,6.72-9.18,11.74Z"/>
                <path class="cls-10" d="m192.59,43.11c4.38-2.5,8.43-5.78,12.53-9.64l2.22-7.7-3.31-6.47c-.81,5.39-3.05,9.17-3.26,14.01l-8.19,9.8Z"/>
                <path class="cls-5" d="m218.15,5.2c8.17,2.65,6.43,10.36,4.22,16.41l-5.77-5.42,1.54-10.98Z"/>
                <path class="cls-15" d="m202.56,30.88c0,.05,0,.1,0,.15.2,4.7,6.6,4.26,6.6,4.26l2.59,5.62c.66,8.15,14.75,10.21,18.7,1.66q-2.85-4.04-3.09-6.81c.22-.74.42-1.46.58-2.16,1.28-5.47.67-9.62-1.69-14.31-2.31-3-7.5-6-10.78-7.21l-9.57-.22-1.9,6.94c.51,8.71-1.51,8.41-1.45,12.08Z"/>
                <path class="cls-11" d="m217.07,10.46c.52,1.78,1.91,4.54,2.25,6.24.39,2.1-3.48,5.36-6.07,5.17-1.83-.36-2.3-2.71-2.57-4.88l6.38-6.53Z"/>
                <path class="cls-10" d="m215.74,11.83s1.53,12.55-4.5,11.51c-3.93-.67-3.11-7.16-3.11-7.16l7.61-4.35Z"/>
                <path class="cls-11" d="m211.94.34c-6.04.84-7.91,4.38-7.3,9.19.07,4.03,3.42,9.37,5.77,9.27,3.34.18,4.98-3.72,7.84-7.89,2.21-6.86-.68-11.36-6.3-10.58Z"/>
                <path class="cls-5" d="m204.72,9.66c1.26,1.34,3.27,2.11,5.78,2.68,2.12.87,4.17.79,4.99,1.97l2.45-1.02c2.47-2.84,2.71-10.95-1.52-12.67-6.79-2.75-14.86,4.06-11.7,9.03Z"/>
                <path class="cls-11" d="m215.58,13.07c.37-1.48,1.4-2.45,2.28-1.6.41.4.38,1.13,0,2.05-.3.72-.75,1.06-1.32,1.14-.83.13-1.25-.46-.96-1.6Z"/>
                <path class="cls-10" d="m202.57,31.03c.2,4.7,6.6,4.26,6.6,4.26l2.59,5.62c.66,8.15,14.75,10.21,18.7,1.66q-2.85-4.04-3.09-6.81c.22-.74.42-1.46.58-2.16l-5.69-6.09-3.28,7.38c-2.66,5.74-8.91,3.28-9.42-1.34-.91,1.46-5.68,1.12-6.99-2.53Z"/>
                <g>
                  <g>
                    <polygon class="cls-3" points="191.93 67.23 209.63 57.02 197.87 49.94 185.21 43.78 166.97 52.93 180.62 59.7 191.93 67.23"/>
                    <polygon class="cls-23" points="181.95 60.96 180.69 60.53 179.43 59.55 179.49 59.07 180.62 59.7 181.83 60.42 181.95 60.96"/>
                    <polygon class="cls-23" points="179.52 59.74 166.99 53.61 166.97 52.93 179.49 59.07 179.52 59.74"/>
                    <polygon class="cls-23" points="181.81 61.06 191.91 67.88 191.93 67.23 181.83 60.42 181.81 61.06"/>
                    <path class="cls-23" d="m181.81,61.06c0,.7-2.29-.62-2.29-1.32l-.02-.58c0,.79,2.34,2.05,2.34,1.26l-.03.64Z"/>
                    <polygon class="cls-23" points="191.91 67.88 191.93 67.23 209.63 57.02 209.6 57.67 191.91 67.88"/>
                  </g>
                  <polygon class="cls-1" points="168.67 52.88 180.18 58.58 196.74 50.38 185.23 44.68 168.67 52.88"/>
                </g>
                <path class="cls-11" d="m191.94,42.76c.35.91.42,2.02.46,2.76l-.4,1.41-.85,1.48c-.46.79-1.07.37-.74-.46l.61-1.29v-1.14l-1.91,2.06-1.62,2.54c-.55.55-.75.32-.8-.25l-.55.7c-.48.59-1.07.04-.86-.43l-.21.18c-.45.57-1.07.09-.72-.6l.26-.47c-.55.38-.53-.25-.04-1.04l1.53-2.82c.31-.64,2.54-2.91,3.59-3.32.88-.36,1.63-.08,2.26.7Z"/>
                <path class="cls-11" d="m204.81,52.23c-.5,1.59-1.43,2.35-3.09,3.55l-3.09,2.02c-.93.28-.98-.12-.71-.77l-1.27.88c-.86.53-1.56-.05-1.16-.7l-.83.36c-.8.21-1.13-.24-.36-1.13l.49-.47c-.71.35-1.45,0-.51-.96,1.72-1.89,3.18-3.3,4.95-4.62,1.38-.67,2.42-.89,4-1.07l2.71-.89,1.37,2.49-2.49,1.32Z"/>
                <path class="cls-15" d="m226.26,19.3c2.77,2.3,3.52,4.61,3.01,9.5-1.17,11.19-5.74,18.39-5.74,18.39-4.79,2.63-11.53,3.98-18.72,5.03.09-1.42-.31-2.49-1.58-2.92,6.45-3.09,13.5-7.41,16.12-7.2.16-5.69,1.06-10.21,2.32-15.28.92-3.59,2.28-6.4,4.59-7.52Z"/>
              </g>
            </g>
            <g>
              <polygon class="cls-3" points="107.91 114.68 118.06 97.11 140.44 110.03 121.35 122.44 107.91 114.68"/>
              <path class="cls-1" d="m118.99,149.31c.47,0,.86-.35.91-.83l2.36-24.2,15.77-9.11,2.25,20.5c.06.5.51.86,1.01.81.5-.06.86-.51.81-1.01l-2.56-23.29-19.02,10.98-2.45,25.14c-.05.5.32.95.82,1,.03,0,.06,0,.09,0Z"/>
              <path class="cls-24" d="m122.57,119.64l16.38-9.41c1.24-.71,2.24-.13,2.24,1.3v.41l-21.86,12.62,2.38-4.98c.19.22.5.27.86.06Z"/>
              <g>
                <path class="cls-1" d="m94.34,135.08c.47,0,.86-.35.91-.83l2.36-24.2,15.77-9.11,2.25,20.5c.05.5.51.86,1.01.81.5-.05.86-.51.81-1.01l-2.56-23.29-19.01,10.98-2.45,25.14c-.05.5.32.95.82,1,.03,0,.06,0,.09,0Z"/>
                <path class="cls-6" d="m93.59,78.62c-.21-.12-.5-.1-.82.08-.71.41-1.24,1.41-1.17,2.16l2.96,29.54,21.99-12.69v-.41c0-1.43-1-2.01-2.24-1.3l-16.38,9.42c-.53.3-.97.1-1.04-.46l-2.97-25.74c-.03-.29-.15-.49-.33-.59Z"/>
              </g>
              <path class="cls-3" d="m118.25,92.86l-24.66-14.24c-.21-.12-.5-.1-.82.08-.71.41-1.24,1.41-1.17,2.16l2.96,29.54,24.65,14.23-.96-31.77Z"/>
              <path class="cls-24" d="m116.24,95.09c-.07-.75.46-1.75,1.15-2.14.61-.35,1.1-.13,1.17.49l2.97,25.74c.02.17.09.3.17.4l-2.38,4.98-.12.07-2.96-29.54Z"/>
            </g>
          </g>
          <g>
            <g>
              <path class="cls-1" d="m187.11,146.09c0,.45.65.82,1.45.82s1.45-.37,1.45-.82l5.25-28.33-3.39-2.12c0,.48-4.76,30.46-4.76,30.46Z"/>
              <path class="cls-1" d="m218.68,132.93l5.61,34.05c0,.45.65.82,1.45.82s1.45-.37,1.45-.82c0,0-5.11-35.69-5.11-36.17l-3.39,2.12Z"/>
              <path class="cls-1" d="m242.24,119.21l5.61,34.05c0,.45.65.82,1.45.82s1.45-.37,1.45-.82c0,0-5.11-35.69-5.11-36.17l-3.39,2.12Z"/>
              <path class="cls-1" d="m211.29,132.7c0,.45.65.82,1.45.82s1.45-.37,1.45-.82l5.25-28.33-3.39-2.12c0,.48-4.76,30.46-4.76,30.46Z"/>
              <g>
                <polygon class="cls-3" points="188.83 112.44 221.39 131.27 247.7 116.08 215.13 97.25 188.83 112.44"/>
                <polygon class="cls-24" points="188.83 115.63 221.39 134.44 221.39 131.27 188.83 112.44 188.83 115.63"/>
              </g>
            </g>
            <g>
              <polygon class="cls-24" points="221.39 131.27 221.39 131.27 221.39 134.44 247.7 119.27 247.7 116.08 247.7 116.08 247.7 81 221.39 96.19 221.39 131.27"/>
              <polygon class="cls-24" points="219.03 133.07 221.39 134.3 221.39 96.19 219.03 94.96 219.03 133.07"/>
              <polygon class="cls-24" points="219.03 94.96 221.39 96.19 247.7 81 245.34 79.77 219.03 94.96"/>
            </g>
          </g>
          <g>
            <g>
              <g class="cls-4">
                <path class="cls-24" d="m321.89,99.45c-.58-.33-1.1-.36-1.48-.14l-22.85,13.28c.38-.22.9-.19,1.48.14l22.22,12.83,22.85-13.28-22.22-12.83Z"/>
                <path class="cls-20" d="m302.29,41.82l22.85-13.28c.17-.1.4-.07.63.06l-22.85,13.28c-.23-.14-.46-.16-.63-.06Z"/>
                <path class="cls-3" d="m302.92,41.88l22.85-13.28c.21.12.42.33.6.63,2.58,4.44,4.82,9.14,6.76,13.97,1.3,3.23,2.47,6.52,3.51,9.83,1.81,5.72,3.27,11.52,4.43,17.18.68,3.25,1.25,6.43,1.75,9.54.89,5.61,1.52,10.96,1.98,15.84.3,3.27.52,6.34.68,9.12.33,5.48.43,9.9.48,12.75l-22.85,13.28c-.05-2.85-.16-7.27-.48-12.75-.16-2.78-.38-5.85-.68-9.12-.45-4.88-1.09-10.23-1.98-15.84-.49-3.11-1.07-6.3-1.75-9.54-1.16-5.66-2.62-11.46-4.43-17.18-1.04-3.31-2.21-6.6-3.51-9.83-1.94-4.83-4.18-9.53-6.76-13.97-.17-.3-.39-.51-.6-.63Z"/>
                <path class="cls-25" d="m302.92,41.88c.21.12.42.33.6.63,2.58,4.44,4.82,9.14,6.76,13.97,1.3,3.23,2.47,6.52,3.51,9.83,1.81,5.72,3.27,11.52,4.43,17.18.68,3.25,1.25,6.43,1.75,9.54.89,5.61,1.52,10.96,1.98,15.84.3,3.27.52,6.34.68,9.12.33,5.48.43,9.9.48,12.75l-26.16-15.1v-1.73c0-1.33.94-1.86,2.09-1.2l22.22,12.83c-.1-2.89-.22-5.7-.39-8.43-.19-3.15-.42-6.19-.7-9.12-.51-5.56-1.17-10.74-1.94-15.61-.52-3.33-1.11-6.51-1.74-9.55-1.28-6.18-2.75-11.72-4.32-16.69-1.13-3.57-2.31-6.85-3.53-9.84-1.6-3.96-3.25-7.44-4.88-10.47-.52-.97-1.01-1.84-1.46-2.63-.17-.29-.25-.58-.25-.85,0-.59.43-.75.88-.49Z"/>
              </g>
              <polygon class="cls-25" points="313.53 54.57 330.67 44.61 332.91 44.82 315.77 54.78 313.53 54.57"/>
              <path class="cls-24" d="m315.77,54.78l2.91,9.78-1.64-.16c-1.04-3.31-2.21-6.6-3.51-9.83l2.24.21Z"/>
              <g>
                <polygon class="cls-19" points="321.27 80.48 338.41 70.52 340.56 71.32 323.42 81.28 321.27 80.48"/>
                <polygon class="cls-25" points="321.27 80.48 338.41 70.52 340.56 71.32 323.42 81.28 321.27 80.48"/>
              </g>
              <path class="cls-24" d="m323.42,81.28l1.32,9.38-1.72-.64c-.49-3.11-1.07-6.3-1.75-9.54l2.15.8Z"/>
              <g>
                <polygon class="cls-19" points="325.19 106.96 342.33 97 344.32 98 327.19 107.96 325.19 106.96"/>
                <polygon class="cls-25" points="325.19 106.96 342.33 97 344.32 98 327.19 107.96 325.19 106.96"/>
              </g>
              <path class="cls-24" d="m327.19,107.96l.48,9.03-1.79-.9c-.16-2.78-.38-5.85-.68-9.12l1.99,1Z"/>
              <g>
                <polygon class="cls-1" points="327.01 35.77 325.89 35.66 314.46 42.3 320.22 61.65 321.35 61.76 332.78 55.12 327.01 35.77"/>
                <polygon class="cls-26" points="315.59 42.41 327.01 35.77 332.78 55.12 321.35 61.76 315.59 42.41"/>
              </g>
              <g>
                <polygon class="cls-1" points="336.83 61.56 335.66 61.12 324.24 67.76 326.87 86.52 328.04 86.96 339.46 80.32 336.83 61.56"/>
                <polygon class="cls-26" points="325.4 68.2 336.83 61.56 339.46 80.32 328.04 86.96 325.4 68.2"/>
              </g>
              <g>
                <polygon class="cls-1" points="341.53 89.98 340.11 89.26 328.68 95.9 329.62 113.72 331.05 114.43 342.48 107.79 341.53 89.98"/>
                <polygon class="cls-26" points="330.1 96.62 341.53 89.98 342.48 107.79 331.05 114.43 330.1 96.62"/>
              </g>
              <polygon class="cls-13" points="327.19 107.96 344.32 98 344.8 107.03 327.66 116.99 327.19 107.96"/>
              <polygon class="cls-13" points="323.42 81.28 340.56 71.32 341.87 80.7 324.73 90.66 323.42 81.28"/>
              <polygon class="cls-13" points="315.77 54.78 332.91 44.82 335.82 54.59 318.68 64.55 315.77 54.78"/>
            </g>
            <g>
              <path class="cls-5" d="m283.68,129.65s-.58,3.13-.29,4.48c.29,1.35,3.85,2.22,3.85,2.22,0,0,5.01,4.71,9.25,4.38,2.51-.19,3.35-.85,3.74-1.59.39-.74.03-1.67-.47-2.36s-5.69-2.89-6.99-4.96c-.63-1.01-1.69-3.13-1.69-3.13l-.43-3.95-6.89-.29.34,4.67-.44.53Z"/>
              <path class="cls-16" d="m277.61,80.15l4.38,22.03c-1.62,8.79-1.25,17.97.96,27.5,1.35,3.63,6.16,2.61,9.16,0-.89-7.15-1.03-15.45-.87-24.22l.87-5.76s.72-2.95.67-14.09c-.02-5.73-3.28-18.2-3.28-18.2l-11.9,12.74Z"/>
              <path class="cls-5" d="m268.5,137.36c-.52.99-.52,2.67-.57,5.1.66,1.35,1.66,2.44,2.88,2.85,0,0,2.07,5.11,7.9,5.25,5.47.14,5.42-2.08,5.4-2.07,0,0,0-1.25-1.25-2.31-.79-.66-4.82-3.88-5.54-4.82-.72-.93-1.3-2.41-1.3-2.41l-.24-3.95h-7.37l.1,2.36Z"/>
              <path class="cls-12" d="m281.27,84.89c0,11.16.41,17.76-2.53,23.41,0,0-.61,4.65-1.45,7.52-.87,2.97-.72,15.95-.36,23.63-1.52,2.51-5.13,2.91-7.49,1.3-.9-.62-1.62-1.54-1.98-2.74-1.93-12.06-3.26-21.61,1.51-30.5-1.53-7.79-1.35-15.46-.87-23.93-.59-5.07.09-9.21,1.6-12.72.38-.88.81-1.72,1.29-2.53l19.85,4.71c-2.06,7.11-5.66,10.98-9.58,11.85Z"/>
              <path class="cls-8" d="m272.22,108.26c-6.09,6.25-4.33,18.38-2.78,32.49-.9-.61-1.62-1.53-1.98-2.74-1.93-12.06-3.26-21.61,1.51-30.5-1.53-7.79-1.35-15.46-.87-23.93-.59-5.07.09-9.21,1.6-12.72l6.88,7.75c-6.84,4.29-8.12,19.24-4.37,29.64Z"/>
              <path class="cls-11" d="m295.52,71.65c-.56,1.29-1.11,2.55-1.64,3.75-.46,1.82-1.25,3.47-2.17,5.07-.3,1.17.29,1.22,1.41.6l2.33-3.44c.65.56,1.11,1.5,1.48,2.65l-.63,5.27c.16,1.02.57.92,1.08.34l.93-4.79.09,5.13c.36.43.66.28.91-.41l.3-1.48c.26.54.52.44.78-.11,0,0,.19-6.18.19-6.28,0-.1-2.01-7.21-2.01-7.21l-.78-1.53-3.08.86.8,1.57Z"/>
              <path class="cls-21" d="m285.54,42.05c1.1,4.15.81,9.22,2.24,15.24,1.95,6.03,2.86,9.21,5.62,16.06.43.66,5.74-.44,5.58-1.14-2.87-13.18-1.19-8.87-3.02-14.56-.82-4.37-.88-9.94-1.4-15.25-.31-3.48-1.63-5.37-3.45-6.17-4.1-1.34-7.89,1.92-5.58,5.83Z"/>
              <path class="cls-15" d="m291.17,64.92c-.01.11-.02.22-.03.33-.1,1.24-.24,2.56-.38,3.92-.06.54-.11,1.05-.17,1.56.55,2.77-3.56,5.08-8.08,6.44-4.15,1.28-8.66,1.77-10.32,1.17-3.66-1.32-4.88-4.86-4.88-4.86l-.8-14.46-.07-1.22-1.44-11.41c2.27-2.76,5.54-5.63,7.82-6.82,5.48-3.65,10.46-5.2,17.13-3.3,2.14,7.17,2.55,14.1,1.21,28.63Z"/>
              <path class="cls-21" d="m282.08,44.01l2.53,1.72s1.83-6.57.09-8.29c-1.75-1.72-2.62,6.57-2.62,6.57Z"/>
              <path class="cls-11" d="m274.35,38.72l3.12-6.47,7.99,3.99-1.11,5.03c-1.56,5.86-10.97,2.42-10-2.55Z"/>
              <path class="cls-3" d="m283.4,47.5v-2.58l-1.32-.9-.72,1.67.72,2.29c.37,4.82.94,12.64.58,17.73l2.14,2.04,1.48-3.34c-.29-4.97-1.82-12.22-2.88-16.9Z"/>
              <path class="cls-21" d="m275.12,37.16l-1.63,1.99s2.7,7.62,7.53,7.62c.65-1.51,1.06-2.76,1.06-2.76-3.51-.53-6.96-4.21-6.96-6.85Z"/>
              <path class="cls-10" d="m291.13,65.25c-.1,1.24-.24,2.56-.38,3.92-.06.54-.11,1.05-.17,1.56.55,2.77-3.56,5.08-8.08,6.44-4.15,1.28-8.66,1.77-10.32,1.17-3.66-1.32-4.88-4.86-4.88-4.86l-.8-14.46,7.74-5.75c1.27,5.37.84,6.09,2.08,10.12,2.08,1.22,11.35-.72,14.84,1.52-.07.06-.07.16-.03.33Z"/>
              <path class="cls-7" d="m286.94,38.82c.71,3.42,1.15,8.35-.97,8.56-1.38,0-3.96-2.44-5.2-6.63-1-3.38-.74-5.82-.74-5.82l6.91,3.89Z"/>
              <path class="cls-11" d="m279.74,35.7l2.02,2.92c.38.73,1.06,1.25,1.86,1.43,1.56.34,3.07.35,4.53.08.73-.2,1.24-.58,1.46-1.21.22-.63.47-3.86.47-3.86,0,0,.58-.3.74-.67.15-.37.15-.7-.1-.97-.25-.27-1.49-2.53-1.49-2.53l.53-2.37c-.18-3.76-2.43-6.44-7.61-7.58-4.39-.76-7.28,1.34-8.2,5.98-.69,5.87,1.09,8.09,5.78,8.78Z"/>
              <path class="cls-5" d="m275.28,34.86c.64.54,1.34.8,2.09.8.39,0,.74-.26.88-.63l.8-2.21,1.98-.11c.34-.02.61-.31.6-.65l-.03-.86c-.02-.61.4-1.16,1-1.29,3.21-.7,6.19-1.46,7.06-2.73.1-.15.15-.33.13-.51-.97-6.08-13.57-9.66-15.98-.62-.89,3.34-.42,6.19,1.48,8.8Z"/>
              <path class="cls-11" d="m278.56,31.62c-.57.18-.88.83-.87,1.42.01.6.28,1.15.55,1.69.15.32.32.64.57.88s.64.38.97.27c.28-.1.48-.36.57-.65.09-.28.09-.59.1-.88,0-.65,0-1.33-.3-1.9-.29-.58-.97-1.02-1.59-.82Z"/>
              <g>
                <path class="cls-11" d="m297.68,58.47c1.03.43,2.33.37,3.86-.15l1.93-1.01c.56.35,1.36-.17,2.18-.71.48-.53.51-1,.1-1.39.18-.66.15-1.22-.39-1.49.16-.63.04-1.14-.59-1.42.04-.66-.16-1.19-.8-1.44l4.4-2.87c.95-.61.56-1.68-.82-.98l-8.58,4.85c-1.25.6-2.3,1.49-3.17,2.65l-2.01,2.78,2.72,2.96,1.17-1.78Z"/>
                <path class="cls-15" d="m298.39,59.44c-2.33,3.19-14.86,10.46-19.34,10.39-5.62-4.31-6.86-4.85-12.84-11.5-6.13-9.11-.34-18.03,6.59-9.95,3.89,4.37,6.47,7.86,8.67,11.49,6.2-2.4,13.92-4.89,13.97-4.9-.51,1.16,1.73,4.32,2.94,4.47Z"/>
              </g>
            </g>
          </g>
        </g>
      </g>
    </g>
  </g>
</svg>