<?xml version="1.0" encoding="UTF-8"?>
<svg xmlns="http://www.w3.org/2000/svg" xmlns:xlink="http://www.w3.org/1999/xlink" viewBox="0 0 700.49 213.41">
  <defs>
    <style>
      .cls-1 {
        fill: #e3944e;
      }

      .cls-2, .cls-3 {
        fill: #fff;
      }

      .cls-4 {
        isolation: isolate;
      }

      .cls-5, .cls-6, .cls-7, .cls-8 {
        mix-blend-mode: multiply;
      }

      .cls-5, .cls-9 {
        fill: #e8ba41;
      }

      .cls-6 {
        fill: #30468a;
      }

      .cls-3 {
        font-family: Avenir-Black, Avenir;
        font-size: 15.47px;
        font-weight: 800;
      }

      .cls-10, .cls-7 {
        fill: #c45a52;
      }

      .cls-11 {
        fill: #56aec5;
      }

      .cls-12 {
        fill: #6ac8cd;
      }

      .cls-13 {
        clip-path: url(#clippath);
      }

      .cls-14 {
        fill: none;
      }
    </style>
    <clipPath id="clippath">
      <circle class="cls-14" cx="154.28" cy="106.38" r="73.17"/>
    </clipPath>
  </defs>
  <g class="cls-4">
    <g id="Capa_2" data-name="Capa 2">
      <g id="Layer_1" data-name="Layer 1">
        <g>
          <g>
            <g>
              <path class="cls-7" d="m223,99.06c1.69,39.11-37.24,59.93-79.86,59.93s-75.47-34.63-70.16-74.71c4.96-37.43,40.69-64.68,79.28-63.07,37.71,1.57,67.7,7.54,70.74,77.85Z"/>
              <path class="cls-5" d="m240.63,108.22c6.24,39.37-32.3,60.18-75.61,60.18s-77.52-32.59-77.52-70.78c0-36.15,31.27-64.46,70.11-64.96,39.13-.51,71.67,3.94,83.03,75.56Z"/>
              <path class="cls-6" d="m221.61,129.73c-5.04,33.69-42.39,52.42-80.45,55.43-39.81,3.15-73.43-22.12-73.43-59.67,0-41.47,40.11-78.4,87.21-78.4,44.67,0,78.13,6.09,66.67,82.63Z"/>
              <g class="cls-8">
                <path class="cls-11" d="m234.8,105.97c7.01,38.47-19.73,86.51-60.88,83.05-80.23-6.74-79.24-17.79-86.25-56.26-7.01-38.47,20.25-75.66,60.88-83.05,40.63-7.4,79.24,17.79,86.25,56.26Z"/>
              </g>
              <circle class="cls-2" cx="153.79" cy="106.72" r="78.6"/>
            </g>
            <g class="cls-13">
              <rect class="cls-2" width="248.03" height="192.78"/>
              <path class="cls-10" d="m142.56,105.35l-14.19-24.57c-1.89-3.27-6.6-3.27-8.49,0l-69.44,120.28c.46-.16.98-.25,1.46-.38,1.68-.67,3.35-1.36,5.05-2.01,6.47-2.49,13.55-.54,18.98,3.6,7.06,1.87,1.93,4.45,8.89,6.43l57.74-103.34Z"/>
              <path class="cls-1" d="m185.16,54.17c-1.89-3.27-6.6-3.27-8.49,0l-69.44,120.28c.46-.16.98-.25,1.46-.38,1.68-.67,3.35-1.36,5.05-2.01,6.47-2.49,13.55-.54,18.98,3.6,16.15,4.28,31.68,12.24,48.23,8.45,21.52-4.93,40.12-21.93,58.96-32.69.36-.2.71-.36,1.07-.54l-55.82-96.68Z"/>
              <path class="cls-10" d="m186.29,91.95s5.59-8.01,11.37-16.53l-12.27-21.25c-1.89-3.27-6.6-3.27-8.49,0l-15.75,27.28h14.64l10.5,10.5Z"/>
              <g>
                <path class="cls-11" d="m291.75,143.07c-17.26,3.25-27.74-1.49-36.17-5.3-7.38-3.34-11.83.33-22.94,2.42-11.11,2.09-16.95.37-22.61,6.16-6.46,6.61-14.5,14.84-31.75,18.1-17.26,3.25-27.74-1.49-36.17-5.3-7.38-3.34-13.21-5.97-24.32-3.88-11.11,2.09-15.58,6.67-21.24,12.46-6.46,6.61-14.5,14.84-31.75,18.1-5.38,1.01-10.57-2.53-11.58-7.91s2.53-10.57,7.91-11.58c11.11-2.09,15.58-6.67,21.24-12.46,6.46-6.61,14.5-14.84,31.75-18.1,17.26-3.25,27.74,1.49,36.16,5.3,7.38,3.34,13.21,5.97,24.32,3.88,11.11-2.09,15.57-6.67,21.23-12.46,6.46-6.61,14.5-14.84,31.75-18.1,17.26-3.25,27.74,1.49,36.17,5.3,7.38,3.34,13.21,5.97,24.32,3.88,5.38-1.01,10.57,2.53,11.58,7.91,1.01,5.38-2.53,10.57-7.91,11.58Z"/>
                <path class="cls-2" d="m238.65,113.32c10.99,0,18.65,3.46,25.1,6.38,5.55,2.51,10.23,4.63,16.94,4.63,2.21,0,4.63-.23,7.38-.75.62-.12,1.24-.17,1.85-.17,4.67,0,8.84,3.32,9.73,8.08,1.01,5.38-2.53,10.57-7.91,11.58-4.04.76-7.71,1.08-11.06,1.08-10.99,0-18.65-3.46-25.1-6.38-2.14-.97-4.03-1.35-5.91-1.35-4.61,0-9.14,2.28-17.03,3.77-11.11,2.09-16.95.37-22.61,6.16-6.46,6.61-14.5,14.84-31.75,18.1-4.04.76-7.71,1.08-11.06,1.08-10.99,0-18.65-3.46-25.1-6.38-5.55-2.51-10.23-4.63-16.94-4.63-2.21,0-4.63.23-7.38.75-11.11,2.09-15.58,6.67-21.24,12.46-6.46,6.61-14.5,14.84-31.75,18.1-.62.12-1.24.17-1.85.17-4.67,0-8.84-3.32-9.73-8.08-1.01-5.38,2.53-10.57,7.91-11.58,11.11-2.09,15.58-6.67,21.24-12.46,6.46-6.61,14.5-14.84,31.75-18.1,4.04-.76,7.71-1.08,11.06-1.08,10.99,0,18.65,3.46,25.1,6.38,5.55,2.51,10.23,4.63,16.94,4.63,2.21,0,4.63-.23,7.38-.75,11.11-2.09,15.57-6.67,21.23-12.46,6.46-6.61,14.5-14.84,31.75-18.1,4.04-.76,7.71-1.08,11.06-1.08m0-4.3c-3.79,0-7.78.39-11.86,1.16-18.58,3.5-27.5,12.64-34.02,19.31-5.54,5.67-9.19,9.41-18.96,11.25-2.4.45-4.56.67-6.59.67-5.78,0-9.72-1.78-15.16-4.24-6.67-3.02-14.96-6.77-26.88-6.77-3.79,0-7.78.39-11.86,1.16-18.59,3.5-27.52,12.64-34.04,19.32-5.53,5.66-9.18,9.4-18.95,11.24-7.71,1.45-12.79,8.9-11.34,16.61,1.27,6.71,7.14,11.59,13.96,11.59.88,0,1.77-.08,2.64-.25,18.59-3.5,27.52-12.64,34.04-19.32,5.53-5.66,9.18-9.4,18.95-11.24,2.4-.45,4.55-.67,6.58-.67,5.78,0,9.72,1.78,15.16,4.24,6.66,3.01,14.96,6.77,26.88,6.77,3.79,0,7.78-.39,11.86-1.16,18.58-3.5,27.5-12.64,34.02-19.31,2.74-2.8,5.24-3.15,11.13-3.73,2.64-.26,5.64-.55,9.21-1.22,3.6-.68,6.46-1.49,8.99-2.21,2.92-.83,5.22-1.48,7.24-1.48,1.39,0,2.66.3,4.14.96,6.66,3.01,14.96,6.76,26.88,6.76,3.79,0,7.78-.39,11.86-1.16,7.71-1.45,12.79-8.9,11.34-16.61-1.27-6.71-7.14-11.59-13.96-11.59-.88,0-1.77.08-2.64.25-2.4.45-4.56.67-6.59.67-5.78,0-9.72-1.78-15.16-4.24-6.66-3.01-14.96-6.77-26.88-6.77h0Z"/>
              </g>
              <g>
                <path class="cls-12" d="m279.89,200.1c-16.15-4.43-23.16-12.88-28.78-19.67-4.93-5.95-8.82-10.64-19.22-13.5-10.4-2.85-16.14-.8-23.41,1.8-8.3,2.97-18.64,6.66-34.78,2.23-16.15-4.43-23.16-12.88-28.78-19.67-4.93-5.95-8.82-10.64-19.22-13.5-10.4-2.85-16.14-.8-23.42,1.8-8.3,2.97-18.64,6.66-34.79,2.23-5.04-1.38-8-6.59-6.62-11.62,1.38-5.04,6.59-8,11.62-6.62,10.4,2.85,16.14.8,23.42-1.8,8.3-2.97,18.64-6.66,34.79-2.23,16.15,4.43,23.15,12.88,28.78,19.67,4.93,5.95,8.82,10.64,19.22,13.5,10.4,2.85,16.14.8,23.41-1.8,8.3-2.97,18.64-6.66,34.78-2.23,16.15,4.43,23.16,12.88,28.78,19.67,4.93,5.95,8.82,10.64,19.22,13.5,5.04,1.38,8,6.59,6.62,11.62-1.38,5.04-6.59,8-11.62,6.62Z"/>
                <path class="cls-2" d="m116.34,117.5c4.23,0,8.97.57,14.35,2.05,16.15,4.43,23.15,12.88,28.78,19.67,4.93,5.95,8.82,10.64,19.22,13.5,3.57.98,6.59,1.38,9.3,1.38,5.21,0,9.33-1.47,14.11-3.18,5.54-1.98,11.98-4.28,20.44-4.28,4.23,0,8.96.57,14.34,2.05,16.15,4.43,23.16,12.88,28.78,19.67,4.93,5.95,8.82,10.64,19.22,13.5,5.04,1.38,8,6.59,6.62,11.62-1.15,4.2-4.96,6.96-9.12,6.96-.83,0-1.67-.11-2.51-.34-16.15-4.43-23.16-12.88-28.78-19.67-4.93-5.95-8.82-10.64-19.22-13.5-3.57-.98-6.58-1.38-9.31-1.38-5.21,0-9.33,1.47-14.11,3.18-5.54,1.98-11.98,4.28-20.44,4.28-4.23,0-8.96-.57-14.34-2.05-16.15-4.43-23.16-12.88-28.78-19.67-4.93-5.95-8.82-10.64-19.22-13.5-3.57-.98-6.59-1.38-9.31-1.38-5.21,0-9.33,1.47-14.11,3.18-5.54,1.98-11.97,4.28-20.44,4.28-4.23,0-8.97-.57-14.35-2.05-5.04-1.38-8-6.59-6.62-11.62,1.15-4.2,4.96-6.96,9.12-6.96.83,0,1.67.11,2.51.34,3.57.98,6.59,1.38,9.31,1.38,5.21,0,9.33-1.47,14.11-3.18,5.54-1.98,11.98-4.28,20.44-4.28m0-4.3c-9.21,0-16.24,2.51-21.89,4.53-4.58,1.64-8.2,2.93-12.66,2.93-2.49,0-5.16-.4-8.17-1.23-1.19-.33-2.42-.49-3.65-.49-6.18,0-11.63,4.16-13.27,10.12-2.01,7.32,2.31,14.9,9.63,16.91,5.41,1.48,10.47,2.21,15.49,2.21,9.21,0,16.24-2.51,21.89-4.53,4.58-1.64,8.2-2.93,12.66-2.93,2.49,0,5.16.4,8.17,1.23,9.09,2.49,12.25,6.31,17.04,12.09,5.7,6.87,13.49,16.28,30.96,21.08,5.4,1.48,10.47,2.2,15.48,2.2,9.21,0,16.23-2.51,21.88-4.53,4.6-1.64,8.21-2.93,12.67-2.93,2.49,0,5.16.4,8.17,1.23,9.09,2.5,12.26,6.31,17.05,12.09,5.7,6.87,13.49,16.28,30.96,21.08,1.19.33,2.42.49,3.65.49,6.18,0,11.63-4.16,13.27-10.12.97-3.54.51-7.26-1.31-10.45-1.82-3.19-4.77-5.49-8.32-6.46-9.09-2.5-12.26-6.31-17.05-12.09-5.7-6.87-13.49-16.28-30.96-21.08-5.4-1.48-10.47-2.2-15.48-2.2-9.21,0-16.23,2.51-21.88,4.53-4.6,1.64-8.21,2.93-12.67,2.93-2.49,0-5.16-.4-8.17-1.23-9.09-2.5-12.26-6.31-17.05-12.09-5.7-6.87-13.49-16.28-30.96-21.08-5.41-1.48-10.47-2.2-15.49-2.2h0Z"/>
              </g>
              <g>
                <path class="cls-12" d="m311.55,186c-18.98,1.75-29.82-4.44-38.54-9.41-7.63-4.36-13.66-7.8-25.88-6.67-12.22,1.13-17.51,5.62-24.21,11.3-7.65,6.49-17.18,14.56-36.15,16.32-18.98,1.75-29.82-4.44-38.54-9.41-7.63-4.36-13.66-7.8-25.88-6.67-12.22,1.13-17.51,5.62-24.22,11.3-7.65,6.49-17.18,14.56-36.15,16.32-5.92.55-11.16-3.81-11.71-9.73-.55-5.92,3.81-11.16,9.73-11.71,12.22-1.13,17.51-5.62,24.22-11.3,7.65-6.49,17.18-14.56,36.16-16.32,18.98-1.75,29.82,4.44,38.53,9.41,7.63,4.36,13.66,7.8,25.88,6.67,12.22-1.13,17.51-5.62,24.21-11.3,7.65-6.49,17.18-14.56,36.15-16.32,18.98-1.75,29.82,4.44,38.54,9.41,7.63,4.36,13.66,7.8,25.88,6.67,5.92-.55,11.16,3.81,11.71,9.73.55,5.92-3.81,11.16-9.73,11.71Z"/>
                <path class="cls-2" d="m251.56,148.18c15.11,0,24.44,5.33,32.12,9.72,6.64,3.79,12.06,6.89,21.4,6.89,1.4,0,2.89-.07,4.48-.22.34-.03.67-.05,1-.05,5.5,0,10.19,4.19,10.7,9.77.55,5.92-3.81,11.16-9.73,11.71-2.25.21-4.38.3-6.41.3-15.11,0-24.44-5.33-32.12-9.72-6.64-3.79-12.06-6.89-21.4-6.89-1.4,0-2.89.07-4.48.22-12.22,1.13-17.51,5.62-24.21,11.3-7.65,6.49-17.18,14.56-36.15,16.31-2.25.21-4.38.3-6.41.3-15.11,0-24.44-5.33-32.12-9.72-6.64-3.79-12.06-6.89-21.4-6.89-1.4,0-2.89.07-4.48.22-12.22,1.13-17.51,5.62-24.22,11.3-7.65,6.49-17.18,14.56-36.15,16.32-.34.03-.67.05-1,.05-5.5,0-10.19-4.19-10.7-9.77-.55-5.92,3.81-11.16,9.73-11.71,12.22-1.13,17.51-5.62,24.22-11.3,7.65-6.49,17.18-14.56,36.15-16.32,2.25-.21,4.38-.3,6.41-.3,15.1,0,24.44,5.33,32.12,9.72,6.64,3.79,12.06,6.89,21.4,6.89,1.4,0,2.89-.07,4.48-.22,12.22-1.13,17.51-5.62,24.21-11.3,7.65-6.49,17.18-14.56,36.15-16.32,2.25-.21,4.38-.3,6.41-.3m0-4.3c-2.2,0-4.5.11-6.81.32-20.32,1.88-30.84,10.8-38.53,17.31-6.62,5.61-10.98,9.3-21.84,10.31-1.43.13-2.8.2-4.08.2-8.2,0-12.84-2.65-19.27-6.32-8.02-4.58-18.01-10.28-34.26-10.28-2.2,0-4.49.11-6.81.32-20.33,1.88-30.86,10.8-38.54,17.32-6.6,5.6-10.97,9.29-21.83,10.3-4.01.37-7.63,2.28-10.2,5.37-2.57,3.1-3.78,7.01-3.41,11.01.72,7.8,7.16,13.68,14.99,13.68.46,0,.93-.02,1.4-.06,20.33-1.88,30.86-10.8,38.54-17.32,6.6-5.6,10.97-9.29,21.83-10.3,1.42-.13,2.8-.2,4.08-.2,8.2,0,12.84,2.65,19.27,6.32,8.02,4.58,18.01,10.28,34.26,10.28,2.2,0,4.49-.11,6.81-.32,20.32-1.88,30.84-10.8,38.53-17.31,6.62-5.61,10.98-9.3,21.84-10.31,1.43-.13,2.8-.2,4.08-.2,8.2,0,12.84,2.65,19.27,6.32,8.02,4.58,18.01,10.28,34.26,10.28,2.2,0,4.5-.11,6.81-.32,8.27-.76,14.38-8.12,13.61-16.39-.72-7.8-7.16-13.68-14.99-13.68-.46,0-.93.02-1.4.06-1.43.13-2.8.2-4.08.2-8.2,0-12.84-2.65-19.27-6.32-8.02-4.58-18.01-10.28-34.26-10.28h0Z"/>
              </g>
            </g>
            <path class="cls-9" d="m139.56,70.23c0,7.83,4.23,14.66,10.51,18.37l21.27-36.99c-3.09-1.73-6.64-2.73-10.44-2.73-11.79,0-21.35,9.56-21.35,21.35Z"/>
          </g>
          <g>
            <path class="cls-2" d="m315.32,110.63c-7.25,3.51-15.82,4.83-23.35,4.83-18.39,0-27.15-10.86-27.15-27.4,0-20.12,13.61-42.34,36.98-42.34,13.22,0,21.65,8.09,21.7,19.59,0,17.42-16.06,23.85-40.47,23.18,0,1.92.54,5.1,1.96,7.16,2.3,3.22,6.33,5.06,11.77,5.06,6.75,0,12.31-1.57,17.25-3.98l1.31,13.91Zm-15.86-50.64c-7.98,0-13.1,7.3-14.59,14.55,13.44.22,21.12-2.34,21.12-8.72,0-3.52-2.42-5.82-6.53-5.82Z"/>
            <path class="cls-2" d="m348.6,47.1l3.39,10.68c1.71,5.37,2.59,8.71,3.35,11.29h.4c2.08-3.38,3.88-6.62,6.44-10.62l7.19-11.35h21.11l-26.39,32.89,13.6,34.21h-20.46l-3.62-11.02c-1.58-4.82-2.5-7.84-3.47-12.07h-.35c-1.67,3-3.35,6.24-6.21,11.09l-7.57,12.01h-21.22l26.97-34.5-13.66-32.6h20.49Z"/>
            <path class="cls-2" d="m376.63,141.1l13.16-69.22c1.48-7.93,2.93-17.98,3.82-24.78h16.75l-1.14,9.77h.27c5.05-7.09,12.55-11.15,20.08-11.15,13.76,0,19.42,11.35,19.42,24.05,0,23.02-14.48,45.82-36.69,45.82-4.69,0-8.99-1.09-11.19-2.43h-.33l-5.29,27.94h-18.85Zm27.02-42.54c1.94,1.65,4.41,2.71,7.73,2.71,10.52,0,17.87-17.33,17.87-29.57,0-5.09-1.77-10.39-7.58-10.39-6.49,0-12.72,7.86-14.87,19.52l-3.15,17.73Z"/>
            <path class="cls-2" d="m516.81,72.15c0,23.44-15.14,43.44-37.51,43.44-17.02,0-26.08-11.71-26.08-26.37,0-23.02,15.1-43.51,37.87-43.51,17.7,0,25.73,12.89,25.73,26.43Zm-44.23,16.57c0,6.95,2.82,12.41,9.22,12.41,9.97,0,15.64-17.92,15.64-29.5,0-5.71-2.23-11.44-8.97-11.44-10.2,0-15.94,17.79-15.89,28.53Z"/>
            <path class="cls-2" d="m555.16,28.57l-3.48,18.53h13.79l-2.73,14.18h-13.84l-4.91,25.24c-.5,2.55-.95,5.6-.95,7.66,0,3.54,1.63,5.63,5.57,5.63,1.6,0,3.48-.03,5.19-.28l-2.2,14.67c-2.73.94-7.3,1.35-11.23,1.35-11.39,0-16.82-5.95-16.82-14.51,0-3.5.41-7.13,1.34-11.75l5.41-28.02h-8.34l2.65-14.18h8.4l2.66-14,19.49-4.53Z"/>
            <path class="cls-2" d="m628.79,47.1l-8.56,45.24c-1.62,8.31-2.65,15.73-3.54,21.86h-16.64l1.04-10.33-.27-.1c-6.31,8.27-13.84,11.82-21.42,11.82-10.17,0-15.85-6.28-15.85-17.79,0-3.86.5-8.05,1.41-12.82l7.18-37.88h18.96l-6.93,36.59c-.64,3.42-1.1,6.77-1.1,9.45,0,3.97,1.61,7.02,6,7.02,5.95,0,12.15-7.38,14.49-19.61l6.28-33.45h18.96Z"/>
            <path class="cls-2" d="m628.17,114.21l7.89-41.61c1.75-9.36,2.65-19.57,3.41-25.49h16.36c-.32,4.23-.64,8.47-1.16,12.99h.45c4.78-8.79,11.81-14.38,19.94-14.38,1.19,0,2.35.07,3.4.2l-3.67,18.63c-.77-.08-1.94-.15-3.01-.15-11.02,0-17.27,10.42-19.64,23.05l-5.03,26.75h-18.95Z"/>
          </g>
          <g>
            <path class="cls-2" d="m269.38,171.45c-.02-1.17.95-2.12,2.12-2.12s2.12.93,2.12,2.12-.95,2.12-2.14,2.12-2.1-.93-2.1-2.12Z"/>
            <path class="cls-2" d="m300.27,164.61h-4.49l.3-1.49h10.74l-.29,1.49h-4.52l-2.3,12.13h-1.75l2.3-12.13Z"/>
            <path class="cls-2" d="m328.55,163.34c.88-.21,2.13-.32,3.25-.32,1.46,0,2.72.33,3.51,1.03.67.55,1.09,1.35,1.09,2.3,0,2-1.63,3.4-3.37,3.86v.05c.99.31,1.45,1.36,1.58,2.63.19,1.91.29,3.26.5,3.85h-1.83c-.07-.25-.25-1.72-.37-3.26-.13-1.87-.9-2.65-2.28-2.65h-1.77l-1.13,5.91h-1.74l2.56-13.4Zm.57,6.14h1.76c2.29,0,3.69-1.35,3.69-2.88s-1.3-2.19-2.91-2.19c-.79,0-1.26.07-1.6.17l-.94,4.91Z"/>
            <path class="cls-2" d="m360.56,172.37l-2.34,4.37h-1.87l7.5-13.62h2.1l2.36,13.62h-1.82l-.69-4.37h-5.25Zm5.08-1.39l-.68-4.07c-.09-.63-.24-1.57-.33-2.29h-.04c-.36.73-.69,1.47-1.11,2.26l-2.24,4.11h4.4Z"/>
            <path class="cls-2" d="m392.5,176.74l-2.08-13.62h1.76l1.27,8.84c.2,1.46.31,2.16.38,3.01h.05c.36-.79.79-1.78,1.61-3.29l4.69-8.56h1.94l-7.65,13.62h-1.97Z"/>
            <path class="cls-2" d="m429.93,170.37h-5.48l-.92,4.89h6.15l-.28,1.48h-7.9l2.59-13.62h7.57l-.29,1.48h-5.82l-.81,4.29h5.48l-.29,1.48Z"/>
            <path class="cls-2" d="m454.62,163.12h1.75l-2.31,12.11h6.08l-.29,1.51h-7.81l2.59-13.62Z"/>
            <path class="cls-2" d="m518.48,176.74l.94-7.22c.18-1.34.52-3.63.78-4.92h-.05c-.68,1.36-1.51,3.07-2.34,4.57l-4.28,7.49h-1.39l-1.18-7.23c-.26-1.71-.43-3.43-.56-4.83h-.04c-.28,1.21-.78,3.59-1.13,4.92l-1.87,7.22h-1.66l3.59-13.62h2.31l1.28,7.79c.16,1.19.36,2.52.41,3.51h.06c.43-.98,1.07-2.28,1.7-3.44l4.49-7.86h2.37l-1.7,13.62h-1.73Z"/>
            <path class="cls-2" d="m546.19,172.37l-2.34,4.37h-1.87l7.5-13.62h2.1l2.36,13.62h-1.82l-.69-4.37h-5.25Zm5.08-1.39l-.68-4.07c-.1-.63-.24-1.57-.33-2.29h-.04c-.36.73-.68,1.47-1.11,2.26l-2.24,4.11h4.4Z"/>
            <path class="cls-2" d="m578.52,163.34c.88-.21,2.13-.32,3.25-.32,1.46,0,2.72.33,3.51,1.03.67.55,1.09,1.35,1.09,2.3,0,2-1.63,3.4-3.37,3.86v.05c.99.31,1.45,1.36,1.58,2.63.19,1.91.29,3.26.5,3.85h-1.82c-.07-.25-.25-1.72-.37-3.26-.13-1.87-.89-2.65-2.28-2.65h-1.77l-1.13,5.91h-1.74l2.56-13.4Zm.57,6.14h1.76c2.29,0,3.69-1.35,3.69-2.88s-1.3-2.19-2.91-2.19c-.79,0-1.26.07-1.6.17l-.94,4.91Z"/>
            <path class="cls-2" d="m612.45,164.61h-4.49l.29-1.49h10.74l-.29,1.49h-4.52l-2.3,12.13h-1.75l2.3-12.13Z"/>
            <path class="cls-2" d="m638.13,171.45c-.02-1.17.95-2.12,2.12-2.12s2.12.93,2.12,2.12-.95,2.12-2.14,2.12-2.1-.93-2.1-2.12Z"/>
          </g>
          <g>
            <path class="cls-2" d="m433.65,147.96c-1.32.59-3.56,1.13-6.45,1.13-5.69,0-10.09-3.08-10.09-9.45,0-4.33,2.06-7.9,5.3-10.04,2.33-1.6,5.11-2.48,8.49-2.48,2.77,0,4.72.66,5.41,1.12l-1.11,3.03c-.79-.44-2.52-.92-4.73-.92s-4.42.7-6.04,2.01c-1.95,1.52-3.18,3.99-3.18,6.92,0,3.74,2.19,6.57,6.95,6.57,1.79,0,3.64-.32,4.96-.94l.49,3.04Z"/>
            <path class="cls-2" d="m464.44,136.58c0,3.61-1.31,6.82-3.68,9.15-2.15,2.1-5.11,3.37-8.65,3.37-5.86,0-9.5-3.84-9.5-9.39,0-3.64,1.43-6.93,3.83-9.25,2.13-2.05,5.21-3.32,8.5-3.32,6.09,0,9.49,3.86,9.49,9.44Zm-14.97-4.11c-1.75,1.75-2.77,4.34-2.77,6.96,0,3.77,1.87,6.52,5.97,6.52,1.87,0,3.63-.8,4.98-2.16,1.67-1.67,2.7-4.21,2.7-7,0-3.12-1.24-6.5-5.86-6.5-1.97,0-3.69.85-5.02,2.18Z"/>
            <path class="cls-2" d="m472.92,144.29c1.38.88,3.29,1.54,5.42,1.54,2.01,0,4.07-.98,4.07-3.08,0-1.33-.95-2.26-3.25-3.3-2.74-1.24-4.9-2.92-4.9-5.65,0-4.2,3.83-6.66,8.25-6.66,2.64,0,4.34.65,5.29,1.2l-1.31,3.14c-.7-.41-2.37-1.12-4.33-1.09-2.51,0-3.86,1.38-3.86,2.67,0,1.52,1.4,2.35,3.53,3.35,2.92,1.34,4.66,2.98,4.66,5.79,0,4.28-3.71,6.91-8.7,6.91-2.81,0-5.17-.84-6.27-1.73l1.4-3.08Z"/>
            <path class="cls-2" d="m502.95,130.77h-6.56l.65-3.26h17.02l-.63,3.26h-6.65l-3.38,17.95h-3.83l3.38-17.95Z"/>
            <path class="cls-2" d="m522.4,142.52l-3.12,6.2h-4.16l11.27-21.21h4.9l3.43,21.21h-4.06l-.81-6.2h-7.44Zm7.15-2.98l-.8-5.34c-.14-1.06-.34-2.56-.48-3.72h-.06c-.57,1.17-1.09,2.47-1.73,3.7l-2.79,5.37h5.87Z"/>
            <path class="cls-2" d="m560,127.9c1.41-.36,3.59-.55,5.66-.55s4.25.38,5.69,1.35c1.31.83,2.23,2.15,2.23,4.01,0,3.14-2.32,5.1-5.09,5.93l-.02.1c1.41.53,2.05,2.06,2.28,3.92.32,2.66.5,5.15.88,6.06h-3.97c-.15-.48-.44-2.46-.67-5.02-.23-2.72-1.32-3.69-3.36-3.69h-2.14l-1.66,8.72h-3.81l3.98-20.82Zm2.04,9.23h2.44c3.04,0,5.1-1.64,5.1-3.83s-1.88-2.93-4.06-2.93c-1.1,0-1.76.09-2.23.21l-1.25,6.55Z"/>
            <path class="cls-2" d="m588.86,127.51l-4.02,21.21h-3.82l4.02-21.21h3.82Z"/>
            <path class="cls-2" d="m613.1,147.96c-1.32.59-3.56,1.13-6.45,1.13-5.69,0-10.09-3.08-10.09-9.45,0-4.33,2.06-7.9,5.3-10.04,2.33-1.6,5.11-2.48,8.49-2.48,2.77,0,4.72.66,5.41,1.12l-1.11,3.03c-.79-.44-2.52-.92-4.73-.92s-4.42.7-6.04,2.01c-1.95,1.52-3.18,3.99-3.18,6.92,0,3.74,2.19,6.57,6.95,6.57,1.79,0,3.64-.32,4.96-.94l.49,3.04Z"/>
            <path class="cls-2" d="m627.76,142.52l-3.12,6.2h-4.16l11.27-21.21h4.9l3.43,21.21h-4.06l-.81-6.2h-7.44Zm7.15-2.98l-.8-5.34c-.14-1.06-.34-2.56-.48-3.72h-.06c-.57,1.17-1.09,2.47-1.73,3.7l-2.79,5.37h5.87Z"/>
          </g>
          <g>
            <text class="cls-3" transform="translate(686.42 51.71) scale(1.04 1)"><tspan x="0" y="0">R</tspan></text>
            <path class="cls-2" d="m691.44,55.46c-4.99,0-9.06-4.06-9.06-9.06s4.06-9.06,9.06-9.06,9.06,4.06,9.06,9.06-4.06,9.06-9.06,9.06Zm0-17.04c-4.4,0-7.98,3.58-7.98,7.98s3.58,7.99,7.98,7.99,7.99-3.58,7.99-7.99-3.58-7.98-7.99-7.98Z"/>
          </g>
        </g>
      </g>
    </g>
  </g>
</svg>