<?xml version="1.0" encoding="UTF-8"?>
<svg xmlns="http://www.w3.org/2000/svg" xmlns:xlink="http://www.w3.org/1999/xlink" viewBox="0 0 261.09 202.15">
  <defs>
    <style>
      .cls-1 {
        fill: url(#linear-gradient-2);
      }

      .cls-2 {
        fill: url(#linear-gradient-17);
      }

      .cls-3 {
        fill: #256885;
      }

      .cls-4 {
        fill: url(#linear-gradient-15);
      }

      .cls-5 {
        fill: url(#linear-gradient-18);
      }

      .cls-6 {
        fill: url(#linear-gradient-14);
      }

      .cls-7 {
        fill: url(#linear-gradient-6);
      }

      .cls-8 {
        isolation: isolate;
      }

      .cls-9 {
        fill: url(#linear-gradient-11);
      }

      .cls-10 {
        fill: url(#linear-gradient-10);
      }

      .cls-11 {
        fill: url(#linear-gradient-16);
      }

      .cls-12 {
        fill: url(#linear-gradient-5);
      }

      .cls-13 {
        fill: url(#linear-gradient-7);
      }

      .cls-14 {
        fill: url(#linear-gradient-9);
      }

      .cls-15 {
        fill: url(#linear-gradient-3);
      }

      .cls-16 {
        fill: url(#linear-gradient);
      }

      .cls-17 {
        fill: url(#linear-gradient-19);
      }

      .cls-18 {
        fill: url(#linear-gradient-4);
      }

      .cls-19 {
        mix-blend-mode: multiply;
      }

      .cls-20 {
        fill: url(#linear-gradient-8);
      }

      .cls-21 {
        fill: url(#linear-gradient-12);
      }

      .cls-22 {
        fill: url(#linear-gradient-13);
      }
    </style>
    <linearGradient id="linear-gradient" x1="60.73" y1="105.7" x2="290.05" y2="52.62" gradientUnits="userSpaceOnUse">
      <stop offset="0" stop-color="#0094a7"/>
      <stop offset="1" stop-color="#d3e4b2"/>
    </linearGradient>
    <linearGradient id="linear-gradient-2" x1="62.51" y1="113.39" x2="291.82" y2="60.3" xlink:href="#linear-gradient"/>
    <linearGradient id="linear-gradient-3" x1="64.39" y1="121.5" x2="293.7" y2="68.41" xlink:href="#linear-gradient"/>
    <linearGradient id="linear-gradient-4" x1="67.37" y1="134.39" x2="296.66" y2="81.31" xlink:href="#linear-gradient"/>
    <linearGradient id="linear-gradient-5" x1="68.01" y1="137.15" x2="297.32" y2="84.07" xlink:href="#linear-gradient"/>
    <linearGradient id="linear-gradient-6" x1="70.09" y1="146.15" x2="299.41" y2="93.06" xlink:href="#linear-gradient"/>
    <linearGradient id="linear-gradient-7" x1="70.96" y1="149.9" x2="300.28" y2="96.82" xlink:href="#linear-gradient"/>
    <linearGradient id="linear-gradient-8" x1="108.93" y1="-2.45" x2="185.37" y2="63.37" xlink:href="#linear-gradient"/>
    <linearGradient id="linear-gradient-9" x1="83.01" y1="27.65" x2="159.45" y2="93.48" xlink:href="#linear-gradient"/>
    <linearGradient id="linear-gradient-10" x1="90.2" y1="19.31" x2="166.64" y2="85.13" xlink:href="#linear-gradient"/>
    <linearGradient id="linear-gradient-11" x1="94.19" y1="14.66" x2="170.64" y2="80.49" xlink:href="#linear-gradient"/>
    <linearGradient id="linear-gradient-12" x1="114.42" y1="-8.83" x2="190.86" y2="56.99" xlink:href="#linear-gradient"/>
    <linearGradient id="linear-gradient-13" x1="82.01" y1="28.81" x2="158.45" y2="94.63" xlink:href="#linear-gradient"/>
    <linearGradient id="linear-gradient-14" x1="113.08" y1="-7.27" x2="189.52" y2="58.55" xlink:href="#linear-gradient"/>
    <linearGradient id="linear-gradient-15" x1="97.55" y1="10.76" x2="173.99" y2="76.59" xlink:href="#linear-gradient"/>
    <linearGradient id="linear-gradient-16" x1="103.62" y1="3.72" x2="180.06" y2="69.54" xlink:href="#linear-gradient"/>
    <linearGradient id="linear-gradient-17" x1="117.07" y1="-11.9" x2="193.51" y2="53.92" xlink:href="#linear-gradient"/>
    <linearGradient id="linear-gradient-18" x1="118.14" y1="-13.14" x2="194.58" y2="52.68" xlink:href="#linear-gradient"/>
    <linearGradient id="linear-gradient-19" x1="5" y1="157.86" x2="259.08" y2="157.86" xlink:href="#linear-gradient"/>
  </defs>
  <g class="cls-8">
    <g id="Capa_2" data-name="Capa 2">
      <g id="Layer_1" data-name="Layer 1">
        <g class="cls-19">
          <g>
            <path class="cls-16" d="m42.15,94.83v36.29h-9.51v-18.19c0-1.41-.27-2.72-.8-3.93-.53-1.21-1.27-2.28-2.21-3.2-.94-.92-2.03-1.64-3.27-2.15-1.23-.51-2.53-.76-3.88-.76s-2.71.27-3.92.8c-1.21.53-2.29,1.25-3.23,2.15-.94.9-1.68,1.97-2.21,3.2-.53,1.24-.8,2.56-.8,3.97s.27,2.65.8,3.86c.53,1.21,1.27,2.28,2.21,3.2.94.92,2.02,1.65,3.23,2.18,1.21.53,2.51.8,3.92.8,1.5,0,2.78-.27,3.85-.8h.07v.15l3.63,6.46-.07.07c-2.37,1.84-5.3,2.76-8.78,2.76-2.56,0-4.98-.48-7.26-1.45-2.27-.97-4.26-2.3-5.95-3.99-1.69-1.69-3.04-3.68-4.03-5.95-.99-2.27-1.49-4.69-1.49-7.26s.5-5.05,1.49-7.33c.99-2.27,2.33-4.26,4.03-5.95,1.69-1.69,3.68-3.04,5.95-4.03,2.27-.99,4.69-1.49,7.26-1.49s4.72.47,6.6,1.4c1.89.94,3.51,2.29,4.86,4.06v-4.89h9.51Z"/>
            <path class="cls-1" d="m72.41,117.25l7.84,5.15-.07.07c-1.69,2.9-3.98,5.18-6.86,6.82-2.88,1.65-5.99,2.47-9.33,2.47-2.61,0-5.06-.5-7.33-1.49-2.27-.99-4.26-2.33-5.95-4.03-1.69-1.69-3.04-3.68-4.03-5.95-.99-2.27-1.49-4.69-1.49-7.26s.5-4.98,1.49-7.26c.99-2.27,2.33-4.26,4.03-5.95,1.69-1.69,3.68-3.04,5.95-4.03,2.27-.99,4.72-1.49,7.33-1.49,3.34,0,6.45.82,9.33,2.47,2.88,1.65,5.16,3.92,6.86,6.82l.07.07-7.91,5.15-.07-.07c-.77-1.79-1.9-3.24-3.37-4.35-1.48-1.11-3.11-1.67-4.9-1.67-1.31,0-2.53.28-3.66.83-1.14.56-2.12,1.31-2.94,2.25-.82.94-1.48,2.03-1.96,3.26-.48,1.23-.73,2.55-.73,3.96s.24,2.71.73,3.92c.48,1.21,1.14,2.26,1.96,3.16.82.9,1.8,1.6,2.94,2.11,1.14.51,2.36.76,3.66.76,1.79,0,3.42-.5,4.9-1.49,1.48-.99,2.6-2.38,3.37-4.17l.07-.14.07.07Z"/>
            <path class="cls-15" d="m101.22,94.25c2.61,0,5.06.5,7.33,1.49,2.27.99,4.26,2.33,5.95,4.03,1.69,1.69,3.04,3.68,4.03,5.95.99,2.27,1.49,4.69,1.49,7.26s-.5,4.98-1.49,7.26c-.99,2.27-2.34,4.26-4.03,5.95-1.69,1.69-3.68,3.04-5.95,4.03-2.27.99-4.72,1.49-7.33,1.49s-5.06-.5-7.33-1.49c-2.27-.99-4.26-2.33-5.95-4.03-1.69-1.69-3.04-3.68-4.03-5.95-.99-2.27-1.49-4.69-1.49-7.26s.5-4.98,1.49-7.26c.99-2.27,2.33-4.26,4.03-5.95,1.69-1.69,3.68-3.04,5.95-4.03,2.27-.99,4.72-1.49,7.33-1.49Zm0,28.81c1.21,0,2.33-.27,3.37-.8,1.04-.53,1.96-1.27,2.76-2.21.8-.94,1.43-2.03,1.89-3.27.46-1.23.69-2.58.69-4.03,0-1.35-.23-2.65-.69-3.88-.46-1.23-1.09-2.3-1.89-3.19-.8-.89-1.72-1.61-2.76-2.14-1.04-.53-2.17-.8-3.37-.8s-2.35.27-3.41.8c-1.06.53-2,1.25-2.79,2.14-.8.9-1.43,1.96-1.89,3.19-.46,1.23-.69,2.53-.69,3.88,0,1.45.23,2.79.69,4.03.46,1.23,1.09,2.32,1.89,3.27.8.94,1.73,1.68,2.79,2.21,1.06.53,2.2.8,3.41.8Z"/>
            <path class="cls-18" d="m144.91,94.25c2.61,0,5.08.5,7.4,1.49,2.32.99,4.34,2.35,6.06,4.06,1.72,1.72,3.07,3.71,4.06,5.99.99,2.27,1.49,4.72,1.49,7.33s-.5,5.15-1.49,7.47c-.99,2.32-2.35,4.34-4.06,6.06-1.72,1.72-3.74,3.07-6.06,4.06-2.32.99-4.79,1.49-7.4,1.49-3.58,0-6.56-.96-8.93-2.88v-.07l3.63-6.63.07.07c1.31.58,2.64.87,3.99.87s2.73-.27,3.99-.8c1.26-.53,2.36-1.28,3.3-2.23.94-.95,1.68-2.06,2.21-3.33.53-1.27.8-2.63.8-4.09s-.27-2.74-.8-3.98c-.53-1.24-1.27-2.33-2.21-3.25-.94-.92-2.04-1.66-3.3-2.19-1.26-.54-2.59-.8-3.99-.8s-2.79.27-4.03.8c-1.23.53-2.31,1.26-3.23,2.18-.92.92-1.65,2-2.18,3.24-.53,1.24-.8,2.56-.8,3.96v32.57h-9.8v-50.8h9.8v4.89c2.61-3.65,6.43-5.47,11.47-5.47Z"/>
            <path class="cls-12" d="m197.16,96.28l-.87,1.45-3.7,6.6-.07-.07c-1.6-.92-3.31-1.38-5.15-1.38-1.26,0-2.44.21-3.56.62-1.11.41-2.1.99-2.98,1.74-.87.75-1.61,1.63-2.21,2.65-.61,1.02-1,2.1-1.2,3.27v19.96h-9.87v-36.29h9.87v4.72c2.56-3.53,6.31-5.3,11.25-5.3,2.9,0,5.71.68,8.42,2.03h.07Z"/>
            <path class="cls-7" d="m213.41,94.25c2.61,0,5.06.5,7.33,1.49,2.27.99,4.26,2.33,5.95,4.03,1.69,1.69,3.04,3.68,4.03,5.95.99,2.27,1.49,4.69,1.49,7.26s-.5,4.98-1.49,7.26c-.99,2.27-2.34,4.26-4.03,5.95-1.69,1.69-3.68,3.04-5.95,4.03-2.27.99-4.72,1.49-7.33,1.49s-5.06-.5-7.33-1.49c-2.27-.99-4.26-2.33-5.95-4.03-1.69-1.69-3.04-3.68-4.03-5.95-.99-2.27-1.49-4.69-1.49-7.26s.49-4.98,1.49-7.26c.99-2.27,2.33-4.26,4.03-5.95,1.69-1.69,3.68-3.04,5.95-4.03,2.27-.99,4.72-1.49,7.33-1.49Zm0,28.81c1.21,0,2.33-.27,3.38-.8,1.04-.53,1.96-1.27,2.76-2.21.8-.94,1.43-2.03,1.89-3.27.46-1.23.69-2.58.69-4.03,0-1.35-.23-2.65-.69-3.88-.46-1.23-1.09-2.3-1.89-3.19-.8-.89-1.72-1.61-2.76-2.14-1.04-.53-2.17-.8-3.38-.8s-2.35.27-3.41.8c-1.06.53-2,1.25-2.79,2.14-.8.9-1.43,1.96-1.89,3.19-.46,1.23-.69,2.53-.69,3.88,0,1.45.23,2.79.69,4.03.46,1.23,1.09,2.32,1.89,3.27.8.94,1.73,1.68,2.79,2.21,1.06.53,2.2.8,3.41.8Z"/>
            <path class="cls-13" d="m249.99,118.7c0,1.11.4,2.06,1.2,2.83.8.77,1.75,1.16,2.87,1.16h7.04v8.42h-7.04c-1.89,0-3.67-.35-5.33-1.05-1.67-.7-3.12-1.67-4.35-2.9-1.23-1.23-2.21-2.67-2.94-4.32-.73-1.64-1.09-3.41-1.09-5.3v-10.89h-5.22v-8.06h5.22v-13.13h9.65v33.24Zm11.1-20.1v8.06h-5.37l-4.5-8.06h9.87Z"/>
          </g>
          <g>
            <path class="cls-3" d="m1.6,181.85H0l6.18-14.31h1.41l6.14,14.31h-1.62l-1.58-3.76H3.15l-1.56,3.76Zm2.1-5.09h6.31l-3.15-7.6-3.15,7.6Z"/>
            <path class="cls-3" d="m20.8,174.64c-.2-.39-.51-.71-.92-.96-.41-.25-.88-.37-1.4-.37-.24,0-.49.03-.73.08-.24.05-.46.14-.65.26s-.34.28-.45.46c-.11.19-.17.41-.17.67,0,.44.18.79.55,1.02.36.24.94.43,1.72.6,1.12.23,1.94.56,2.48,1,.53.44.8,1.03.8,1.77,0,.54-.1.99-.31,1.36-.21.37-.48.67-.82.91-.34.24-.72.4-1.14.5-.42.1-.85.15-1.28.15-.71,0-1.41-.15-2.08-.44s-1.23-.76-1.66-1.39l1.09-.81c.24.42.6.77,1.07,1.05.47.28.99.42,1.56.42.3,0,.58-.03.85-.08.27-.05.51-.15.71-.28.2-.13.36-.31.49-.52.12-.21.18-.47.18-.78,0-.5-.24-.87-.72-1.12-.48-.25-1.17-.48-2.07-.7-.28-.07-.58-.15-.9-.25-.32-.1-.61-.25-.88-.44-.27-.2-.49-.44-.67-.74-.18-.3-.26-.67-.26-1.11,0-.49.09-.9.28-1.24.19-.34.44-.63.76-.85.32-.22.68-.39,1.08-.5.4-.11.82-.16,1.25-.16.66,0,1.3.15,1.92.44s1.08.71,1.39,1.25l-1.05.79Z"/>
            <path class="cls-3" d="m34.13,177.12c0,.71-.13,1.37-.37,1.98-.25.61-.6,1.13-1.04,1.58-.44.44-.98.79-1.6,1.04-.62.25-1.3.37-2.04.37s-1.4-.12-2.02-.37c-.62-.25-1.15-.6-1.6-1.04-.44-.44-.79-.97-1.04-1.58-.25-.61-.37-1.27-.37-1.98s.12-1.37.37-1.98c.25-.61.6-1.13,1.04-1.58.44-.44.98-.79,1.6-1.04s1.29-.37,2.02-.37,1.42.12,2.04.37c.62.25,1.15.6,1.6,1.04.44.44.79.97,1.04,1.58.25.61.37,1.27.37,1.98Zm-1.46,0c0-.53-.08-1.02-.25-1.49s-.41-.87-.72-1.21-.69-.62-1.13-.82c-.44-.2-.94-.3-1.5-.3s-1.05.1-1.49.3c-.44.2-.81.47-1.12.82-.31.34-.55.75-.72,1.21-.17.46-.25.96-.25,1.49s.08,1.02.25,1.49c.17.46.41.87.72,1.21.31.34.68.61,1.12.81.44.2.93.29,1.49.29s1.05-.1,1.5-.29c.44-.2.82-.47,1.13-.81.31-.34.55-.75.72-1.21.17-.46.25-.96.25-1.49Z"/>
            <path class="cls-3" d="m43.89,174.56c-.23-.36-.56-.66-1-.9-.44-.24-.91-.35-1.43-.35-.55,0-1.05.1-1.49.29-.44.2-.83.46-1.14.81-.32.34-.56.75-.73,1.21-.17.47-.25.97-.25,1.51s.08,1.04.25,1.5c.17.46.41.86.72,1.2.31.34.69.61,1.13.81.44.2.94.29,1.5.29.61,0,1.12-.11,1.54-.34s.76-.53,1.03-.89l1.03.77c-.4.5-.9.9-1.49,1.19-.59.3-1.29.44-2.11.44-.77,0-1.46-.12-2.08-.37-.62-.25-1.15-.6-1.59-1.04-.44-.44-.78-.97-1.02-1.58-.24-.61-.36-1.27-.36-1.98s.12-1.37.36-1.98c.24-.61.58-1.13,1.02-1.58.44-.44.97-.79,1.59-1.04.62-.25,1.31-.37,2.08-.37.63,0,1.28.14,1.93.41.65.28,1.18.68,1.59,1.22l-1.07.77Z"/>
            <path class="cls-3" d="m48.87,168.76c0,.28-.1.52-.3.7-.2.18-.42.27-.67.27s-.46-.09-.67-.27c-.2-.18-.3-.41-.3-.7s.1-.52.3-.7.42-.27.67-.27.46.09.67.27c.2.18.3.41.3.7Zm-.28,13.1h-1.37v-9.46h1.37v9.46Z"/>
            <path class="cls-3" d="m58.2,175.73c0-.82-.22-1.42-.65-1.83-.43-.4-1.06-.6-1.88-.6-.57,0-1.09.1-1.58.3s-.9.47-1.23.81l-.77-.91c.39-.39.91-.71,1.55-.97.64-.26,1.36-.38,2.17-.38.51,0,.99.07,1.43.21.44.14.84.35,1.17.64.34.28.6.64.79,1.07.19.43.28.94.28,1.52v4.14c0,.36.01.74.04,1.13.03.39.07.72.12.99h-1.23c-.04-.23-.07-.48-.1-.75-.03-.27-.04-.53-.04-.79h-.04c-.43.63-.92,1.09-1.47,1.36-.55.28-1.2.41-1.97.41-.36,0-.74-.05-1.12-.15-.38-.1-.73-.27-1.05-.5-.32-.23-.58-.53-.79-.89-.21-.36-.31-.81-.31-1.34,0-.73.18-1.31.56-1.73.37-.43.87-.74,1.49-.95.62-.21,1.33-.34,2.13-.41.8-.06,1.63-.09,2.5-.09v-.3Zm-.4,1.39c-.57,0-1.14.02-1.71.07-.57.05-1.09.14-1.56.28s-.85.35-1.14.62c-.3.27-.44.63-.44,1.07,0,.34.06.62.19.85.13.23.3.41.52.56.22.14.45.24.72.3s.53.09.8.09c.49,0,.92-.08,1.29-.25.38-.17.69-.4.95-.69.26-.29.45-.62.59-1s.2-.77.2-1.19v-.71h-.4Z"/>
            <path class="cls-3" d="m69.84,174.56c-.23-.36-.56-.66-1-.9-.44-.24-.91-.35-1.43-.35-.55,0-1.05.1-1.49.29-.44.2-.83.46-1.14.81-.32.34-.56.75-.73,1.21-.17.47-.25.97-.25,1.51s.08,1.04.25,1.5c.17.46.41.86.72,1.2.31.34.69.61,1.13.81.44.2.94.29,1.5.29.61,0,1.12-.11,1.54-.34s.76-.53,1.03-.89l1.03.77c-.4.5-.9.9-1.49,1.19s-1.29.44-2.11.44c-.77,0-1.46-.12-2.08-.37-.62-.25-1.15-.6-1.59-1.04-.44-.44-.78-.97-1.02-1.58-.24-.61-.36-1.27-.36-1.98s.12-1.37.36-1.98.58-1.13,1.02-1.58c.44-.44.97-.79,1.59-1.04.62-.25,1.31-.37,2.08-.37.63,0,1.28.14,1.93.41.65.28,1.18.68,1.59,1.22l-1.07.77Z"/>
            <path class="cls-3" d="m74.82,168.76c0,.28-.1.52-.3.7-.2.18-.42.27-.67.27s-.46-.09-.67-.27c-.2-.18-.3-.41-.3-.7s.1-.52.3-.7c.2-.18.42-.27.67-.27s.46.09.67.27.3.41.3.7Zm-.28,13.1h-1.37v-9.46h1.37v9.46Z"/>
            <path class="cls-3" d="m87.59,177.12c0,.71-.13,1.37-.37,1.98-.25.61-.6,1.13-1.04,1.58-.44.44-.98.79-1.6,1.04-.62.25-1.3.37-2.04.37s-1.4-.12-2.02-.37c-.62-.25-1.15-.6-1.6-1.04s-.79-.97-1.04-1.58c-.25-.61-.37-1.27-.37-1.98s.12-1.37.37-1.98.6-1.13,1.04-1.58c.44-.44.98-.79,1.6-1.04s1.29-.37,2.02-.37,1.42.12,2.04.37,1.15.6,1.6,1.04c.44.44.79.97,1.04,1.58.25.61.37,1.27.37,1.98Zm-1.46,0c0-.53-.08-1.02-.25-1.49-.17-.46-.41-.87-.72-1.21s-.69-.62-1.13-.82c-.44-.2-.94-.3-1.5-.3s-1.05.1-1.49.3c-.44.2-.81.47-1.12.82-.31.34-.55.75-.72,1.21-.17.46-.25.96-.25,1.49s.08,1.02.25,1.49c.17.46.41.87.72,1.21.31.34.68.61,1.12.81.44.2.93.29,1.49.29s1.05-.1,1.5-.29c.44-.2.82-.47,1.13-.81.31-.34.55-.75.72-1.21.17-.46.25-.96.25-1.49Zm-3.23-6.67h-1.19l2.02-2.91h1.84l-2.67,2.91Z"/>
            <path class="cls-3" d="m91.77,172.39c.03.26.05.54.06.85s.02.57.02.77h.04c.27-.55.71-1,1.31-1.34.61-.34,1.25-.52,1.92-.52,1.2,0,2.1.36,2.7,1.07.6.71.9,1.66.9,2.83v5.8h-1.37v-5.23c0-.5-.04-.95-.12-1.35-.08-.4-.22-.75-.41-1.04-.2-.29-.46-.52-.79-.68-.33-.16-.74-.24-1.24-.24-.36,0-.72.07-1.06.22-.34.15-.65.37-.92.68-.27.3-.49.69-.65,1.15-.16.46-.24,1.01-.24,1.65v4.85h-1.37v-7.38c0-.26,0-.59-.02-.99-.01-.4-.03-.77-.06-1.09h1.31Z"/>
            <path class="cls-3" d="m119.46,179.53c-.24.36-.54.71-.88,1.03-.34.32-.74.61-1.19.86s-.95.44-1.5.59c-.55.14-1.14.22-1.79.22-1.08,0-2.08-.19-2.99-.57-.92-.38-1.7-.9-2.36-1.57-.66-.67-1.18-1.46-1.55-2.37-.37-.92-.56-1.92-.56-3.01s.19-2.1.57-3.01c.38-.92.9-1.71,1.57-2.37.67-.67,1.46-1.19,2.36-1.57.91-.38,1.9-.57,2.96-.57.53,0,1.04.06,1.55.16.51.11.98.26,1.42.46.44.2.85.44,1.21.71.36.28.67.59.91.94l-1.21.89c-.15-.23-.35-.46-.6-.69s-.54-.43-.88-.61c-.34-.18-.7-.32-1.1-.42-.4-.11-.83-.16-1.28-.16-.93,0-1.76.17-2.5.5-.73.34-1.36.79-1.87,1.36-.51.57-.9,1.23-1.17,1.98-.27.75-.4,1.54-.4,2.38s.14,1.62.41,2.38c.28.75.67,1.41,1.18,1.98.51.57,1.14,1.02,1.87,1.36.73.34,1.56.5,2.48.5.82,0,1.6-.17,2.34-.51.74-.34,1.36-.88,1.86-1.62l1.13.73Z"/>
            <path class="cls-3" d="m131.04,177.12c0,.71-.13,1.37-.37,1.98-.25.61-.6,1.13-1.04,1.58-.44.44-.98.79-1.6,1.04-.62.25-1.3.37-2.04.37s-1.4-.12-2.02-.37c-.62-.25-1.15-.6-1.6-1.04-.44-.44-.79-.97-1.04-1.58-.25-.61-.37-1.27-.37-1.98s.12-1.37.37-1.98c.25-.61.6-1.13,1.04-1.58.44-.44.98-.79,1.6-1.04s1.29-.37,2.02-.37,1.42.12,2.04.37,1.15.6,1.6,1.04c.44.44.79.97,1.04,1.58.25.61.37,1.27.37,1.98Zm-1.46,0c0-.53-.08-1.02-.25-1.49-.17-.46-.41-.87-.72-1.21s-.69-.62-1.13-.82c-.44-.2-.94-.3-1.5-.3s-1.05.1-1.49.3c-.44.2-.81.47-1.12.82-.31.34-.55.75-.72,1.21-.17.46-.25.96-.25,1.49s.08,1.02.25,1.49c.17.46.41.87.72,1.21.31.34.68.61,1.12.81.44.2.93.29,1.49.29s1.05-.1,1.5-.29c.44-.2.82-.47,1.13-.81.31-.34.55-.75.72-1.21s.25-.96.25-1.49Z"/>
            <path class="cls-3" d="m139.02,174.64c-.2-.39-.51-.71-.92-.96-.41-.25-.88-.37-1.4-.37-.24,0-.49.03-.73.08-.24.05-.46.14-.65.26s-.34.28-.45.46c-.11.19-.17.41-.17.67,0,.44.18.79.55,1.02.36.24.94.43,1.72.6,1.12.23,1.94.56,2.48,1,.53.44.8,1.03.8,1.77,0,.54-.1.99-.31,1.36-.21.37-.48.67-.82.91-.34.24-.72.4-1.14.5-.42.1-.85.15-1.28.15-.71,0-1.41-.15-2.08-.44s-1.23-.76-1.66-1.39l1.09-.81c.24.42.6.77,1.07,1.05.47.28.99.42,1.56.42.3,0,.58-.03.85-.08.27-.05.51-.15.71-.28.2-.13.36-.31.49-.52.12-.21.18-.47.18-.78,0-.5-.24-.87-.72-1.12-.48-.25-1.17-.48-2.07-.7-.28-.07-.58-.15-.9-.25-.32-.1-.61-.25-.88-.44s-.49-.44-.67-.74c-.18-.3-.26-.67-.26-1.11,0-.49.09-.9.28-1.24s.44-.63.76-.85.68-.39,1.08-.5c.4-.11.82-.16,1.25-.16.66,0,1.3.15,1.92.44s1.08.71,1.39,1.25l-1.05.79Z"/>
            <path class="cls-3" d="m147.22,173.55h-2.67v5.52c0,.35.03.64.1.87.07.23.16.41.29.54s.28.22.45.26c.17.05.36.07.57.07.19,0,.39-.03.6-.08.21-.05.41-.13.6-.22l.06,1.19c-.24.09-.5.16-.76.21-.26.05-.55.07-.86.07-.26,0-.53-.03-.81-.1-.28-.07-.55-.2-.79-.38-.24-.19-.44-.44-.6-.77-.15-.32-.23-.75-.23-1.27v-5.9h-1.96v-1.15h1.96v-2.67h1.37v2.67h2.67v1.15Z"/>
            <path class="cls-3" d="m155.33,175.73c0-.82-.22-1.42-.65-1.83-.43-.4-1.06-.6-1.88-.6-.57,0-1.09.1-1.58.3-.49.2-.9.47-1.23.81l-.77-.91c.39-.39.91-.71,1.55-.97.64-.26,1.36-.38,2.17-.38.51,0,.99.07,1.43.21.44.14.84.35,1.17.64.34.28.6.64.79,1.07s.28.94.28,1.52v4.14c0,.36.01.74.04,1.13.03.39.07.72.12.99h-1.23c-.04-.23-.07-.48-.1-.75-.03-.27-.04-.53-.04-.79h-.04c-.43.63-.92,1.09-1.47,1.36-.55.28-1.2.41-1.97.41-.36,0-.74-.05-1.12-.15-.38-.1-.73-.27-1.05-.5-.32-.23-.58-.53-.79-.89-.21-.36-.31-.81-.31-1.34,0-.73.18-1.31.56-1.73.37-.43.87-.74,1.49-.95.62-.21,1.33-.34,2.13-.41.8-.06,1.63-.09,2.5-.09v-.3Zm-.4,1.39c-.57,0-1.14.02-1.71.07-.57.05-1.09.14-1.56.28s-.85.35-1.14.62c-.3.27-.44.63-.44,1.07,0,.34.06.62.19.85.13.23.3.41.52.56.22.14.45.24.72.3s.53.09.8.09c.49,0,.92-.08,1.29-.25.38-.17.69-.4.95-.69.26-.29.45-.62.59-1s.2-.77.2-1.19v-.71h-.4Z"/>
            <path class="cls-3" d="m160.14,173.49c-.01-.4-.03-.77-.06-1.09h1.31c.03.26.05.54.06.85s.02.57.02.77h.04c.27-.55.67-1,1.21-1.34.54-.34,1.14-.52,1.82-.52.18,0,.33,0,.48.02s.29.04.43.08l-.18,1.31c-.08-.03-.22-.05-.4-.08-.19-.03-.38-.04-.57-.04-.36,0-.71.07-1.05.2-.34.13-.63.35-.88.63-.25.29-.45.66-.61,1.11-.15.45-.23.99-.23,1.62v4.84h-1.37v-7.38c0-.26,0-.59-.02-.99Z"/>
            <path class="cls-3" d="m167.41,173.49c-.01-.4-.03-.77-.06-1.09h1.31c.03.26.05.54.06.85s.02.57.02.77h.04c.27-.55.67-1,1.21-1.34.54-.34,1.14-.52,1.82-.52.18,0,.33,0,.48.02s.29.04.43.08l-.18,1.31c-.08-.03-.22-.05-.4-.08-.19-.03-.38-.04-.57-.04-.36,0-.71.07-1.05.2-.34.13-.63.35-.88.63s-.45.66-.61,1.11c-.15.45-.23.99-.23,1.62v4.84h-1.37v-7.38c0-.26,0-.59-.02-.99Z"/>
            <path class="cls-3" d="m176.39,168.76c0,.28-.1.52-.3.7-.2.18-.42.27-.67.27s-.46-.09-.67-.27c-.2-.18-.3-.41-.3-.7s.1-.52.3-.7.42-.27.67-.27.46.09.67.27c.2.18.3.41.3.7Zm-.28,13.1h-1.37v-9.46h1.37v9.46Z"/>
            <path class="cls-3" d="m186.57,174.56c-.23-.36-.56-.66-1-.9-.44-.24-.91-.35-1.43-.35-.55,0-1.05.1-1.49.29-.44.2-.83.46-1.14.81-.32.34-.56.75-.73,1.21-.17.47-.25.97-.25,1.51s.08,1.04.25,1.5c.17.46.41.86.72,1.2.31.34.69.61,1.13.81.44.2.94.29,1.5.29.61,0,1.12-.11,1.54-.34s.76-.53,1.03-.89l1.03.77c-.4.5-.9.9-1.49,1.19-.59.3-1.29.44-2.11.44-.77,0-1.46-.12-2.08-.37-.62-.25-1.15-.6-1.59-1.04-.44-.44-.78-.97-1.02-1.58-.24-.61-.36-1.27-.36-1.98s.12-1.37.36-1.98.58-1.13,1.02-1.58c.44-.44.97-.79,1.59-1.04s1.31-.37,2.08-.37c.63,0,1.28.14,1.93.41.65.28,1.18.68,1.59,1.22l-1.07.77Z"/>
            <path class="cls-3" d="m198.48,176.84v.3c0,.11,0,.22-.02.34h-7.84c.01.47.11.92.28,1.33.17.42.42.78.73,1.09s.67.56,1.09.74c.42.18.87.27,1.35.27.71,0,1.33-.16,1.85-.5.52-.33.91-.71,1.18-1.14l1.03.81c-.57.71-1.19,1.23-1.87,1.54s-1.41.46-2.19.46c-.7,0-1.35-.12-1.95-.37-.6-.25-1.11-.6-1.55-1.04-.43-.44-.77-.97-1.02-1.58-.25-.61-.37-1.27-.37-1.98s.12-1.37.36-1.98c.24-.61.58-1.13,1.01-1.58.43-.44.94-.79,1.52-1.04.58-.25,1.21-.37,1.88-.37.74,0,1.39.12,1.96.37.57.25,1.04.59,1.41,1.01.38.42.66.92.86,1.49.2.57.29,1.17.29,1.82Zm-1.39-.44c-.04-.89-.33-1.63-.86-2.21-.53-.59-1.29-.88-2.27-.88-.46,0-.88.08-1.27.25-.39.17-.73.4-1.03.69-.3.29-.53.62-.71.99-.18.37-.28.76-.3,1.16h6.45Z"/>
            <path class="cls-3" d="m202.66,172.39c.03.26.05.54.06.85.01.31.02.57.02.77h.04c.27-.55.71-1,1.31-1.34.61-.34,1.25-.52,1.92-.52,1.2,0,2.1.36,2.7,1.07.6.71.9,1.66.9,2.83v5.8h-1.37v-5.23c0-.5-.04-.95-.12-1.35-.08-.4-.22-.75-.41-1.04-.2-.29-.46-.52-.79-.68-.33-.16-.74-.24-1.24-.24-.36,0-.72.07-1.06.22-.34.15-.65.37-.92.68-.27.3-.49.69-.65,1.15-.16.46-.24,1.01-.24,1.65v4.85h-1.37v-7.38c0-.26,0-.59-.02-.99s-.03-.77-.06-1.09h1.31Z"/>
            <path class="cls-3" d="m218.2,174.64c-.2-.39-.51-.71-.92-.96-.41-.25-.88-.37-1.4-.37-.24,0-.49.03-.73.08-.24.05-.46.14-.65.26-.19.12-.34.28-.45.46-.11.19-.17.41-.17.67,0,.44.18.79.55,1.02.36.24.94.43,1.72.6,1.12.23,1.94.56,2.48,1,.53.44.8,1.03.8,1.77,0,.54-.1.99-.31,1.36-.21.37-.48.67-.82.91-.34.24-.72.4-1.14.5-.42.1-.85.15-1.28.15-.71,0-1.41-.15-2.08-.44-.67-.3-1.23-.76-1.66-1.39l1.09-.81c.24.42.6.77,1.07,1.05.47.28.99.42,1.56.42.3,0,.58-.03.85-.08.27-.05.51-.15.71-.28.2-.13.36-.31.49-.52.12-.21.18-.47.18-.78,0-.5-.24-.87-.72-1.12-.48-.25-1.17-.48-2.07-.7-.28-.07-.58-.15-.9-.25-.32-.1-.61-.25-.88-.44s-.49-.44-.67-.74c-.18-.3-.26-.67-.26-1.11,0-.49.09-.9.28-1.24.19-.34.44-.63.76-.85.32-.22.68-.39,1.08-.5.4-.11.82-.16,1.25-.16.66,0,1.3.15,1.92.44s1.08.71,1.39,1.25l-1.05.79Z"/>
            <path class="cls-3" d="m230.75,176.84v.3c0,.11,0,.22-.02.34h-7.84c.01.47.11.92.28,1.33.17.42.42.78.73,1.09s.67.56,1.09.74c.42.18.87.27,1.35.27.71,0,1.33-.16,1.85-.5.52-.33.91-.71,1.18-1.14l1.03.81c-.57.71-1.19,1.23-1.87,1.54-.68.31-1.41.46-2.19.46-.7,0-1.35-.12-1.95-.37-.6-.25-1.11-.6-1.55-1.04-.43-.44-.77-.97-1.02-1.58-.25-.61-.37-1.27-.37-1.98s.12-1.37.36-1.98c.24-.61.58-1.13,1.01-1.58.43-.44.94-.79,1.52-1.04.58-.25,1.21-.37,1.88-.37.74,0,1.39.12,1.96.37.57.25,1.04.59,1.41,1.01.38.42.66.92.86,1.49.2.57.29,1.17.29,1.82Zm-1.39-.44c-.04-.89-.33-1.63-.86-2.21-.53-.59-1.29-.88-2.27-.88-.46,0-.88.08-1.27.25-.39.17-.73.4-1.03.69-.3.29-.53.62-.71.99-.18.37-.28.76-.3,1.16h6.45Z"/>
            <path class="cls-3" d="m246.53,180.26c-.4.61-.93,1.06-1.58,1.37-.65.31-1.31.46-2,.46-.74,0-1.41-.13-2.01-.38-.6-.26-1.11-.61-1.54-1.05-.42-.44-.75-.97-.99-1.58-.24-.61-.35-1.26-.35-1.96s.12-1.35.35-1.96c.24-.61.57-1.13.99-1.58.42-.44.94-.79,1.54-1.05.6-.26,1.27-.38,2.01-.38.69,0,1.35.16,2,.48.65.32,1.17.79,1.58,1.4h.04v-7.46h1.37v15.28h-1.37v-1.6h-.04Zm-7.01-3.13c0,.53.08,1.02.24,1.49.16.46.39.87.7,1.21.3.34.68.61,1.12.81.44.2.95.29,1.52.29.53,0,1.01-.1,1.46-.29.44-.2.83-.46,1.15-.8.32-.34.58-.74.76-1.2.18-.46.27-.97.27-1.51s-.09-1.04-.27-1.51c-.18-.46-.43-.87-.76-1.21-.32-.34-.71-.61-1.15-.81-.44-.2-.93-.29-1.46-.29-.57,0-1.07.1-1.52.3-.44.2-.82.47-1.12.82-.3.34-.54.75-.7,1.21-.16.46-.24.96-.24,1.49Z"/>
            <path class="cls-3" d="m260.24,176.84v.3c0,.11,0,.22-.02.34h-7.84c.01.47.11.92.28,1.33.17.42.42.78.73,1.09.31.31.67.56,1.09.74.42.18.87.27,1.35.27.71,0,1.33-.16,1.85-.5.52-.33.91-.71,1.18-1.14l1.03.81c-.57.71-1.19,1.23-1.87,1.54-.68.31-1.41.46-2.19.46-.7,0-1.35-.12-1.95-.37-.6-.25-1.11-.6-1.55-1.04-.43-.44-.77-.97-1.02-1.58-.25-.61-.37-1.27-.37-1.98s.12-1.37.36-1.98c.24-.61.58-1.13,1.01-1.58.43-.44.94-.79,1.52-1.04.58-.25,1.21-.37,1.88-.37.74,0,1.39.12,1.96.37s1.04.59,1.41,1.01.66.92.86,1.49c.2.57.29,1.17.29,1.82Zm-1.39-.44c-.04-.89-.33-1.63-.86-2.21-.53-.59-1.29-.88-2.27-.88-.46,0-.88.08-1.27.25-.39.17-.73.4-1.03.69-.3.29-.53.62-.71.99-.18.37-.28.76-.3,1.16h6.45Z"/>
            <path class="cls-3" d="m18.52,187.6h4.04c.73,0,1.39.08,1.98.23.59.15,1.1.39,1.53.71.42.32.75.71.98,1.19.23.48.34,1.04.34,1.69s-.12,1.21-.35,1.69c-.24.48-.57.88-.99,1.19-.42.32-.94.56-1.54.72-.6.16-1.26.24-1.99.24h-2.55v6.65h-1.46v-14.31Zm1.46,6.43h2.47c1.14,0,2.01-.22,2.61-.67.59-.44.89-1.09.89-1.94s-.31-1.54-.92-1.95c-.61-.41-1.47-.62-2.58-.62h-2.47v5.17Z"/>
            <path class="cls-3" d="m29.17,193.54c-.01-.4-.03-.77-.06-1.09h1.31c.03.26.05.54.06.85s.02.57.02.77h.04c.27-.55.67-1,1.21-1.34s1.14-.52,1.82-.52c.18,0,.33,0,.48.02s.29.04.43.08l-.18,1.31c-.08-.03-.22-.05-.4-.08-.19-.03-.38-.04-.57-.04-.36,0-.71.07-1.05.2-.34.13-.63.35-.88.63-.25.29-.45.66-.61,1.11-.15.45-.23.99-.23,1.62v4.84h-1.37v-7.38c0-.26,0-.59-.02-.99Z"/>
            <path class="cls-3" d="m45.5,197.18c0,.71-.13,1.37-.37,1.98-.25.61-.6,1.13-1.04,1.58-.44.44-.98.79-1.6,1.04-.62.25-1.3.37-2.04.37s-1.4-.12-2.02-.37c-.62-.25-1.15-.6-1.6-1.04s-.79-.97-1.04-1.58c-.25-.61-.37-1.27-.37-1.98s.12-1.37.37-1.98.6-1.13,1.04-1.58c.44-.44.98-.79,1.6-1.04s1.29-.37,2.02-.37,1.42.12,2.04.37,1.15.6,1.6,1.04.79.97,1.04,1.58c.25.61.37,1.27.37,1.98Zm-1.46,0c0-.53-.08-1.02-.25-1.49s-.41-.87-.72-1.21-.69-.62-1.13-.82-.94-.3-1.5-.3-1.05.1-1.49.3-.81.47-1.12.82c-.31.34-.55.75-.72,1.21-.17.46-.25.96-.25,1.49s.08,1.02.25,1.49c.17.46.41.87.72,1.21.31.34.68.61,1.12.81.44.2.93.29,1.49.29s1.05-.1,1.5-.29c.44-.2.82-.47,1.13-.81.31-.34.55-.75.72-1.21s.25-.96.25-1.49Z"/>
            <path class="cls-3" d="m52.45,193.61h-2.22v8.31h-1.37v-8.31h-1.98v-1.15h1.98v-2.59c0-1.08.26-1.93.79-2.55.53-.62,1.33-.93,2.43-.93.17,0,.36,0,.57.03s.39.06.57.11l-.24,1.21c-.15-.04-.3-.07-.44-.1-.15-.03-.32-.04-.5-.04-.36,0-.66.06-.9.18-.24.12-.42.29-.55.52-.13.22-.22.48-.26.78-.05.3-.07.61-.07.95v2.43h2.22v1.15Z"/>
            <path class="cls-3" d="m63.02,196.9v.3c0,.11,0,.22-.02.34h-7.84c.01.47.11.92.28,1.33.17.42.42.78.73,1.09.31.31.67.56,1.09.74.42.18.87.27,1.35.27.71,0,1.33-.16,1.85-.5.52-.33.91-.71,1.18-1.14l1.03.81c-.57.71-1.19,1.23-1.87,1.54-.68.31-1.41.46-2.19.46-.7,0-1.35-.12-1.95-.37-.6-.25-1.11-.6-1.55-1.04-.43-.44-.77-.97-1.02-1.58-.25-.61-.37-1.27-.37-1.98s.12-1.37.36-1.98.58-1.13,1.01-1.58c.43-.44.94-.79,1.52-1.04.58-.25,1.21-.37,1.88-.37.74,0,1.39.12,1.96.37s1.04.59,1.41,1.01.66.92.86,1.49c.2.57.29,1.17.29,1.82Zm-1.39-.44c-.04-.89-.33-1.63-.86-2.21-.53-.59-1.29-.88-2.27-.88-.46,0-.88.08-1.27.25-.39.17-.73.4-1.03.69-.3.29-.53.62-.71.99-.18.37-.28.76-.3,1.16h6.45Z"/>
            <path class="cls-3" d="m71.01,194.7c-.2-.39-.51-.71-.92-.96-.41-.25-.88-.37-1.4-.37-.24,0-.49.03-.73.08-.24.05-.46.14-.65.26s-.34.28-.45.46c-.11.19-.17.41-.17.67,0,.44.18.79.55,1.02.36.24.94.43,1.72.6,1.12.23,1.94.56,2.48,1,.53.44.8,1.03.8,1.77,0,.54-.1.99-.31,1.36-.21.37-.48.67-.82.91-.34.24-.72.4-1.14.5-.42.1-.85.15-1.28.15-.71,0-1.41-.15-2.08-.44-.67-.3-1.23-.76-1.66-1.39l1.09-.81c.24.42.6.77,1.07,1.05.47.28.99.42,1.56.42.3,0,.58-.03.85-.08.27-.05.51-.15.71-.28.2-.13.36-.31.49-.52.12-.21.18-.47.18-.78,0-.5-.24-.87-.72-1.12-.48-.25-1.17-.48-2.07-.7-.28-.07-.58-.15-.9-.25-.32-.1-.61-.25-.88-.44s-.49-.44-.67-.74c-.18-.3-.26-.67-.26-1.11,0-.49.09-.9.28-1.24s.44-.63.76-.85.68-.39,1.08-.5c.4-.11.82-.16,1.25-.16.66,0,1.3.15,1.92.44.62.3,1.08.71,1.39,1.25l-1.05.79Z"/>
            <path class="cls-3" d="m76.62,188.82c0,.28-.1.52-.3.7-.2.18-.42.27-.67.27s-.46-.09-.67-.27c-.2-.18-.3-.41-.3-.7s.1-.52.3-.7.42-.27.67-.27.46.09.67.27.3.41.3.7Zm-.28,13.1h-1.37v-9.46h1.37v9.46Z"/>
            <path class="cls-3" d="m89.4,197.18c0,.71-.13,1.37-.37,1.98-.25.61-.6,1.13-1.04,1.58-.44.44-.98.79-1.6,1.04-.62.25-1.3.37-2.04.37s-1.4-.12-2.02-.37c-.62-.25-1.15-.6-1.6-1.04s-.79-.97-1.04-1.58c-.25-.61-.37-1.27-.37-1.98s.12-1.37.37-1.98c.25-.61.6-1.13,1.04-1.58.44-.44.98-.79,1.6-1.04s1.29-.37,2.02-.37,1.42.12,2.04.37,1.15.6,1.6,1.04.79.97,1.04,1.58c.25.61.37,1.27.37,1.98Zm-1.46,0c0-.53-.08-1.02-.25-1.49-.17-.46-.41-.87-.72-1.21s-.69-.62-1.13-.82-.94-.3-1.5-.3-1.05.1-1.49.3c-.44.2-.81.47-1.12.82-.31.34-.55.75-.72,1.21-.17.46-.25.96-.25,1.49s.08,1.02.25,1.49c.17.46.41.87.72,1.21.31.34.68.61,1.12.81.44.2.93.29,1.49.29s1.05-.1,1.5-.29c.44-.2.82-.47,1.13-.81.31-.34.55-.75.72-1.21.17-.46.25-.96.25-1.49Z"/>
            <path class="cls-3" d="m93.58,192.45c.03.26.05.54.06.85s.02.57.02.77h.04c.27-.55.71-1,1.31-1.34.61-.34,1.25-.52,1.92-.52,1.2,0,2.1.36,2.7,1.07.6.71.9,1.66.9,2.83v5.8h-1.37v-5.23c0-.5-.04-.95-.12-1.35-.08-.4-.22-.75-.41-1.04-.2-.29-.46-.52-.79-.68-.33-.16-.74-.24-1.24-.24-.36,0-.72.07-1.06.22-.34.15-.65.37-.92.68-.27.3-.49.69-.65,1.15-.16.46-.24,1.01-.24,1.65v4.85h-1.37v-7.38c0-.26,0-.59-.02-.99s-.03-.77-.06-1.09h1.31Z"/>
            <path class="cls-3" d="m110.05,195.79c0-.82-.22-1.42-.65-1.83-.43-.4-1.06-.6-1.88-.6-.57,0-1.09.1-1.58.3-.49.2-.9.47-1.23.81l-.77-.91c.39-.39.91-.71,1.55-.97.64-.26,1.36-.38,2.17-.38.51,0,.99.07,1.43.21.44.14.84.35,1.17.64.34.28.6.64.79,1.07.19.43.28.94.28,1.52v4.14c0,.36.01.74.04,1.13.03.39.07.72.12.99h-1.23c-.04-.23-.07-.48-.1-.75-.03-.27-.04-.53-.04-.79h-.04c-.43.63-.92,1.09-1.47,1.36-.55.28-1.2.41-1.97.41-.36,0-.74-.05-1.12-.15-.38-.1-.73-.27-1.05-.5-.32-.23-.58-.53-.79-.89-.21-.36-.31-.81-.31-1.34,0-.73.18-1.31.56-1.73.37-.43.87-.74,1.49-.95s1.33-.34,2.13-.41c.8-.06,1.63-.09,2.5-.09v-.3Zm-.4,1.39c-.57,0-1.14.02-1.71.07-.57.05-1.09.14-1.56.28-.46.14-.85.35-1.14.62-.3.27-.44.63-.44,1.07,0,.34.06.62.19.85.13.23.3.41.52.56.22.14.45.24.72.3.26.06.53.09.8.09.49,0,.92-.08,1.29-.25.38-.17.69-.4.95-.69.26-.29.45-.62.59-1,.13-.38.2-.77.2-1.19v-.71h-.4Z"/>
            <path class="cls-3" d="m116.29,201.91h-1.37v-15.28h1.37v15.28Z"/>
            <path class="cls-3" d="m128.58,196.9v.3c0,.11,0,.22-.02.34h-7.84c.01.47.11.92.28,1.33.17.42.42.78.73,1.09.31.31.67.56,1.09.74.42.18.87.27,1.35.27.71,0,1.33-.16,1.85-.5.52-.33.91-.71,1.18-1.14l1.03.81c-.57.71-1.19,1.23-1.87,1.54-.68.31-1.41.46-2.19.46-.7,0-1.35-.12-1.95-.37-.6-.25-1.11-.6-1.55-1.04-.43-.44-.77-.97-1.02-1.58-.25-.61-.37-1.27-.37-1.98s.12-1.37.36-1.98c.24-.61.58-1.13,1.01-1.58.43-.44.94-.79,1.52-1.04.58-.25,1.21-.37,1.88-.37.74,0,1.39.12,1.96.37.57.25,1.04.59,1.41,1.01s.66.92.86,1.49c.2.57.29,1.17.29,1.82Zm-1.39-.44c-.04-.89-.33-1.63-.86-2.21-.53-.59-1.29-.88-2.27-.88-.46,0-.88.08-1.27.25-.39.17-.73.4-1.03.69-.3.29-.53.62-.71.99-.18.37-.28.76-.3,1.16h6.45Z"/>
            <path class="cls-3" d="m136.56,194.7c-.2-.39-.51-.71-.92-.96-.41-.25-.88-.37-1.4-.37-.24,0-.49.03-.73.08-.24.05-.46.14-.65.26s-.34.28-.45.46c-.11.19-.17.41-.17.67,0,.44.18.79.55,1.02.36.24.94.43,1.72.6,1.12.23,1.94.56,2.48,1,.53.44.8,1.03.8,1.77,0,.54-.1.99-.31,1.36-.21.37-.48.67-.82.91-.34.24-.72.4-1.14.5-.42.1-.85.15-1.28.15-.71,0-1.41-.15-2.08-.44-.67-.3-1.23-.76-1.66-1.39l1.09-.81c.24.42.6.77,1.07,1.05.47.28.99.42,1.56.42.3,0,.58-.03.85-.08.27-.05.51-.15.71-.28.2-.13.36-.31.49-.52.12-.21.18-.47.18-.78,0-.5-.24-.87-.72-1.12-.48-.25-1.17-.48-2.07-.7-.28-.07-.58-.15-.9-.25-.32-.1-.61-.25-.88-.44s-.49-.44-.67-.74c-.18-.3-.26-.67-.26-1.11,0-.49.09-.9.28-1.24.19-.34.44-.63.76-.85s.68-.39,1.08-.5c.4-.11.82-.16,1.25-.16.66,0,1.3.15,1.92.44s1.08.71,1.39,1.25l-1.05.79Z"/>
            <path class="cls-3" d="m154.17,196.9v.3c0,.11,0,.22-.02.34h-7.84c.01.47.11.92.28,1.33.17.42.42.78.73,1.09.31.31.67.56,1.09.74.42.18.87.27,1.35.27.71,0,1.33-.16,1.85-.5.52-.33.91-.71,1.18-1.14l1.03.81c-.57.71-1.19,1.23-1.87,1.54-.68.31-1.41.46-2.19.46-.7,0-1.35-.12-1.95-.37-.6-.25-1.11-.6-1.55-1.04-.43-.44-.77-.97-1.02-1.58-.25-.61-.37-1.27-.37-1.98s.12-1.37.36-1.98c.24-.61.58-1.13,1.01-1.58.43-.44.94-.79,1.52-1.04.58-.25,1.21-.37,1.88-.37.74,0,1.39.12,1.96.37.57.25,1.04.59,1.41,1.01.38.42.66.92.86,1.49.2.57.29,1.17.29,1.82Zm-1.39-.44c-.04-.89-.33-1.63-.86-2.21-.53-.59-1.29-.88-2.27-.88-.46,0-.88.08-1.27.25-.39.17-.73.4-1.03.69-.3.29-.53.62-.71.99-.18.37-.28.76-.3,1.16h6.45Z"/>
            <path class="cls-3" d="m158.35,192.45c.03.26.05.54.06.85s.02.57.02.77h.04c.27-.55.71-1,1.31-1.34s1.25-.52,1.92-.52c1.2,0,2.1.36,2.7,1.07.6.71.9,1.66.9,2.83v5.8h-1.37v-5.23c0-.5-.04-.95-.12-1.35-.08-.4-.22-.75-.41-1.04-.2-.29-.46-.52-.79-.68-.33-.16-.74-.24-1.24-.24-.36,0-.72.07-1.06.22-.34.15-.65.37-.92.68-.27.3-.49.69-.65,1.15-.16.46-.24,1.01-.24,1.65v4.85h-1.37v-7.38c0-.26,0-.59-.02-.99s-.03-.77-.06-1.09h1.31Z"/>
            <path class="cls-3" d="m178.09,201.91h-1.45v-13.01h-4.79v-1.29h11.03v1.29h-4.79v13.01Z"/>
            <path class="cls-3" d="m190,201.91c-.03-.26-.05-.54-.06-.85-.01-.31-.02-.57-.02-.77h-.04c-.27.55-.71,1-1.31,1.34-.61.34-1.25.51-1.92.51-1.2,0-2.1-.36-2.7-1.07-.6-.71-.9-1.66-.9-2.83v-5.8h1.37v5.23c0,.5.04.95.12,1.35.08.4.22.75.41,1.04.2.29.46.52.79.68s.74.24,1.24.24c.36,0,.72-.07,1.06-.22.34-.15.65-.37.92-.68.27-.3.49-.69.65-1.15.16-.46.24-1.01.24-1.65v-4.85h1.37v7.38c0,.26,0,.59.02.99s.03.77.06,1.09h-1.31Z"/>
            <path class="cls-3" d="m194.85,193.54c-.01-.4-.03-.77-.06-1.09h1.31c.03.26.05.54.06.85.01.31.02.57.02.77h.04c.27-.55.67-1,1.21-1.34.54-.34,1.14-.52,1.82-.52.18,0,.33,0,.48.02s.29.04.43.08l-.18,1.31c-.08-.03-.22-.05-.4-.08-.19-.03-.38-.04-.57-.04-.36,0-.71.07-1.05.2-.34.13-.63.35-.88.63s-.45.66-.61,1.11c-.15.45-.23.99-.23,1.62v4.84h-1.37v-7.38c0-.26,0-.59-.02-.99Z"/>
            <path class="cls-3" d="m203.82,188.82c0,.28-.1.52-.3.7-.2.18-.42.27-.67.27s-.46-.09-.67-.27c-.2-.18-.3-.41-.3-.7s.1-.52.3-.7c.2-.18.42-.27.67-.27s.46.09.67.27.3.41.3.7Zm-.28,13.1h-1.37v-9.46h1.37v9.46Z"/>
            <path class="cls-3" d="m212.23,194.7c-.2-.39-.51-.71-.92-.96-.41-.25-.88-.37-1.4-.37-.24,0-.49.03-.73.08-.24.05-.46.14-.65.26s-.34.28-.45.46c-.11.19-.17.41-.17.67,0,.44.18.79.55,1.02.36.24.94.43,1.72.6,1.12.23,1.94.56,2.48,1,.53.44.8,1.03.8,1.77,0,.54-.1.99-.31,1.36-.21.37-.48.67-.82.91-.34.24-.72.4-1.14.5-.42.1-.85.15-1.28.15-.71,0-1.41-.15-2.08-.44-.67-.3-1.23-.76-1.66-1.39l1.09-.81c.24.42.6.77,1.07,1.05.47.28.99.42,1.56.42.3,0,.58-.03.85-.08.27-.05.51-.15.71-.28.2-.13.36-.31.49-.52.12-.21.18-.47.18-.78,0-.5-.24-.87-.72-1.12-.48-.25-1.17-.48-2.07-.7-.28-.07-.58-.15-.9-.25-.32-.1-.61-.25-.88-.44s-.49-.44-.67-.74c-.18-.3-.26-.67-.26-1.11,0-.49.09-.9.28-1.24s.44-.63.76-.85c.32-.22.68-.39,1.08-.5.4-.11.82-.16,1.25-.16.66,0,1.3.15,1.92.44.62.3,1.08.71,1.39,1.25l-1.05.79Z"/>
            <path class="cls-3" d="m218.77,192.73c.56-.34,1.18-.52,1.87-.52.26,0,.52.03.8.08.28.05.55.16.81.31s.51.36.73.62c.22.26.41.59.58.99.32-.65.76-1.14,1.32-1.49s1.22-.52,1.99-.52c1.2,0,2.1.36,2.7,1.07.6.71.9,1.66.9,2.83v5.8h-1.37v-5.23c0-1-.19-1.8-.56-2.4-.37-.61-1-.91-1.89-.91-.5,0-.92.1-1.26.3s-.62.47-.83.8c-.21.33-.36.7-.45,1.12-.09.42-.14.85-.14,1.29v5.03h-1.37v-5.52c0-.46-.03-.88-.1-1.25s-.19-.7-.35-.96c-.17-.26-.4-.47-.7-.61-.3-.14-.67-.21-1.13-.21-.32,0-.65.07-.98.22-.33.15-.63.37-.89.68-.26.3-.47.69-.64,1.15-.16.46-.24,1.01-.24,1.65v4.85h-1.37v-7.38c0-.26,0-.59-.02-.99-.01-.4-.03-.77-.06-1.09h1.31c.03.26.05.54.06.85s.02.57.02.77h.04c.27-.55.68-1,1.24-1.34Z"/>
            <path class="cls-3" d="m243.41,197.18c0,.71-.13,1.37-.37,1.98-.25.61-.6,1.13-1.04,1.58-.44.44-.98.79-1.6,1.04-.62.25-1.3.37-2.04.37s-1.4-.12-2.02-.37c-.62-.25-1.15-.6-1.6-1.04s-.79-.97-1.04-1.58c-.25-.61-.37-1.27-.37-1.98s.12-1.37.37-1.98.6-1.13,1.04-1.58c.44-.44.98-.79,1.6-1.04.62-.25,1.29-.37,2.02-.37s1.42.12,2.04.37c.62.25,1.15.6,1.6,1.04s.79.97,1.04,1.58c.25.61.37,1.27.37,1.98Zm-1.46,0c0-.53-.08-1.02-.25-1.49-.17-.46-.41-.87-.72-1.21-.31-.34-.69-.62-1.13-.82s-.94-.3-1.5-.3-1.05.1-1.49.3-.81.47-1.12.82c-.31.34-.55.75-.72,1.21-.17.46-.25.96-.25,1.49s.08,1.02.25,1.49c.17.46.41.87.72,1.21.31.34.68.61,1.12.81.44.2.93.29,1.49.29s1.05-.1,1.5-.29c.44-.2.82-.47,1.13-.81.31-.34.55-.75.72-1.21.17-.46.25-.96.25-1.49Z"/>
          </g>
          <g>
            <g>
              <path class="cls-20" d="m141.94,47.61c1.5-.16,3-.31,4.49-.53,2.46-.36,4.89-.89,7.28-1.58,3.49-1.01,6.87-2.28,9.99-4.17,1.37-.82,2.65-1.74,3.83-2.82,1.51-1.38,2.75-2.95,3.58-4.84.96-2.18,1.19-4.46.8-6.8-.08-.48-.19-.96-.29-1.44-.03,0-.06,0-.09,0-.03.06-.07.12-.09.19-.67,1.59-1.6,3.03-2.72,4.34-2.06,2.41-4.55,4.28-7.31,5.82-1.5.84-3.04,1.59-4.65,2.18-1.36.5-2.73.97-4.12,1.39-1.18.35-2.39.64-3.6.89-2.51.53-5.06.84-7.62,1-2.06.12-4.13.13-6.19.03.23.96.47,1.89.73,2.75.35,1.2.69,2.45,1,3.73,1.66.04,3.33.01,4.98-.16Z"/>
              <path class="cls-14" d="m107.57,42.84c-1.03-.92-2.33-1.69-4.11-2.41-.09-.04-.18-.06-.27-.09.97,6.43,3.73,12.57,8.12,17.65,0-.21,0-.4,0-.54,0-1.84.01-3.73-.15-5.6-1.58-2.73-2.78-5.74-3.6-9.02Z"/>
              <path class="cls-10" d="m140.43,70.14c.5-.04,1.01-.08,1.51-.14,4.15-.47,8.1-1.64,11.81-3.54-4.54,1.65-9.04,2.47-13.48,2.4.05.42.11.84.16,1.27Z"/>
              <path class="cls-9" d="m108.74,21.89c-.95-.47-1.82-1.08-2.57-1.82-.44.94-.86,1.92-1.23,2.93-.6,1.64-1.07,3.31-1.42,5,1.28-.3,2.51-.62,3.69-.97.38-1.76.88-3.48,1.52-5.14Z"/>
              <path class="cls-21" d="m119.17,5.37c.45.35.86.75,1.24,1.17,4.57-3.4,10.05-5.73,16.12-6.54-5.63.09-11.82,1.86-17.36,5.37Z"/>
              <path class="cls-22" d="m129.07,66.69c-1.5-.57-3-1.25-4.48-2.06-.3-.17-.6-.34-.89-.52-.13,1.01-.25,1.98-.36,2.92,2,.91,4.08,1.64,6.25,2.17.01,0,.02,0,.03,0-.16-.72-.32-1.44-.47-2.13-.03-.13-.05-.27-.08-.4Z"/>
              <path class="cls-6" d="m143.32,34.62c2.56-.17,5.1-.58,7.61-1.14,2.85-.63,5.62-1.48,8.26-2.73,2.11-1,4.08-2.23,5.7-3.94,1.98-2.09,3-4.55,2.77-7.46-.11-1.43-.5-2.78-1.09-4.09-.09-.19-.16-.39-.24-.59-.02,0-.05,0-.07,0-.01.06-.03.12-.03.17-.03,1.26-.42,2.42-.97,3.52-.96,1.9-2.4,3.39-4.06,4.68-1.97,1.53-4.15,2.67-6.45,3.58-4.99,1.96-10.18,2.84-15.52,2.94-1.8.03-3.61-.06-5.42-.15,0,1.84.11,3.61.29,5.3,1.07.07,2.15.12,3.23.12,2,0,4-.1,6-.23Z"/>
              <path class="cls-4" d="m168.2,52.6c-4.16,3.49-8.94,5.76-14.17,7.12-2.26.59-4.56,1.01-6.89,1.19-1.56.12-3.13.22-4.7.24-1.05.01-2.1-.02-3.15-.09.17,1.32.34,2.64.49,3.94.07.56.14,1.13.21,1.69,2.07.07,4.13-.03,6.18-.31,4.2-.59,8.19-1.83,11.9-3.9,4.24-2.36,7.69-5.56,10.22-9.72.05-.09.1-.18.15-.27-.02-.01-.04-.02-.06-.04-.07.05-.14.11-.21.16Z"/>
              <path class="cls-11" d="m172.55,40.13s-.03.09-.06.12c-1.44,1.77-3.15,3.24-5.04,4.51-2.49,1.68-5.18,2.96-8,3.99-4.12,1.51-8.38,2.46-12.73,2.97-2,.23-4.02.34-6.03.5-.78.06-1.53.25-2.17.72-.15.11-.28.23-.4.36.21,1.17.41,2.38.6,3.62.11.07.22.13.33.19.86.43,1.79.52,2.73.43,2.57-.24,5.13-.59,7.67-1.06,3.36-.62,6.66-1.46,9.85-2.7,3.02-1.18,5.86-2.67,8.3-4.84,2.31-2.05,3.96-4.53,4.76-7.54.11-.4.19-.81.28-1.22-.03-.02-.07-.04-.1-.06Z"/>
              <path class="cls-2" d="m140.57,19.36c-.76.05-1.5.12-2.15.62-1.18.9-1.24,2.73-.09,3.66.56.45,1.23.65,1.94.59,1.54-.12,3.08-.23,4.61-.44,3.16-.43,6.23-1.24,9.16-2.51,2.25-.98,4.34-2.2,6.08-3.95,1.04-1.05,1.88-2.24,2.33-3.67.47-1.48.26-2.86-.7-4.09-1.19-1.53-2.86-2.46-4.46-3.48.19.24.39.47.57.71,1.43,1.93,1.47,4.05.07,5.99-.43.6-.96,1.14-1.52,1.63-1.51,1.3-3.28,2.16-5.13,2.85-3.45,1.29-7.04,1.88-10.71,2.1Z"/>
              <path class="cls-5" d="m139.32,15.14c1.62-.05,3.22-.2,4.82-.47,2.17-.36,4.28-.91,6.29-1.82,1.41-.64,2.73-1.41,3.74-2.62.93-1.11,1.31-2.34.8-3.75-.36-.98-1.05-1.7-1.84-2.34-1.25-1-2.68-1.67-4.17-2.2-.65-.23-1.31-.42-1.96-.64,0,.02-.02.04-.02.06,0,0,0,.02.02.02.19.08.38.15.58.23,1.25.5,2.44,1.1,3.38,2.1.41.43.72.92.83,1.51.2.99-.19,1.79-.84,2.5-.93.99-2.11,1.6-3.35,2.09-2.72,1.06-5.56,1.46-8.45,1.58-.59.02-1.17.02-1.75,0-.52,1.25-.96,2.49-1.35,3.73,1.1.05,2.2.06,3.3.02Z"/>
            </g>
            <g>
              <path class="cls-3" d="m109.4,20.3c1.11.56,2.36.89,3.68.89,4.48,0,8.11-3.63,8.11-8.11,0-2.11-.82-4.03-2.14-5.48-.42-.46-.89-.87-1.4-1.22-1.3-.89-2.88-1.41-4.57-1.41-4.48,0-8.11,3.63-8.11,8.11,0,2.06.77,3.93,2.03,5.36.67.76,1.48,1.4,2.4,1.87Z"/>
              <path class="cls-3" d="m138.93,72.18c-.07-.66-.14-1.31-.22-1.96-.06-.48-.12-.95-.18-1.43-.04-.28-.07-.57-.11-.85-.06-.46-.11-.92-.17-1.37-.23-1.89-.47-3.79-.72-5.68-.12-.93-.24-1.86-.37-2.78-.51-3.51-1.15-6.99-2-10.42-.26-1.06-.55-2.11-.85-3.16-.34-1.14-.63-2.25-.88-3.35-.52-2.29-.87-4.49-1.08-6.59-.19-1.85-.26-3.61-.26-5.29.02-6.01,1.1-10.91,2.14-14.31.48-1.57.95-2.81,1.31-3.69.19-.48.35-.86.46-1.12.36-.86.83-1.7,1.39-2.45.06-.07,1.24-1.9.86-3.52-.03-.14-.07-.27-.12-.4-.02-.04-.04-.08-.05-.12-.04-.08-.07-.17-.11-.25-.03-.05-.05-.09-.08-.13-.04-.07-.08-.13-.13-.2-.03-.04-.07-.08-.1-.12-.05-.05-.09-.11-.14-.16-.04-.04-.08-.07-.12-.11-.05-.04-.1-.09-.16-.13-.04-.03-.09-.06-.14-.08-.06-.03-.11-.07-.17-.09-.05-.02-.1-.04-.15-.06-.06-.02-.12-.04-.19-.06-.05-.01-.11-.02-.17-.03-.07,0-.13-.02-.2-.02-.06,0-.13,0-.19,0-.06,0-.11,0-.17.02-.07,0-.14.03-.21.04-.06.01-.12.03-.18.05-.07.02-.14.05-.22.08-.06.03-.12.05-.18.08-.07.04-.15.08-.23.13-.06.04-.12.07-.18.11-.08.05-.16.12-.24.18-.06.05-.12.09-.18.14-.08.07-.17.16-.25.24-.06.06-.11.11-.17.17-.09.1-.19.22-.28.33-.05.06-.09.11-.14.17-.14.18-.28.38-.43.6,0,.01-2.8,4.41-4.47,7.11-.87,1.41-1.76,2.79-2.71,4.14-.63.9-1.28,1.78-1.96,2.63-.34.43-.69.85-1.04,1.26-.71.83-1.46,1.63-2.24,2.4-1.98,1.94-4.26,3.33-6.78,4.4-1.89.8-3.81,1.48-5.77,2.06-.37.11-.75.2-1.12.3-1.22.34-2.45.65-3.68.92-.38.08-.75.18-1.13.26-3.27.68-6.54,1.31-9.81,1.95-.73.14-1.11.62-1.29,1.34-.37,1.48.61,2.96,2.06,3.25,1.49.29,2.99.49,4.49.7,1.12.16,2.24.32,3.34.55.71.15,1.4.34,2.09.56.39.12.78.25,1.16.4,1.01.41,2,.88,2.91,1.45.9.56,1.73,1.22,2.47,2.03,1.66,1.81,2.5,4.03,2.99,6.43.39,1.97.51,3.96.55,5.95.02.92.01,1.84.01,2.76,0,.43-.03,1.25-.06,2.33-.16,5.45-.52,17.62.96,20.4.11.21.25.41.4.59.03.04.06.08.1.12.15.17.31.32.49.46.03.02.06.04.09.06.16.12.33.22.51.31.03.02.07.04.1.05.2.09.4.16.61.21.04.01.09.02.13.03.2.04.41.07.62.07.01,0,.03,0,.04,0,.22,0,.44-.03.66-.07.06-.01.12-.03.18-.05.16-.04.32-.1.48-.16.06-.03.12-.05.18-.08.21-.1.41-.23.59-.38,1.13-.92,1.49-2.14,1.6-3.5.11-1.43.2-2.86.3-4.29.1-1.43.21-2.86.36-4.28.1-1.01.23-2.01.35-3.02.12-1.04.24-2.07.38-3.1.19-1.43.37-2.86.58-4.29.06-.41.13-.81.22-1.21.27-1.2.7-2.35,1.36-3.41.1-.16.21-.3.33-.42.04-.04.09-.07.13-.1.08-.07.16-.14.24-.2.05-.03.1-.04.16-.07.08-.04.16-.08.24-.11.06-.02.12-.02.18-.03.08-.01.15-.03.23-.03,0,0,0,0,0,0,.08,0,.16.02.24.03.06,0,.12,0,.18.03.08.02.16.07.24.11.05.03.11.04.16.07.08.05.16.12.24.19.04.04.09.07.14.11.12.12.23.26.33.42.25.39.48.8.68,1.22.2.42.38.86.53,1.3.38,1.14.7,2.29.98,3.45.22.91.41,1.83.6,2.75.14.68.27,1.35.41,2.03.12.58.23,1.16.36,1.74.04.21.09.41.14.62.16.76.33,1.51.5,2.26.3,1.31.6,2.61.92,3.91.28,1.14.81,2.18,1.67,3.01.16.16.33.29.51.4.06.04.11.06.17.09.12.07.24.13.36.18.07.03.14.05.21.07.12.03.23.06.35.08.07.01.14.02.21.02.09,0,.19,0,.28,0,.13,0,.26-.03.38-.05.08-.02.16-.04.24-.07.12-.04.24-.1.36-.16.07-.04.15-.08.22-.12.12-.08.24-.19.35-.3.05-.05.11-.1.17-.15.16-.18.31-.38.43-.61.63-1.17.74-2.44.61-3.73Z"/>
            </g>
          </g>
          <rect class="cls-17" x="5" y="157.27" width="254.08" height="1.18"/>
        </g>
      </g>
    </g>
  </g>
</svg>