<?xml version="1.0" encoding="UTF-8"?><svg id="Capa_1" xmlns="http://www.w3.org/2000/svg" viewBox="0 0 612 792"><defs><style>.cls-1{font-family:Lato-Regular, Lato;}.cls-1,.cls-2{fill:#fff;}.cls-1,.cls-3{font-size:23.89px;}.cls-4{fill:#a6a6a6;}.cls-5{fill:#10254c;}.cls-6{stroke-width:2.23px;}.cls-6,.cls-7,.cls-8,.cls-9,.cls-10,.cls-11{fill:none;stroke:gray;stroke-miterlimit:10;}.cls-12{letter-spacing:-.06em;}.cls-7{stroke-width:2.28px;}.cls-13{letter-spacing:0em;}.cls-3{fill:#231f20;font-family:SanDiegoLight, 'San Diego';}.cls-14{letter-spacing:-.02em;}.cls-8{stroke-width:1.58px;}.cls-15{letter-spacing:0em;}.cls-16{letter-spacing:0em;}.cls-9{stroke-width:1.14px;}.cls-17{fill:#4d4d4d;font-family:Avenir-Medium, Avenir;font-size:11.21px;letter-spacing:-.01em;}.cls-10{stroke-width:1.16px;}.cls-11{stroke-width:.5px;}</style></defs><rect class="cls-5" x="-4.07" width="621.43" height="97.96"/><text class="cls-3" transform="translate(248.17 150.85) scale(.94 1)"><tspan x="0" y="0">DE</tspan><tspan class="cls-15" x="30.42" y="0">S</tspan><tspan x="45.45" y="0">TINOS </tspan><tspan x="-40.73" y="20.43">SA</tspan><tspan class="cls-12" x="-10.19" y="20.43">L</tspan><tspan x="-.25" y="20.43">ÓN GÓNDOLA</tspan></text><g><text class="cls-1" transform="translate(279.07 56.11) scale(.94 1)"><tspan x="0" y="0">PU</tspan><tspan class="cls-16" x="31.92" y="0">R</tspan><tspan class="cls-13" x="46.72" y="0">OS N</tspan><tspan class="cls-14" x="103.18" y="0">E</tspan><tspan x="116.6" y="0">GOCIOS!</tspan></text><path class="cls-2" d="M276.75,53.98c-.1-.25-.24-.46-.42-.65-.18-.18-.39-.33-.63-.44-.24-.11-.5-.16-.77-.16s-.55,.05-.79,.16-.45,.25-.62,.44c-.18,.18-.31,.4-.42,.65s-.15,.51-.15,.8,.05,.55,.15,.81,.24,.47,.42,.65c.18,.18,.38,.33,.62,.43,.24,.1,.5,.16,.79,.16s.53-.05,.77-.16c.24-.1,.45-.25,.63-.43,.18-.18,.32-.4,.42-.65s.15-.52,.15-.81-.05-.55-.15-.8Zm-125.6-13.09c-.54-.51-1.22-.91-2.04-1.2s-1.82-.44-2.97-.44h-5.77v17.41h3.79v-5.82h1.98c1.13,0,2.11-.14,2.93-.44s1.51-.7,2.05-1.21c.54-.52,.94-1.14,1.2-1.86,.26-.73,.39-1.52,.39-2.39,0-.8-.13-1.55-.38-2.25-.25-.69-.65-1.29-1.18-1.8Zm-2.88,6.15c-.43,.5-1.15,.75-2.13,.75h-1.98v-5.52h1.98c.48,0,.89,.06,1.24,.19,.35,.13,.64,.31,.86,.54s.4,.52,.51,.84c.11,.33,.17,.69,.17,1.09,0,.9-.22,1.6-.65,2.1Zm16.45,2.52c0,.61-.07,1.16-.22,1.64-.15,.48-.36,.89-.63,1.22-.28,.33-.62,.59-1.02,.77-.4,.18-.85,.27-1.36,.27s-.96-.09-1.36-.27c-.4-.18-.74-.44-1.02-.78-.28-.34-.49-.75-.63-1.23-.15-.48-.22-1.03-.22-1.64v-10.3h-3.79v10.31c0,1.07,.16,2.05,.48,2.94,.32,.89,.79,1.66,1.39,2.31s1.34,1.15,2.21,1.5c.87,.36,1.85,.54,2.94,.54s2.06-.18,2.93-.54c.87-.36,1.6-.86,2.21-1.5s1.07-1.41,1.4-2.31c.33-.89,.49-1.87,.49-2.94v-10.31h-3.79v10.31Zm-28.71,.35h-2.36c-.13,.74-.24,1.47-.33,2.2-.08,.72-.12,1.45-.12,2.19v6.3h3.25v-6.3c0-.73-.04-1.46-.12-2.19-.08-.72-.19-1.46-.33-2.2Zm.19-5.25c-.18-.18-.39-.33-.63-.43-.24-.1-.5-.16-.77-.16s-.55,.05-.79,.16c-.24,.1-.45,.25-.62,.43-.18,.18-.31,.4-.42,.65s-.15,.52-.15,.81,.05,.55,.15,.8c.1,.25,.24,.46,.42,.64,.18,.18,.38,.33,.62,.44,.24,.11,.5,.16,.79,.16s.53-.05,.77-.16c.24-.11,.45-.25,.63-.44,.18-.18,.32-.4,.42-.64,.1-.25,.15-.51,.15-.8s-.05-.56-.15-.81-.24-.47-.42-.65Zm44.1,5.21c-.22-.2-.46-.37-.71-.5,.53-.22,1-.49,1.41-.83,.41-.33,.75-.71,1.03-1.14,.28-.43,.49-.89,.63-1.39s.21-1.04,.21-1.6c0-.74-.12-1.42-.36-2.05-.24-.63-.62-1.17-1.15-1.64-.53-.46-1.21-.82-2.04-1.08-.83-.26-1.84-.39-3.02-.39h-5.32v17.41h3.79v-6.44h.96c.29,0,.52,.05,.68,.14,.16,.1,.3,.25,.42,.48l2.72,5.05c.28,.51,.73,.76,1.37,.76h3.43l-3.48-6.06c-.17-.29-.36-.53-.58-.73Zm-1.29-4.09c-.1,.33-.27,.62-.5,.87s-.53,.44-.89,.58c-.36,.14-.8,.21-1.32,.21h-1.53v-5.16h1.53c.98,0,1.7,.21,2.17,.64,.47,.43,.7,1.03,.7,1.79,0,.38-.05,.74-.16,1.07Zm72.47-6.53l-6.33,17.41h2.96c.31,0,.58-.09,.8-.27,.22-.18,.36-.38,.44-.6l.96-3.03h6.22l.97,3.03c.08,.25,.23,.46,.44,.63,.21,.16,.48,.25,.81,.25h2.94l-6.33-17.41h-3.88Zm-.29,10.75l1.5-4.74c.11-.3,.23-.66,.36-1.08,.13-.41,.25-.86,.37-1.35,.13,.48,.26,.92,.39,1.33s.25,.77,.34,1.07l1.5,4.77h-4.47Zm-27.54,6.65h3.82v-17.41h-3.82v17.41Zm42.07-3.32c-.18-.18-.39-.33-.63-.44-.24-.11-.5-.16-.77-.16s-.55,.05-.79,.16-.45,.25-.62,.44c-.18,.18-.31,.4-.42,.65s-.15,.51-.15,.8,.05,.55,.15,.81,.24,.47,.42,.65c.18,.18,.38,.33,.62,.43,.24,.1,.5,.16,.79,.16s.53-.05,.77-.16c.24-.1,.45-.25,.63-.43,.18-.18,.32-.4,.42-.65s.15-.52,.15-.81-.05-.55-.15-.8-.24-.46-.42-.65Zm-21-8.86c-.41-1.06-.98-1.98-1.72-2.75s-1.63-1.38-2.68-1.82c-1.04-.44-2.2-.66-3.47-.66h-6.35v17.41h6.35c1.27,0,2.43-.22,3.47-.65,1.04-.43,1.94-1.04,2.68-1.82s1.31-1.7,1.72-2.76,.61-2.22,.61-3.48-.2-2.41-.61-3.47Zm-3.59,5.81c-.21,.69-.51,1.28-.9,1.76-.39,.48-.87,.85-1.44,1.11-.57,.26-1.22,.39-1.94,.39h-2.54v-11.19h2.54c.73,0,1.37,.13,1.94,.39,.57,.26,1.05,.63,1.44,1.11,.39,.48,.69,1.07,.9,1.76,.21,.69,.31,1.47,.31,2.33s-.1,1.65-.31,2.34Zm29.88,3.05c-.18-.18-.39-.33-.63-.44-.24-.11-.5-.16-.77-.16s-.55,.05-.79,.16-.45,.25-.62,.44c-.18,.18-.31,.4-.42,.65s-.15,.51-.15,.8,.05,.55,.15,.81,.24,.47,.42,.65c.18,.18,.38,.33,.62,.43,.24,.1,.5,.16,.79,.16s.53-.05,.77-.16c.24-.1,.45-.25,.63-.43,.18-.18,.32-.4,.42-.65s.15-.52,.15-.81-.05-.55-.15-.8-.24-.46-.42-.65Zm-80.12-14.09l-6.33,17.41h2.96c.31,0,.58-.09,.8-.27,.22-.18,.36-.38,.44-.6l.96-3.03h6.22l.97,3.03c.08,.25,.23,.46,.44,.63,.21,.16,.48,.25,.81,.25h2.94l-6.33-17.41h-3.88Zm-.29,10.75l1.5-4.74c.11-.3,.23-.66,.36-1.08,.13-.41,.25-.86,.37-1.35,.13,.48,.26,.92,.39,1.33s.25,.77,.34,1.07l1.5,4.77h-4.47Zm27.48-10.48c-.22,.18-.36,.38-.44,.6l-3.14,9.32c-.13,.41-.27,.85-.41,1.33-.14,.48-.26,.98-.36,1.5-.13-.53-.26-1.03-.41-1.5s-.29-.92-.43-1.33l-3.16-9.32c-.09-.26-.24-.47-.45-.63s-.48-.24-.81-.24h-3.05l6.55,17.41h3.43l6.55-17.41h-3.08c-.31,0-.58,.09-.8,.27Z"/></g><g><polyline class="cls-8" points="224.68 395.02 185.89 395.02 185.89 258.73"/><path class="cls-7" d="M226.08,355.04v70.63h5.14v197.49h-25.72v56.36h20.02v11.66h191.71v-71.12h-25.27v-19.99h29.57v10.71h19.81c14.86,0,26.9-11.58,26.9-25.87v-127.45c0-13.46-11.35-24.37-25.34-24.37h-21.78v15.57h-24.26v-28.59h6.7v-163.02h-38.1l-19.84,17.49h-11.47"/><polyline class="cls-6" points="224.68 306.93 224.68 258.73 261.59 258.73 279.87 274.54 291.02 274.54"/><g><path class="cls-9" d="M334.14,275.37v-23.04c-.49-.1-10.81-1.97-17.37,6.92-4.95,6.71-4.21,14.74-4.07,16.12"/><path class="cls-9" d="M291.02,275.37v-23.04c.49-.1,10.81-1.97,17.37,6.92,4.95,6.71,4.21,14.74,4.07,16.12"/></g><path class="cls-9" d="M223.13,260.33v-19.55c-.42-.08-9.24-1.67-14.84,5.87-4.23,5.69-3.6,12.5-3.48,13.68"/><path class="cls-10" d="M185.89,260.33v-19.55c.42-.08,9.43-1.67,15.16,5.87,4.32,5.69,3.68,12.5,3.55,13.68"/><line class="cls-11" x1="218.33" y1="275.09" x2="218.33" y2="310.33"/><line class="cls-11" x1="218.33" y1="353.68" x2="218.33" y2="388.92"/><g><rect class="cls-4" x="349.58" y="304.28" width="37.36" height="22.28" rx="1.7" ry="1.7" transform="translate(52.84 683.67) rotate(-90)"/><circle class="cls-2" cx="368.26" cy="315.97" r="9.88"/><text class="cls-17" transform="translate(362.46 319.8) scale(.94 1)"><tspan x="0" y="0">01</tspan></text></g><g><g><rect class="cls-4" x="349.17" y="362.68" width="37.36" height="22.28" rx="1.7" ry="1.7" transform="translate(-5.96 741.67) rotate(-90)"/><circle class="cls-2" cx="367.85" cy="374.37" r="9.88"/><text class="cls-17" transform="translate(362.05 378.2) scale(.94 1)"><tspan x="0" y="0">02</tspan></text></g><g><rect class="cls-4" x="302.4" y="362.68" width="37.36" height="22.28" rx="1.7" ry="1.7" transform="translate(-52.73 694.9) rotate(-90)"/><circle class="cls-2" cx="321.08" cy="374.37" r="9.88"/><text class="cls-17" transform="translate(315.28 378.2) scale(.94 1)"><tspan x="0" y="0">03</tspan></text></g><g><rect class="cls-4" x="257.25" y="362.68" width="37.36" height="22.28" rx="1.7" ry="1.7" transform="translate(-97.89 649.74) rotate(-90)"/><circle class="cls-2" cx="275.93" cy="374.37" r="9.88"/><text class="cls-17" transform="translate(270.13 378.2) scale(.94 1)"><tspan x="0" y="0">04</tspan></text></g></g><g><g><rect class="cls-4" x="349.17" y="419.2" width="37.36" height="22.28" rx="1.7" ry="1.7" transform="translate(-62.49 798.19) rotate(-90)"/><circle class="cls-2" cx="367.85" cy="430.9" r="9.88"/><text class="cls-17" transform="translate(362.05 434.72) scale(.94 1)"><tspan x="0" y="0">07</tspan></text></g><g><rect class="cls-4" x="302.4" y="419.2" width="37.36" height="22.28" rx="1.7" ry="1.7" transform="translate(-109.26 751.42) rotate(-90)"/><circle class="cls-2" cx="321.08" cy="430.9" r="9.88"/><text class="cls-17" transform="translate(315.28 434.72) scale(.94 1)"><tspan x="0" y="0">06</tspan></text></g><g><rect class="cls-4" x="257.25" y="419.2" width="37.36" height="22.28" rx="1.7" ry="1.7" transform="translate(-154.41 706.27) rotate(-90)"/><circle class="cls-2" cx="275.93" cy="430.9" r="9.88"/><text class="cls-17" transform="translate(270.13 434.72) scale(.94 1)"><tspan x="0" y="0">05</tspan></text></g></g><g><g><rect class="cls-4" x="328.49" y="478.62" width="37.36" height="22.28" rx="1.7" ry="1.7" transform="translate(-142.6 836.93) rotate(-90)"/><circle class="cls-2" cx="347.17" cy="490.32" r="9.88"/><text class="cls-17" transform="translate(341.37 494.14) scale(.94 1)"><tspan x="0" y="0">10</tspan></text></g><g><rect class="cls-4" x="375.34" y="478.62" width="37.36" height="22.28" rx="1.7" ry="1.7" transform="translate(-95.75 883.78) rotate(-90)"/><circle class="cls-2" cx="394.02" cy="490.32" r="9.88"/><text class="cls-17" transform="translate(388.22 494.14) scale(.94 1)"><tspan x="0" y="0">09</tspan></text></g><g><rect class="cls-4" x="422.19" y="478.62" width="37.36" height="22.28" rx="1.7" ry="1.7" transform="translate(-48.9 930.63) rotate(-90)"/><circle class="cls-2" cx="440.87" cy="490.32" r="9.88"/><text class="cls-17" transform="translate(435.07 494.14) scale(.94 1)"><tspan x="0" y="0">08</tspan></text></g><g><rect class="cls-4" x="281.64" y="478.62" width="37.36" height="22.28" rx="1.7" ry="1.7" transform="translate(-189.44 790.08) rotate(-90)"/><circle class="cls-2" cx="300.32" cy="490.32" r="9.88"/><text class="cls-17" transform="translate(294.52 494.14) scale(.94 1)"><tspan x="0" y="0">11</tspan></text></g><g><rect class="cls-4" x="234.79" y="478.62" width="37.36" height="22.28" rx="1.7" ry="1.7" transform="translate(-236.29 743.23) rotate(-90)"/><circle class="cls-2" cx="253.47" cy="490.32" r="9.88"/><text class="cls-17" transform="translate(247.67 494.14) scale(.94 1)"><tspan x="0" y="0">12</tspan></text></g></g><g><g><rect class="cls-4" x="328.49" y="536.86" width="37.36" height="22.28" rx="1.7" ry="1.7" transform="translate(-200.83 895.16) rotate(-90)"/><circle class="cls-2" cx="347.17" cy="548.55" r="9.88"/><text class="cls-17" transform="translate(341.37 552.38) scale(.94 1)"><tspan x="0" y="0">15</tspan></text></g><g><rect class="cls-4" x="375.34" y="536.86" width="37.36" height="22.28" rx="1.7" ry="1.7" transform="translate(-153.98 942.01) rotate(-90)"/><circle class="cls-2" cx="394.02" cy="548.55" r="9.88"/><text class="cls-17" transform="translate(388.22 552.38) scale(.94 1)"><tspan x="0" y="0">16</tspan></text></g><g><rect class="cls-4" x="422.19" y="536.86" width="37.36" height="22.28" rx="1.7" ry="1.7" transform="translate(-107.13 988.86) rotate(-90)"/><circle class="cls-2" cx="440.87" cy="548.55" r="9.88"/><text class="cls-17" transform="translate(435.07 552.38) scale(.94 1)"><tspan x="0" y="0">17</tspan></text></g><g><rect class="cls-4" x="281.64" y="536.86" width="37.36" height="22.28" rx="1.7" ry="1.7" transform="translate(-247.68 848.31) rotate(-90)"/><circle class="cls-2" cx="300.32" cy="548.55" r="9.88"/><text class="cls-17" transform="translate(294.52 552.38) scale(.94 1)"><tspan x="0" y="0">14</tspan></text></g><g><rect class="cls-4" x="234.79" y="536.86" width="37.36" height="22.28" rx="1.7" ry="1.7" transform="translate(-294.53 801.46) rotate(-90)"/><circle class="cls-2" cx="253.47" cy="548.55" r="9.88"/><text class="cls-17" transform="translate(247.67 552.38) scale(.94 1)"><tspan x="0" y="0">13</tspan></text></g></g><g><g><rect class="cls-4" x="328.49" y="652.67" width="37.36" height="22.28" rx="1.7" ry="1.7" transform="translate(-316.64 1010.97) rotate(-90)"/><circle class="cls-2" cx="347.17" cy="664.36" r="9.88"/><text class="cls-17" transform="translate(341.37 668.19) scale(.94 1)"><tspan x="0" y="0">23</tspan></text></g><g><rect class="cls-4" x="371.45" y="652.67" width="37.36" height="22.28" rx="1.7" ry="1.7" transform="translate(-273.67 1053.93) rotate(-90)"/><circle class="cls-2" cx="390.13" cy="664.36" r="9.88"/><text class="cls-17" transform="translate(384.33 668.19) scale(.94 1)"><tspan x="0" y="0">24</tspan></text></g><g><rect class="cls-4" x="281.64" y="652.67" width="37.36" height="22.28" rx="1.7" ry="1.7" transform="translate(-363.49 964.12) rotate(-90)"/><circle class="cls-2" cx="300.32" cy="664.36" r="9.88"/><text class="cls-17" transform="translate(294.52 668.19) scale(.94 1)"><tspan x="0" y="0">22</tspan></text></g><g><rect class="cls-4" x="234.79" y="652.67" width="37.36" height="22.28" rx="1.7" ry="1.7" transform="translate(-410.34 917.27) rotate(-90)"/><circle class="cls-2" cx="253.47" cy="664.36" r="9.88"/><text class="cls-17" transform="translate(247.67 668.19) scale(.94 1)"><tspan x="0" y="0">21</tspan></text></g></g><g><g><rect class="cls-4" x="328.49" y="594.43" width="37.36" height="22.28" rx="1.7" ry="1.7" transform="translate(-258.4 952.74) rotate(-90)"/><circle class="cls-2" cx="347.17" cy="606.13" r="9.88"/><text class="cls-17" transform="translate(341.37 609.95) scale(.94 1)"><tspan x="0" y="0">18</tspan></text></g><g><rect class="cls-4" x="281.64" y="594.43" width="37.36" height="22.28" rx="1.7" ry="1.7" transform="translate(-305.25 905.89) rotate(-90)"/><circle class="cls-2" cx="300.32" cy="606.13" r="9.88"/><text class="cls-17" transform="translate(294.52 609.95) scale(.94 1)"><tspan x="0" y="0">19</tspan></text></g><g><rect class="cls-4" x="234.79" y="594.43" width="37.36" height="22.28" rx="1.7" ry="1.7" transform="translate(-352.1 859.04) rotate(-90)"/><circle class="cls-2" cx="253.47" cy="606.13" r="9.88"/><text class="cls-17" transform="translate(247.67 609.95) scale(.94 1)"><tspan x="0" y="0">20</tspan></text></g></g></g></svg>