<?xml version="1.0" encoding="UTF-8"?><svg id="Capa_1" xmlns="http://www.w3.org/2000/svg" viewBox="0 0 907.47 575.4"><defs><style>.cls-1{font-family:Lato-Regular, Lato;}.cls-1,.cls-2{fill:#fff;}.cls-1,.cls-3{font-size:23.89px;}.cls-4{fill:#6a6b6d;font-size:13.65px;}.cls-5{fill:#a6a6a6;}.cls-6{fill:#10254c;}.cls-7{fill:gray;}.cls-8{letter-spacing:-.09em;}.cls-9{fill:none;stroke:gray;stroke-miterlimit:10;stroke-width:2.48px;}.cls-10{letter-spacing:0em;}.cls-11,.cls-12{font-family:Avenir-Medium, Avenir;}.cls-3{fill:#231f20;font-family:SanDiegoLight, 'San Diego';}.cls-13{letter-spacing:-.02em;}.cls-14{letter-spacing:0em;}.cls-12{fill:#4d4d4d;font-size:12.38px;letter-spacing:-.07em;}.cls-15,.cls-16{font-family:Avenir-Black, Avenir;}.cls-16{letter-spacing:-.07em;}</style></defs><rect class="cls-6" x="-2.72" width="912.91" height="97.96"/><g><text class="cls-1" transform="translate(426.81 56.11) scale(.94 1)"><tspan x="0" y="0">PU</tspan><tspan class="cls-14" x="31.92" y="0">R</tspan><tspan class="cls-10" x="46.72" y="0">OS N</tspan><tspan class="cls-13" x="103.18" y="0">E</tspan><tspan x="116.6" y="0">GOCIOS!</tspan></text><path class="cls-2" d="M283.94,44.66c-.18-.18-.39-.33-.63-.43-.24-.1-.5-.16-.77-.16s-.55,.05-.79,.16c-.24,.1-.45,.25-.62,.43-.18,.18-.31,.4-.42,.65-.1,.25-.15,.52-.15,.81s.05,.55,.15,.8,.24,.46,.42,.65c.18,.18,.38,.33,.62,.44,.24,.11,.5,.16,.79,.16s.53-.05,.77-.16c.24-.11,.45-.25,.63-.44,.18-.18,.32-.4,.42-.65s.15-.51,.15-.8-.05-.56-.15-.81c-.1-.25-.24-.47-.42-.65Zm44.1,5.21c-.22-.2-.46-.37-.71-.5,.53-.22,1-.49,1.41-.83,.41-.33,.75-.71,1.03-1.14,.28-.43,.49-.89,.63-1.39s.21-1.04,.21-1.6c0-.74-.12-1.43-.36-2.05-.24-.63-.62-1.18-1.15-1.64-.53-.46-1.21-.82-2.04-1.08-.83-.26-1.84-.39-3.02-.39h-5.32v17.41h3.79v-6.44h.96c.29,0,.52,.05,.68,.14,.16,.1,.3,.26,.42,.48l2.72,5.05c.28,.51,.73,.77,1.37,.77h3.43l-3.48-6.06c-.17-.29-.36-.53-.58-.73Zm-1.29-4.09c-.1,.33-.27,.62-.5,.87-.23,.25-.53,.44-.89,.58s-.8,.21-1.32,.21h-1.53v-5.16h1.53c.98,0,1.7,.21,2.17,.64,.47,.43,.7,1.03,.7,1.79,0,.38-.05,.74-.16,1.07Zm-14.3,3.78c0,.61-.07,1.16-.22,1.64-.15,.48-.36,.89-.63,1.22-.28,.33-.62,.59-1.02,.77-.4,.18-.85,.27-1.36,.27s-.96-.09-1.36-.27c-.4-.18-.74-.44-1.02-.78-.28-.34-.49-.75-.63-1.23-.15-.48-.22-1.03-.22-1.64v-10.3h-3.79v10.31c0,1.07,.16,2.05,.48,2.94,.32,.89,.79,1.66,1.39,2.31s1.34,1.15,2.21,1.5c.87,.36,1.85,.54,2.94,.54s2.06-.18,2.93-.54c.87-.36,1.6-.86,2.21-1.5s1.07-1.41,1.4-2.31c.33-.89,.49-1.87,.49-2.94v-10.31h-3.79v10.31Zm-28.71,.35h-2.36c-.13,.74-.24,1.47-.33,2.2-.08,.72-.12,1.45-.12,2.19v6.3h3.25v-6.3c0-.73-.04-1.46-.12-2.19-.08-.72-.19-1.46-.33-2.2Zm15.13-9.02c-.54-.51-1.22-.91-2.04-1.2-.83-.29-1.82-.44-2.97-.44h-5.77v17.41h3.79v-5.82h1.98c1.13,0,2.11-.15,2.93-.44,.83-.29,1.51-.69,2.05-1.21,.54-.52,.94-1.14,1.2-1.86,.26-.73,.39-1.52,.39-2.39,0-.8-.13-1.55-.38-2.25-.25-.69-.65-1.29-1.18-1.8Zm-2.88,6.15c-.43,.5-1.15,.75-2.13,.75h-1.98v-5.52h1.98c.48,0,.89,.06,1.24,.19,.35,.13,.64,.31,.86,.54,.23,.24,.4,.52,.51,.84,.11,.33,.17,.69,.17,1.09,0,.9-.22,1.6-.65,2.1Zm122.76,6.3c-.18-.18-.39-.33-.63-.44-.24-.11-.5-.16-.77-.16s-.55,.05-.79,.16-.45,.25-.62,.44c-.18,.18-.31,.4-.42,.65s-.15,.51-.15,.8,.05,.56,.15,.81c.1,.25,.24,.47,.42,.65,.18,.18,.38,.33,.62,.43s.5,.16,.79,.16,.53-.05,.77-.16c.24-.1,.45-.25,.63-.43,.18-.18,.32-.4,.42-.65,.1-.25,.15-.52,.15-.81s-.05-.55-.15-.8-.24-.46-.42-.65Zm-80.12-14.09l-6.33,17.41h2.96c.31,0,.58-.09,.8-.27,.22-.18,.36-.38,.44-.6l.96-3.03h6.22l.97,3.03c.08,.26,.23,.46,.44,.63,.21,.16,.48,.25,.81,.25h2.94l-6.33-17.41h-3.88Zm-.29,10.75l1.5-4.74c.11-.3,.23-.66,.36-1.08,.13-.41,.25-.86,.37-1.35,.13,.48,.26,.92,.39,1.33s.25,.77,.34,1.07l1.5,4.77h-4.47Zm60.87-10.75l-6.33,17.41h2.96c.31,0,.58-.09,.8-.27,.22-.18,.36-.38,.44-.6l.96-3.03h6.22l.97,3.03c.08,.26,.23,.46,.44,.63,.21,.16,.48,.25,.81,.25h2.94l-6.33-17.41h-3.88Zm-.29,10.75l1.5-4.74c.11-.3,.23-.66,.36-1.08,.13-.41,.25-.86,.37-1.35,.13,.48,.26,.92,.39,1.33s.25,.77,.34,1.07l1.5,4.77h-4.47Zm25.55,3.98c-.1-.25-.24-.46-.42-.65-.18-.18-.39-.33-.63-.44-.24-.11-.5-.16-.77-.16s-.55,.05-.79,.16-.45,.25-.62,.44c-.18,.18-.31,.4-.42,.65s-.15,.51-.15,.8,.05,.56,.15,.81c.1,.25,.24,.47,.42,.65,.18,.18,.38,.33,.62,.43s.5,.16,.79,.16,.53-.05,.77-.16c.24-.1,.45-.25,.63-.43,.18-.18,.32-.4,.42-.65,.1-.25,.15-.52,.15-.81s-.05-.55-.15-.8Zm-11.01-.65c-.18-.18-.39-.33-.63-.44-.24-.11-.5-.16-.77-.16s-.55,.05-.79,.16-.45,.25-.62,.44c-.18,.18-.31,.4-.42,.65s-.15,.51-.15,.8,.05,.56,.15,.81c.1,.25,.24,.47,.42,.65,.18,.18,.38,.33,.62,.43s.5,.16,.79,.16,.53-.05,.77-.16c.24-.1,.45-.25,.63-.43,.18-.18,.32-.4,.42-.65,.1-.25,.15-.52,.15-.81s-.05-.55-.15-.8-.24-.46-.42-.65Zm-47.63-13.82c-.22,.18-.36,.38-.44,.6l-3.14,9.32c-.13,.41-.27,.85-.41,1.33-.14,.48-.26,.98-.36,1.51-.13-.53-.26-1.03-.41-1.51-.15-.48-.29-.92-.43-1.33l-3.16-9.32c-.09-.26-.24-.47-.45-.63-.21-.16-.48-.24-.81-.24h-3.05l6.55,17.41h3.43l6.55-17.41h-3.08c-.31,0-.58,.09-.8,.27Zm5.56,17.14h3.82v-17.41h-3.82v17.41Zm21.07-12.18c-.41-1.06-.98-1.98-1.72-2.75s-1.63-1.38-2.68-1.82c-1.04-.44-2.2-.66-3.47-.66h-6.35v17.41h6.35c1.27,0,2.43-.22,3.47-.65,1.04-.43,1.94-1.04,2.68-1.82s1.31-1.7,1.72-2.76,.61-2.22,.61-3.48-.2-2.41-.61-3.47Zm-3.59,5.81c-.21,.69-.51,1.28-.9,1.76-.39,.48-.87,.85-1.44,1.11-.57,.26-1.22,.39-1.94,.39h-2.54v-11.19h2.54c.73,0,1.37,.13,1.94,.39,.57,.26,1.05,.63,1.44,1.11,.39,.48,.69,1.07,.9,1.76,.21,.69,.31,1.47,.31,2.33s-.1,1.65-.31,2.34Z"/></g><text class="cls-3" transform="translate(344.9 160.36) scale(.94 1)"><tspan x="0" y="0">HOSPI</tspan><tspan class="cls-8" x="72.83" y="0">T</tspan><tspan x="83.94" y="0">ALITY SUITES</tspan></text><g><path class="cls-7" d="M77.54,205.57h249.83c1.16,0,2.1,.94,2.1,2.1h0c0,1.16-.94,2.1-2.1,2.1H77.54v-4.2h0Z"/><path class="cls-7" d="M532.96,203.96h315.4v4.2h-315.4c-1.16,0-2.1-.94-2.1-2.1h0c0-1.16,.94-2.1,2.1-2.1Z"/><g><text class="cls-4" transform="translate(583.86 236.49) scale(.94 1)"><tspan class="cls-16" x="0" y="0">P</tspan><tspan class="cls-15" x="7.59" y="0">ASILLOS </tspan><tspan class="cls-11" x="67.49" y="0">/ HALL</tspan></text><text class="cls-4" transform="translate(583.98 313.77) scale(.94 1)"><tspan class="cls-16" x="0" y="0">P</tspan><tspan class="cls-15" x="7.59" y="0">ASILLOS</tspan><tspan class="cls-11" x="63.45" y="0" xml:space="preserve"> / HALL</tspan></text></g><g><text class="cls-4" transform="translate(238.65 236.58) scale(.94 1)"><tspan class="cls-16" x="0" y="0">P</tspan><tspan class="cls-15" x="7.59" y="0">ASILLOS</tspan><tspan class="cls-11" x="63.45" y="0" xml:space="preserve"> / HALL</tspan></text><text class="cls-4" transform="translate(238.65 313.86) scale(.94 1)"><tspan class="cls-16" x="0" y="0">P</tspan><tspan class="cls-15" x="7.59" y="0">ASILLOS</tspan><tspan class="cls-11" x="63.45" y="0" xml:space="preserve"> / HALL</tspan></text></g><path class="cls-9" d="M77.93,208.16v38.3h2.08v-8.17l71.51-.5c8.43,.31,13.78-1.17,17.88,3.14,2.18,2.29,3.05,4.96,3.43,6.79v65.62c.05,.47,.32,3.53-1.96,6.03-2.11,2.32-4.86,2.49-5.39,2.51h-25.72v-6.03h-26.94v118.67H768.56V246.71h82.42v-35.45"/><rect class="cls-7" x="151.75" y="234.85" width="3.77" height="89.76"/><rect class="cls-7" x="148.92" y="235.8" width="4.71" height="9.81"/><rect class="cls-7" x="150.81" y="313.86" width="4.71" height="9.81"/><path class="cls-9" d="M751.06,247.66h16.84v77.69h-16.84c-2.57,0-4.66-2.09-4.66-4.66v-68.37c0-2.57,2.09-4.66,4.66-4.66Z"/><g><rect class="cls-7" x="762.36" y="231.18" width="5.53" height="17.85"/><rect class="cls-7" x="825.24" y="229.32" width="5.53" height="17.85"/></g><rect class="cls-9" x="195.18" y="244.49" width="202.9" height="50.76" rx="9.56" ry="9.56"/><rect class="cls-9" x="523.64" y="244.4" width="202.9" height="50.76" rx="9.56" ry="9.56"/><rect class="cls-7" x="126.03" y="339.07" width="633.58" height="3.52"/><rect class="cls-7" x="151.42" y="339.07" width="3.02" height="94.28"/><rect class="cls-7" x="233.88" y="339.07" width="3.02" height="94.28"/><rect class="cls-7" x="308.05" y="339.07" width="3.02" height="94.28"/><rect class="cls-7" x="385.49" y="339.07" width="3.02" height="94.28"/><rect class="cls-7" x="461.45" y="340.83" width="3.02" height="94.28"/><rect class="cls-7" x="540.64" y="340.83" width="3.02" height="94.28"/><rect class="cls-7" x="615.06" y="339.07" width="3.02" height="94.28"/><rect class="cls-7" x="690.11" y="339.07" width="3.02" height="94.28"/><rect class="cls-7" x="652.59" y="376.03" width="4.44" height="54.06"/><rect class="cls-7" x="727.61" y="379.3" width="4.44" height="54.06"/><rect class="cls-7" x="501.48" y="376.03" width="4.44" height="54.06"/><rect class="cls-7" x="576.03" y="376.03" width="4.44" height="54.06"/><rect class="cls-7" x="423.79" y="376.03" width="4.44" height="54.06"/><rect class="cls-7" x="347.18" y="376.03" width="4.44" height="54.06"/><rect class="cls-7" x="268.99" y="376.03" width="4.44" height="54.06"/><g><rect class="cls-7" x="269.29" y="349" width="3.68" height="21.56"/><rect class="cls-7" x="268.75" y="343.5" width="4.76" height="14.03" transform="translate(-79.38 621.65) rotate(-90)"/><rect class="cls-7" x="268.75" y="363.55" width="4.76" height="14.03" transform="translate(-99.43 641.69) rotate(-90)"/></g><g><rect class="cls-7" x="346.44" y="349.38" width="3.68" height="21.56"/><rect class="cls-7" x="345.9" y="343.88" width="4.76" height="14.03" transform="translate(-2.61 699.18) rotate(-90)"/><rect class="cls-7" x="345.9" y="363.92" width="4.76" height="14.03" transform="translate(-22.66 719.22) rotate(-90)"/></g><g><rect class="cls-7" x="423.63" y="348.62" width="3.68" height="21.56"/><rect class="cls-7" x="423.08" y="343.12" width="4.76" height="14.03" transform="translate(75.33 775.6) rotate(-90)"/><rect class="cls-7" x="423.08" y="363.17" width="4.76" height="14.03" transform="translate(55.29 795.65) rotate(-90)"/></g><g><rect class="cls-7" x="501.86" y="349.49" width="3.68" height="21.56"/><rect class="cls-7" x="501.32" y="343.99" width="4.76" height="14.03" transform="translate(152.7 854.71) rotate(-90)"/><rect class="cls-7" x="501.32" y="364.03" width="4.76" height="14.03" transform="translate(132.66 874.75) rotate(-90)"/></g><g><rect class="cls-7" x="576.41" y="348.73" width="3.68" height="21.56"/><rect class="cls-7" x="575.87" y="343.23" width="4.76" height="14.03" transform="translate(228 928.49) rotate(-90)"/><rect class="cls-7" x="575.87" y="363.27" width="4.76" height="14.03" transform="translate(207.96 948.54) rotate(-90)"/></g><g><rect class="cls-7" x="652.96" y="347.77" width="3.68" height="21.56"/><rect class="cls-7" x="652.42" y="342.27" width="4.76" height="14.03" transform="translate(305.52 1004.09) rotate(-90)"/><rect class="cls-7" x="652.42" y="362.32" width="4.76" height="14.03" transform="translate(285.47 1024.14) rotate(-90)"/></g><rect class="cls-7" x="193.31" y="374.02" width="4.44" height="54.06"/><rect class="cls-7" x="126.03" y="350.89" width="4.44" height="25.14"/><rect class="cls-7" x="123.81" y="420.28" width="4.44" height="15.34"/><rect class="cls-7" x="674.62" y="366.78" width="38.72" height="3.55"/><rect class="cls-7" x="722.52" y="367.56" width="26.65" height="3.55"/><rect class="cls-7" x="717.14" y="354.14" width="26.65" height="3.55" transform="translate(374.55 1086.39) rotate(-90)"/><rect class="cls-7" x="597.17" y="366.78" width="38.72" height="3.55"/><rect class="cls-7" x="522.79" y="366.78" width="38.72" height="3.55"/><rect class="cls-7" x="445.22" y="366.78" width="38.72" height="3.55"/><rect class="cls-7" x="367.51" y="366.78" width="38.72" height="3.55"/><rect class="cls-7" x="290.2" y="366.78" width="38.72" height="3.55"/><rect class="cls-7" x="216.03" y="366.78" width="38.72" height="3.55"/><rect class="cls-7" x="172.29" y="367.5" width="28.88" height="3.06"/><rect class="cls-7" x="168.86" y="360.4" width="7.92" height="3.06"/><rect class="cls-7" x="187.61" y="342.59" width="7.92" height="9.4"/><rect class="cls-7" x="194.77" y="347.29" width="4.79" height="5.61"/><rect class="cls-7" x="227.21" y="342.53" width="14.47" height="6.48"/><rect class="cls-7" x="302.47" y="343.43" width="14.47" height="6.48"/><rect class="cls-7" x="379.76" y="344.52" width="14.47" height="6.48"/><rect class="cls-7" x="455.72" y="344.52" width="14.47" height="6.48"/><rect class="cls-7" x="533.41" y="343.67" width="14.47" height="6.48"/><rect class="cls-7" x="607.83" y="344.52" width="14.47" height="6.48"/><rect class="cls-7" x="684.38" y="343.67" width="14.47" height="6.48"/><rect class="cls-7" x="729.83" y="344.45" width="9.44" height="3.33"/><rect class="cls-7" x="725.75" y="348.34" width="6.64" height="2.8"/><rect class="cls-7" x="732.62" y="345.02" width="9.08" height="4.21" transform="translate(390.03 1084.29) rotate(-90)"/><rect class="cls-7" x="151.97" y="346.67" width="7.92" height="4.7"/><rect class="cls-7" x="153.76" y="367.5" width="7.92" height="4.7"/><rect class="cls-7" x="146.52" y="356.66" width="7.92" height="4.7"/><rect class="cls-7" x="112.95" y="350.89" width="7.92" height="4.7"/><rect class="cls-7" x="112.95" y="378.89" width="6.22" height="4.7"/><rect class="cls-7" x="127.35" y="379.27" width="24.62" height="4.32"/><rect class="cls-7" x="127.41" y="351.37" width="21.94" height="4.3"/><rect class="cls-7" x="145.48" y="351.37" width="3.87" height="12.88"/><rect class="cls-7" x="167.92" y="341.33" width="4.05" height="22.12"/><rect class="cls-7" x="210.22" y="357.02" width="7.92" height="3.06"/><rect class="cls-7" x="209.28" y="340.83" width="4.05" height="19.25"/><rect class="cls-7" x="362.96" y="357.46" width="7.92" height="3.06"/><rect class="cls-7" x="362.01" y="341.27" width="4.05" height="19.25"/><rect class="cls-7" x="440.65" y="358.78" width="7.92" height="3.06"/><rect class="cls-7" x="439.7" y="342.59" width="4.05" height="19.25"/><rect class="cls-7" x="518.08" y="358.78" width="7.92" height="3.06"/><rect class="cls-7" x="517.14" y="342.59" width="4.05" height="19.25"/><rect class="cls-7" x="593.68" y="358.78" width="7.92" height="3.06"/><rect class="cls-7" x="592.74" y="342.59" width="4.05" height="19.25"/><rect class="cls-7" x="667.6" y="358.78" width="7.92" height="3.06"/><rect class="cls-7" x="666.65" y="342.59" width="4.05" height="19.25"/><g><rect class="cls-7" x="747.74" y="358.78" width="7.92" height="3.06" transform="translate(1503.39 720.62) rotate(-180)"/><rect class="cls-7" x="752.54" y="342.59" width="4.05" height="19.25" transform="translate(1509.14 704.43) rotate(-180)"/></g><g><rect class="cls-7" x="708.39" y="358.23" width="7.92" height="3.06" transform="translate(1424.69 719.53) rotate(-180)"/><rect class="cls-7" x="713.2" y="342.04" width="4.05" height="19.25" transform="translate(1430.45 703.34) rotate(-180)"/></g><g><rect class="cls-7" x="629.07" y="358.23" width="7.92" height="3.06" transform="translate(1266.05 719.53) rotate(-180)"/><rect class="cls-7" x="633.87" y="342.04" width="4.05" height="19.25" transform="translate(1271.8 703.34) rotate(-180)"/></g><g><rect class="cls-7" x="554.65" y="358.78" width="7.92" height="3.06" transform="translate(1117.21 720.62) rotate(-180)"/><rect class="cls-7" x="559.45" y="342.59" width="4.05" height="19.25" transform="translate(1122.96 704.43) rotate(-180)"/></g><g><rect class="cls-7" x="479.97" y="358.78" width="7.92" height="3.06" transform="translate(967.86 720.62) rotate(-180)"/><rect class="cls-7" x="484.78" y="342.59" width="4.05" height="19.25" transform="translate(973.62 704.43) rotate(-180)"/></g><g><rect class="cls-7" x="403.94" y="358.78" width="7.92" height="3.06" transform="translate(815.8 720.62) rotate(-180)"/><rect class="cls-7" x="408.75" y="342.59" width="4.05" height="19.25" transform="translate(821.55 704.43) rotate(-180)"/></g><g><rect class="cls-7" x="326.75" y="357.46" width="7.92" height="3.06" transform="translate(661.42 717.98) rotate(-180)"/><rect class="cls-7" x="331.56" y="341.27" width="4.05" height="19.25" transform="translate(667.18 701.79) rotate(-180)"/></g><g><rect class="cls-7" x="249.82" y="358.55" width="7.92" height="3.06" transform="translate(507.56 720.16) rotate(-180)"/><rect class="cls-7" x="254.63" y="342.36" width="4.05" height="19.25" transform="translate(513.31 703.98) rotate(-180)"/></g><rect class="cls-7" x="285.6" y="357.46" width="7.92" height="3.06"/><rect class="cls-7" x="284.65" y="341.27" width="4.05" height="19.25"/><rect class="cls-7" x="191.98" y="341.81" width="4.05" height="26.46"/><rect class="cls-7" x="726.45" y="413.37" width="6.98" height="19.99"/><polygon class="cls-7" points="769.09 413.23 764.35 413.51 764.35 433.49 769.09 433.21 769.09 413.23"/><rect class="cls-7" x="613.04" y="413.37" width="6.98" height="19.99"/><rect class="cls-7" x="538.66" y="414.5" width="6.98" height="19.99"/><rect class="cls-7" x="459.47" y="413.37" width="6.98" height="19.99"/><rect class="cls-7" x="383.51" y="415.13" width="6.98" height="19.99"/><rect class="cls-7" x="306.81" y="413.99" width="6.98" height="19.99"/><rect class="cls-7" x="231.9" y="413.37" width="6.98" height="19.99"/><rect class="cls-7" x="149.44" y="413.37" width="6.98" height="19.99"/><path class="cls-7" d="M757.15,383.76h-6.88c-.9,0-1.42-1.11-.88-1.89l3.23-4.67,3.65-5.29c.44-.63,1.32-.63,1.76,0l3.65,5.29,3.23,4.67c.54,.78,.02,1.89-.88,1.89h-6.88Z"/><g><rect class="cls-5" x="113.69" y="396.83" width="38.97" height="24.6" rx="1.83" ry="1.83" transform="translate(-275.96 542.3) rotate(-90)"/><circle class="cls-2" cx="133.17" cy="409.75" r="10.91"/><text class="cls-12" transform="translate(127.15 413.97) scale(.94 1)"><tspan x="0" y="0">17</tspan></text></g><g><rect class="cls-5" x="155.38" y="396.83" width="38.97" height="24.6" rx="1.83" ry="1.83" transform="translate(-234.27 583.99) rotate(-90)"/><circle class="cls-2" cx="174.86" cy="409.75" r="10.91"/><text class="cls-12" transform="translate(168.84 413.97) scale(.94 1)"><tspan x="0" y="0">16</tspan></text></g><g><rect class="cls-5" x="196.14" y="396.83" width="38.97" height="24.6" rx="1.83" ry="1.83" transform="translate(-193.51 624.75) rotate(-90)"/><circle class="cls-2" cx="215.62" cy="409.75" r="10.91"/><text class="cls-12" transform="translate(209.6 413.97) scale(.94 1)"><tspan x="0" y="0">15</tspan></text></g><g><rect class="cls-5" x="234.29" y="396.83" width="38.97" height="24.6" rx="1.83" ry="1.83" transform="translate(-155.35 662.91) rotate(-90)"/><circle class="cls-2" cx="253.78" cy="409.75" r="10.91"/><text class="cls-12" transform="translate(247.75 413.97) scale(.94 1)"><tspan x="0" y="0">14</tspan></text></g><g><rect class="cls-5" x="270.95" y="396.83" width="38.97" height="24.6" rx="1.83" ry="1.83" transform="translate(-118.7 699.56) rotate(-90)"/><circle class="cls-2" cx="290.43" cy="409.75" r="10.91"/><text class="cls-12" transform="translate(284.4 413.97) scale(.94 1)"><tspan x="0" y="0">13</tspan></text></g><g><rect class="cls-5" x="348.08" y="396.83" width="38.97" height="24.6" rx="1.83" ry="1.83" transform="translate(-41.57 776.69) rotate(-90)"/><circle class="cls-2" cx="367.56" cy="409.75" r="10.91"/><text class="cls-12" transform="translate(361.53 413.97) scale(.94 1)"><tspan x="0" y="0">11</tspan></text></g><g><rect class="cls-5" x="311.23" y="396.83" width="38.97" height="24.6" rx="1.83" ry="1.83" transform="translate(-78.42 739.84) rotate(-90)"/><circle class="cls-2" cx="330.71" cy="409.75" r="10.91"/><text class="cls-12" transform="translate(324.68 413.97) scale(.94 1)"><tspan x="0" y="0">12</tspan></text></g><g><rect class="cls-5" x="387.66" y="396.83" width="38.97" height="24.6" rx="1.83" ry="1.83" transform="translate(-1.99 816.27) rotate(-90)"/><circle class="cls-2" cx="407.14" cy="409.75" r="10.91"/><text class="cls-12" transform="translate(401.12 413.97) scale(.94 1)"><tspan x="0" y="0">10</tspan></text></g><g><rect class="cls-5" x="424.36" y="396.83" width="38.97" height="24.6" rx="1.83" ry="1.83" transform="translate(34.72 852.98) rotate(-90)"/><circle class="cls-2" cx="443.85" cy="409.75" r="10.91"/><text class="cls-12" transform="translate(437.82 413.97) scale(.94 1)"><tspan x="0" y="0">09</tspan></text></g><g><rect class="cls-5" x="463.64" y="396.83" width="38.97" height="24.6" rx="1.83" ry="1.83" transform="translate(74 892.25) rotate(-90)"/><circle class="cls-2" cx="483.13" cy="409.75" r="10.91"/><text class="cls-12" transform="translate(477.1 413.97) scale(.94 1)"><tspan x="0" y="0">08</tspan></text></g><g><rect class="cls-5" x="503.31" y="396.83" width="38.97" height="24.6" rx="1.83" ry="1.83" transform="translate(113.66 931.92) rotate(-90)"/><circle class="cls-2" cx="522.79" cy="409.75" r="10.91"/><text class="cls-12" transform="translate(516.76 413.97) scale(.94 1)"><tspan x="0" y="0">07</tspan></text></g><g><rect class="cls-5" x="577.43" y="396.83" width="38.97" height="24.6" rx="1.83" ry="1.83" transform="translate(187.78 1006.04) rotate(-90)"/><circle class="cls-2" cx="596.91" cy="409.75" r="10.91"/><text class="cls-12" transform="translate(590.88 413.97) scale(.94 1)"><tspan x="0" y="0">05</tspan></text></g><g><rect class="cls-5" x="616.82" y="396.83" width="38.97" height="24.6" rx="1.83" ry="1.83" transform="translate(227.17 1045.43) rotate(-90)"/><circle class="cls-2" cx="636.3" cy="409.75" r="10.91"/><text class="cls-12" transform="translate(630.27 413.97) scale(.94 1)"><tspan x="0" y="0">04</tspan></text></g><g><rect class="cls-5" x="654.08" y="396.83" width="38.97" height="24.6" rx="1.83" ry="1.83" transform="translate(264.44 1082.7) rotate(-90)"/><circle class="cls-2" cx="673.57" cy="409.75" r="10.91"/><text class="cls-12" transform="translate(667.54 413.97) scale(.94 1)"><tspan x="0" y="0">03</tspan></text></g><g><rect class="cls-5" x="690.3" y="396.83" width="38.97" height="24.6" rx="1.83" ry="1.83" transform="translate(300.66 1118.92) rotate(-90)"/><circle class="cls-2" cx="709.79" cy="409.75" r="10.91"/><text class="cls-12" transform="translate(703.76 413.97) scale(.94 1)"><tspan x="0" y="0">02</tspan></text></g><g><rect class="cls-5" x="729.4" y="396.83" width="38.97" height="24.6" rx="1.83" ry="1.83" transform="translate(339.76 1158.02) rotate(-90)"/><circle class="cls-2" cx="748.89" cy="409.75" r="10.91"/><text class="cls-12" transform="translate(742.86 413.97) scale(.94 1)"><tspan x="0" y="0">01</tspan></text></g><g><rect class="cls-5" x="540.58" y="396.83" width="38.97" height="24.6" rx="1.83" ry="1.83" transform="translate(150.93 969.19) rotate(-90)"/><circle class="cls-2" cx="560.06" cy="409.75" r="10.91"/><text class="cls-12" transform="translate(554.03 413.97) scale(.94 1)"><tspan x="0" y="0">06</tspan></text></g></g></svg>