<?xml version="1.0" encoding="UTF-8"?><svg id="Capa_1" xmlns="http://www.w3.org/2000/svg" viewBox="0 0 612 792"><defs><style>.cls-1{font-family:Lato-Regular, Lato;}.cls-1,.cls-2{fill:#fff;}.cls-1,.cls-3{font-size:23.89px;}.cls-4{letter-spacing:0em;}.cls-4,.cls-5,.cls-6,.cls-7,.cls-8,.cls-9,.cls-10,.cls-11,.cls-12,.cls-13,.cls-14{fill:#4d4d4d;font-family:Avenir-Medium, Avenir;}.cls-4,.cls-6,.cls-9{font-size:9.13px;}.cls-5{letter-spacing:0em;}.cls-5,.cls-10,.cls-11{font-size:9.13px;}.cls-15{fill:#0172a9;}.cls-16{fill:#999;}.cls-17{fill:#737373;}.cls-18{fill:#a6a6a6;}.cls-19{fill:#b12025;}.cls-20{fill:#10254c;}.cls-21{fill:#211d23;}.cls-22{fill:gray;}.cls-23{letter-spacing:-.06em;}.cls-6{letter-spacing:-.07em;}.cls-24{letter-spacing:0em;}.cls-25{stroke:#fff;stroke-width:.68px;}.cls-25,.cls-26,.cls-27,.cls-28,.cls-29,.cls-30,.cls-31{fill:none;stroke-miterlimit:10;}.cls-26{stroke-width:.75px;}.cls-26,.cls-27,.cls-28,.cls-29,.cls-30,.cls-31{stroke:gray;}.cls-7{font-size:8.86px;letter-spacing:0em;}.cls-3{fill:#231f20;font-family:SanDiegoLight, 'San Diego';}.cls-8{font-size:9.12px;letter-spacing:0em;}.cls-32{letter-spacing:-.02em;}.cls-33{letter-spacing:0em;}.cls-27{stroke-width:1.11px;}.cls-9{letter-spacing:-.01em;}.cls-28{stroke-width:1.93px;}.cls-29{stroke-width:1.31px;}.cls-10{letter-spacing:-.01em;}.cls-11{letter-spacing:-.01em;}.cls-12{font-size:9.13px;letter-spacing:-.01em;}.cls-13{font-size:9.13px;letter-spacing:-.01em;}.cls-14{font-size:9.13px;letter-spacing:-.01em;}.cls-30{stroke-width:1px;}.cls-31{stroke-width:.98px;}</style></defs><rect class="cls-20" x="-4.07" width="621.43" height="97.96"/><text class="cls-3" transform="translate(213.81 146.55) scale(.94 1)"><tspan x="0" y="0">SA</tspan><tspan class="cls-23" x="30.54" y="0">L</tspan><tspan x="40.48" y="0">ÓN CHIRRIPÓ</tspan></text><g><text class="cls-1" transform="translate(279.07 56.11) scale(.94 1)"><tspan x="0" y="0">PU</tspan><tspan class="cls-33" x="31.92" y="0">R</tspan><tspan class="cls-24" x="46.72" y="0">OS N</tspan><tspan class="cls-32" x="103.18" y="0">E</tspan><tspan x="116.6" y="0">GOCIOS!</tspan></text><path class="cls-2" d="M180.31,49.87c-.22-.2-.46-.37-.71-.5,.53-.22,1-.49,1.41-.82s.75-.71,1.03-1.14c.28-.43,.49-.89,.63-1.39s.21-1.04,.21-1.6c0-.74-.12-1.43-.36-2.05-.24-.63-.62-1.17-1.15-1.64-.53-.46-1.21-.82-2.04-1.08-.83-.26-1.84-.39-3.02-.39h-5.32v17.41h3.79v-6.44h.96c.29,0,.52,.05,.68,.14,.16,.1,.3,.26,.42,.48l2.72,5.05c.28,.51,.73,.76,1.37,.76h3.43l-3.48-6.06c-.17-.29-.36-.53-.58-.73Zm-1.29-4.09c-.1,.33-.27,.62-.5,.87s-.53,.44-.89,.58c-.36,.14-.8,.21-1.32,.21h-1.53v-5.16h1.53c.98,0,1.7,.21,2.17,.65,.47,.43,.7,1.03,.7,1.79,0,.38-.05,.74-.16,1.07Zm-27.87-4.89c-.54-.51-1.22-.91-2.04-1.2-.83-.29-1.82-.44-2.97-.44h-5.77v17.41h3.79v-5.82h1.98c1.13,0,2.11-.15,2.93-.44,.83-.29,1.51-.69,2.05-1.21,.54-.52,.94-1.14,1.2-1.86,.26-.73,.39-1.52,.39-2.39,0-.8-.13-1.55-.38-2.25-.25-.69-.65-1.29-1.18-1.8Zm-2.88,6.15c-.43,.5-1.15,.75-2.13,.75h-1.98v-5.52h1.98c.48,0,.89,.06,1.24,.19,.35,.13,.64,.31,.86,.54,.23,.24,.4,.52,.51,.84,.11,.33,.17,.69,.17,1.09,0,.9-.22,1.6-.65,2.1Zm16.45,2.52c0,.61-.07,1.16-.22,1.64-.15,.48-.36,.89-.63,1.22-.28,.33-.62,.59-1.02,.77-.4,.18-.85,.27-1.36,.27s-.96-.09-1.36-.27c-.4-.18-.74-.44-1.02-.78-.28-.34-.49-.75-.63-1.23s-.22-1.03-.22-1.64v-10.3h-3.79v10.31c0,1.07,.16,2.05,.48,2.94,.32,.89,.79,1.66,1.39,2.31,.61,.65,1.34,1.15,2.21,1.51,.87,.36,1.85,.54,2.94,.54s2.06-.18,2.93-.54c.87-.36,1.6-.86,2.21-1.51,.61-.65,1.07-1.41,1.4-2.31,.33-.89,.49-1.87,.49-2.94v-10.31h-3.79v10.31Zm-28.71,.35h-2.36c-.13,.74-.24,1.47-.33,2.2-.08,.72-.12,1.45-.12,2.19v6.3h3.25v-6.3c0-.73-.04-1.46-.12-2.19-.08-.72-.19-1.46-.33-2.2Zm.19-5.25c-.18-.18-.39-.33-.63-.43-.24-.1-.5-.16-.77-.16s-.55,.05-.79,.16c-.24,.1-.45,.25-.62,.43-.18,.18-.31,.4-.42,.65s-.15,.52-.15,.81,.05,.55,.15,.8c.1,.25,.24,.46,.42,.65s.38,.33,.62,.44c.24,.11,.5,.16,.79,.16s.53-.05,.77-.16c.24-.11,.45-.25,.63-.44s.32-.4,.42-.65c.1-.25,.15-.51,.15-.8s-.05-.56-.15-.81-.24-.47-.42-.65Zm87.46,12h3.82v-17.41h-3.82v17.41Zm42.07-3.32c-.18-.18-.39-.33-.63-.44-.24-.11-.5-.16-.77-.16s-.55,.05-.79,.16-.45,.25-.62,.44-.31,.4-.42,.65c-.1,.25-.15,.51-.15,.8s.05,.56,.15,.81,.24,.47,.42,.65,.38,.33,.62,.43c.24,.1,.5,.16,.79,.16s.53-.05,.77-.16c.24-.1,.45-.25,.63-.43s.32-.4,.42-.65,.15-.52,.15-.81-.05-.55-.15-.8c-.1-.25-.24-.46-.42-.65Zm5.3,0c-.18-.18-.39-.33-.63-.44-.24-.11-.5-.16-.77-.16s-.55,.05-.79,.16-.45,.25-.62,.44-.31,.4-.42,.65c-.1,.25-.15,.51-.15,.8s.05,.56,.15,.81,.24,.47,.42,.65,.38,.33,.62,.43c.24,.1,.5,.16,.79,.16s.53-.05,.77-.16c.24-.1,.45-.25,.63-.43s.32-.4,.42-.65,.15-.52,.15-.81-.05-.55-.15-.8c-.1-.25-.24-.46-.42-.65Zm5.72,.65c-.1-.25-.24-.46-.42-.65s-.39-.33-.63-.44c-.24-.11-.5-.16-.77-.16s-.55,.05-.79,.16-.45,.25-.62,.44-.31,.4-.42,.65c-.1,.25-.15,.51-.15,.8s.05,.56,.15,.81,.24,.47,.42,.65,.38,.33,.62,.43c.24,.1,.5,.16,.79,.16s.53-.05,.77-.16c.24-.1,.45-.25,.63-.43s.32-.4,.42-.65,.15-.52,.15-.81-.05-.55-.15-.8Zm-85.83-14.73l-6.33,17.41h2.96c.31,0,.58-.09,.8-.27,.22-.18,.36-.38,.44-.6l.96-3.03h6.22l.97,3.03c.08,.25,.23,.46,.44,.63,.21,.16,.48,.25,.81,.25h2.94l-6.33-17.41h-3.88Zm-.29,10.75l1.5-4.74c.11-.3,.23-.66,.36-1.08,.13-.41,.25-.86,.37-1.35,.13,.48,.26,.92,.39,1.33s.25,.77,.34,1.07l1.5,4.77h-4.47Zm27.48-10.48c-.22,.18-.36,.38-.44,.6l-3.14,9.32c-.13,.41-.27,.85-.41,1.33-.14,.48-.26,.98-.36,1.51-.13-.53-.26-1.03-.41-1.51-.15-.48-.29-.92-.43-1.33l-3.16-9.32c-.09-.26-.24-.47-.45-.63-.21-.16-.48-.24-.81-.24h-3.05l6.55,17.41h3.43l6.55-17.41h-3.08c-.31,0-.58,.09-.8,.27Zm33.39-.27l-6.33,17.41h2.96c.31,0,.58-.09,.8-.27,.22-.18,.36-.38,.44-.6l.96-3.03h6.22l.97,3.03c.08,.25,.23,.46,.44,.63,.21,.16,.48,.25,.81,.25h2.94l-6.33-17.41h-3.88Zm-.29,10.75l1.5-4.74c.11-.3,.23-.66,.36-1.08,.13-.41,.25-.86,.37-1.35,.13,.48,.26,.92,.39,1.33s.25,.77,.34,1.07l1.5,4.77h-4.47Zm-6.47-5.53c-.41-1.06-.98-1.98-1.72-2.75s-1.63-1.38-2.68-1.82c-1.04-.44-2.2-.66-3.47-.66h-6.35v17.41h6.35c1.27,0,2.43-.22,3.47-.65,1.04-.43,1.94-1.04,2.68-1.82,.74-.78,1.31-1.7,1.72-2.76,.41-1.06,.61-2.22,.61-3.48s-.2-2.41-.61-3.47Zm-3.59,5.81c-.21,.69-.51,1.28-.9,1.76-.39,.48-.87,.85-1.44,1.11-.57,.26-1.22,.39-1.94,.39h-2.54v-11.19h2.54c.73,0,1.37,.13,1.94,.39,.57,.26,1.05,.63,1.44,1.11,.39,.48,.69,1.07,.9,1.76,.21,.69,.31,1.47,.31,2.33s-.1,1.65-.31,2.34Z"/></g><g><g><rect class="cls-18" x="463.84" y="454.19" width="30.42" height="18.14" rx="1.39" ry="1.39"/><circle class="cls-2" cx="478.59" cy="463.25" r="8.05"/><text class="cls-14" transform="translate(473.58 466.04) scale(.94 1)"><tspan x="0" y="0">02</tspan></text></g><g><rect class="cls-18" x="463.61" y="480.35" width="30.42" height="18.14" rx="1.39" ry="1.39"/><circle class="cls-2" cx="478.36" cy="489.42" r="8.05"/><text class="cls-14" transform="translate(473.64 492.71) scale(.94 1)"><tspan x="0" y="0">01</tspan></text></g><g><rect class="cls-18" x="362.18" y="545.94" width="30.42" height="18.14" rx="1.39" ry="1.39"/><circle class="cls-2" cx="376.94" cy="555.01" r="8.05"/><text class="cls-9" transform="translate(372.21 558.29) scale(.94 1)"><tspan x="0" y="0">92</tspan></text></g><g><rect class="cls-18" x="362.18" y="570.62" width="30.42" height="18.14" rx="1.39" ry="1.39"/><circle class="cls-2" cx="376.94" cy="579.69" r="8.05"/><text class="cls-9" transform="translate(372.21 582.97) scale(.94 1)"><tspan x="0" y="0">93</tspan></text></g><g><rect class="cls-18" x="327.7" y="545.94" width="30.42" height="18.14" rx="1.39" ry="1.39"/><circle class="cls-2" cx="342.45" cy="555.01" r="8.05"/><text class="cls-9" transform="translate(337.73 558.29) scale(.94 1)"><tspan x="0" y="0">91</tspan></text></g><g><rect class="cls-18" x="327.7" y="570.62" width="30.42" height="18.14" rx="1.39" ry="1.39"/><circle class="cls-2" cx="342.45" cy="579.69" r="8.05"/><text class="cls-9" transform="translate(337.73 582.97) scale(.94 1)"><tspan x="0" y="0">94</tspan></text></g><g><rect class="cls-18" x="293.21" y="545.94" width="30.42" height="18.14" rx="1.39" ry="1.39"/><circle class="cls-2" cx="307.97" cy="555.01" r="8.05"/><text class="cls-9" transform="translate(303.25 558.29) scale(.94 1)"><tspan x="0" y="0">90</tspan></text></g><g><rect class="cls-18" x="293.21" y="570.62" width="30.42" height="18.14" rx="1.39" ry="1.39"/><circle class="cls-2" cx="307.97" cy="579.69" r="8.05"/><text class="cls-9" transform="translate(303.25 582.97) scale(.94 1)"><tspan x="0" y="0">95</tspan></text></g><g><rect class="cls-18" x="258.73" y="545.94" width="30.42" height="18.14" rx="1.39" ry="1.39"/><circle class="cls-2" cx="273.49" cy="555.01" r="8.05"/><text class="cls-4" transform="translate(268.76 558.29) scale(.94 1)"><tspan x="0" y="0">89</tspan></text></g><g><rect class="cls-18" x="258.73" y="570.62" width="30.42" height="18.14" rx="1.39" ry="1.39"/><circle class="cls-2" cx="273.49" cy="579.69" r="8.05"/><text class="cls-4" transform="translate(268.76 582.97) scale(.94 1)"><tspan x="0" y="0">96</tspan></text></g><g><rect class="cls-18" x="224.25" y="545.94" width="30.42" height="18.14" rx="1.39" ry="1.39"/><circle class="cls-2" cx="239" cy="555.01" r="8.05"/><text class="cls-4" transform="translate(234.28 558.29) scale(.94 1)"><tspan x="0" y="0">88</tspan></text></g><g><rect class="cls-18" x="224.25" y="570.62" width="30.42" height="18.14" rx="1.39" ry="1.39"/><circle class="cls-2" cx="239" cy="579.69" r="8.05"/><text class="cls-4" transform="translate(234.28 582.97) scale(.94 1)"><tspan x="0" y="0">97</tspan></text></g><g><rect class="cls-18" x="189.76" y="545.94" width="30.42" height="18.14" rx="1.39" ry="1.39"/><circle class="cls-2" cx="204.52" cy="555.01" r="8.05"/><text class="cls-4" transform="translate(199.79 558.29) scale(.94 1)"><tspan x="0" y="0">87</tspan></text></g><g><rect class="cls-18" x="189.76" y="570.62" width="30.42" height="18.14" rx="1.39" ry="1.39"/><circle class="cls-2" cx="204.52" cy="579.69" r="8.05"/><text class="cls-4" transform="translate(199.79 582.97) scale(.94 1)"><tspan x="0" y="0">98</tspan></text></g><g><rect class="cls-18" x="463.9" y="428.02" width="30.42" height="18.14" rx="1.39" ry="1.39"/><circle class="cls-2" cx="478.66" cy="437.09" r="8.05"/><text class="cls-10" transform="translate(473.56 440.23) scale(.94 1)"><tspan x="0" y="0">03</tspan></text></g><g><rect class="cls-18" x="463.97" y="401.85" width="30.42" height="18.14" rx="1.39" ry="1.39"/><circle class="cls-2" cx="478.72" cy="410.92" r="8.05"/><text class="cls-14" transform="translate(473.84 413.7) scale(.94 1)"><tspan x="0" y="0">04</tspan></text></g><g><rect class="cls-18" x="464.03" y="375.68" width="30.42" height="18.14" rx="1.39" ry="1.39"/><circle class="cls-2" cx="478.79" cy="384.75" r="8.05"/><text class="cls-10" transform="translate(473.82 388.2) scale(.94 1)"><tspan x="0" y="0">05</tspan></text></g><g><path class="cls-18" d="M493.13,367.65h-27.64c-.77,0-1.39-.62-1.39-1.39v-15.36c0-.77,.62-1.39,1.39-1.39h27.64c.77,0,1.39,.62,.88,1.9v15.36c.51,.26-.11,.88-.88,.88Z"/><circle class="cls-2" cx="478.85" cy="358.58" r="8.05"/><text class="cls-14" transform="translate(474.13 361.37) scale(.94 1)"><tspan x="0" y="0">06</tspan></text></g><g><rect class="cls-18" x="463.66" y="323.85" width="30.42" height="18.14" rx="1.39" ry="1.39"/><circle class="cls-2" cx="478.92" cy="332.41" r="8.05"/><text class="cls-13" transform="translate(474.2 335.85) scale(.94 1)"><tspan x="0" y="0">07</tspan></text></g><g><rect class="cls-18" x="142.56" y="454.19" width="30.42" height="18.14" rx="1.39" ry="1.39"/><circle class="cls-2" cx="157.31" cy="463.25" r="8.05"/><text class="cls-4" transform="translate(152.3 466.04) scale(.94 1)"><tspan x="0" y="0">85</tspan></text></g><g><rect class="cls-18" x="142.33" y="480.35" width="30.42" height="18.14" rx="1.39" ry="1.39"/><circle class="cls-2" cx="157.08" cy="489.42" r="8.05"/><text class="cls-4" transform="translate(152.36 492.71) scale(.94 1)"><tspan x="0" y="0">86</tspan></text></g><g><rect class="cls-18" x="59.14" y="625.08" width="30.42" height="18.14" rx="1.39" ry="1.39"/><circle class="cls-2" cx="73.89" cy="634.15" r="8.05"/><text class="cls-6" transform="translate(67.38 637.44) scale(.94 1)"><tspan x="0" y="0">112</tspan></text></g><g><rect class="cls-18" x="90.91" y="625.08" width="30.42" height="18.14" rx="1.39" ry="1.39"/><circle class="cls-2" cx="105.67" cy="634.15" r="8.05"/><text class="cls-6" transform="translate(99.16 637.44) scale(.94 1)"><tspan x="0" y="0">105</tspan></text></g><g><rect class="cls-18" x="123.69" y="625.08" width="30.42" height="18.14" rx="1.39" ry="1.39"/><circle class="cls-2" cx="138.44" cy="634.15" r="8.05"/><text class="cls-6" transform="translate(131.94 637.44) scale(.94 1)"><tspan x="0" y="0">104</tspan></text></g><g><rect class="cls-18" x="59.14" y="656.44" width="30.42" height="18.14" rx="1.39" ry="1.39"/><circle class="cls-2" cx="73.89" cy="665.51" r="8.05"/><text class="cls-6" transform="translate(67.38 668.8) scale(.94 1)"><tspan x="0" y="0">111</tspan></text></g><g><rect class="cls-18" x="90.91" y="656.44" width="30.42" height="18.14" rx="1.39" ry="1.39"/><circle class="cls-2" cx="105.67" cy="665.51" r="8.05"/><text class="cls-6" transform="translate(99.16 668.8) scale(.94 1)"><tspan x="0" y="0">106</tspan></text></g><g><rect class="cls-18" x="123.69" y="656.44" width="30.42" height="18.14" rx="1.39" ry="1.39"/><circle class="cls-2" cx="138.44" cy="665.51" r="8.05"/><text class="cls-6" transform="translate(131.94 668.8) scale(.94 1)"><tspan x="0" y="0">103</tspan></text></g><g><rect class="cls-18" x="59.14" y="687.8" width="30.42" height="18.14" rx="1.39" ry="1.39"/><circle class="cls-2" cx="73.89" cy="696.87" r="8.05"/><text class="cls-6" transform="translate(67.38 700.16) scale(.94 1)"><tspan x="0" y="0">110</tspan></text></g><g><rect class="cls-18" x="90.91" y="687.8" width="30.42" height="18.14" rx="1.39" ry="1.39"/><circle class="cls-2" cx="105.67" cy="696.87" r="8.05"/><text class="cls-6" transform="translate(99.16 700.16) scale(.94 1)"><tspan x="0" y="0">107</tspan></text></g><g><rect class="cls-18" x="123.69" y="687.8" width="30.42" height="18.14" rx="1.39" ry="1.39"/><circle class="cls-2" cx="138.44" cy="696.87" r="8.05"/><text class="cls-6" transform="translate(131.94 700.16) scale(.94 1)"><tspan x="0" y="0">102</tspan></text></g><g><rect class="cls-18" x="155.89" y="688.06" width="29.54" height="17.61" rx="1.35" ry="1.35"/><circle class="cls-2" cx="170.22" cy="696.87" r="7.81"/><text class="cls-7" transform="translate(165.63 700.06) scale(.94 1)"><tspan x="0" y="0">99</tspan></text></g><g><rect class="cls-18" x="59.14" y="719.16" width="30.42" height="18.14" rx="1.39" ry="1.39"/><circle class="cls-2" cx="73.89" cy="728.23" r="8.05"/><text class="cls-6" transform="translate(67.38 731.52) scale(.94 1)"><tspan x="0" y="0">109</tspan></text></g><g><rect class="cls-18" x="90.91" y="719.16" width="30.42" height="18.14" rx="1.39" ry="1.39"/><circle class="cls-2" cx="105.67" cy="728.23" r="8.05"/><text class="cls-6" transform="translate(99.16 731.51) scale(.94 1)"><tspan x="0" y="0">108</tspan></text></g><g><rect class="cls-18" x="123.69" y="719.16" width="30.42" height="18.14" rx="1.39" ry="1.39"/><circle class="cls-2" cx="138.44" cy="728.23" r="8.05"/><text class="cls-6" transform="translate(131.94 731.52) scale(.94 1)"><tspan x="0" y="0">101</tspan></text></g><g><rect class="cls-18" x="155.45" y="719.16" width="30.42" height="18.14" rx="1.39" ry="1.39"/><circle class="cls-2" cx="170.21" cy="728.23" r="8.05"/><text class="cls-6" transform="translate(163.7 731.51) scale(.94 1)"><tspan x="0" y="0">100</tspan></text></g><g><rect class="cls-18" x="142.62" y="428.02" width="30.42" height="18.14" rx="1.39" ry="1.39"/><circle class="cls-2" cx="157.38" cy="437.09" r="8.05"/><text class="cls-4" transform="translate(152.28 440.23) scale(.94 1)"><tspan x="0" y="0">84</tspan></text></g><g><rect class="cls-18" x="142.69" y="401.85" width="30.42" height="18.14" rx="1.39" ry="1.39"/><circle class="cls-2" cx="157.44" cy="410.92" r="8.05"/><text class="cls-4" transform="translate(152.55 413.7) scale(.94 1)"><tspan x="0" y="0">83</tspan></text></g><g><rect class="cls-18" x="142.75" y="375.68" width="30.42" height="18.14" rx="1.39" ry="1.39"/><circle class="cls-2" cx="157.51" cy="384.75" r="8.05"/><text class="cls-4" transform="translate(152.54 388.2) scale(.94 1)"><tspan x="0" y="0">82</tspan></text></g><g><rect class="cls-18" x="142.82" y="349.51" width="30.42" height="18.14" rx="1.39" ry="1.39"/><circle class="cls-2" cx="157.57" cy="358.58" r="8.05"/><text class="cls-4" transform="translate(152.85 361.37) scale(.94 1)"><tspan x="0" y="0">81</tspan></text></g><g><rect class="cls-18" x="142.88" y="323.34" width="30.42" height="18.14" rx="1.39" ry="1.39"/><circle class="cls-2" cx="157.64" cy="332.41" r="8.05"/><text class="cls-4" transform="translate(152.91 335.85) scale(.94 1)"><tspan x="0" y="0">80</tspan></text></g><g><rect class="cls-18" x="431.47" y="454.19" width="30.42" height="18.14" rx="1.39" ry="1.39"/><circle class="cls-2" cx="446.22" cy="463.25" r="8.05"/><text class="cls-10" transform="translate(441.21 466.04) scale(.94 1)"><tspan x="0" y="0">15</tspan></text></g><g><rect class="cls-18" x="431.47" y="480.35" width="30.42" height="18.14" rx="1.39" ry="1.39"/><circle class="cls-2" cx="446.22" cy="489.42" r="8.05"/><text class="cls-14" transform="translate(441.5 492.71) scale(.94 1)"><tspan x="0" y="0">16</tspan></text></g><g><rect class="cls-18" x="431.47" y="428.02" width="30.42" height="18.14" rx="1.39" ry="1.39"/><circle class="cls-2" cx="446.22" cy="437.09" r="8.05"/><text class="cls-10" transform="translate(441.13 440.23) scale(.94 1)"><tspan x="0" y="0">14</tspan></text></g><g><rect class="cls-18" x="431.47" y="401.85" width="30.42" height="18.14" rx="1.39" ry="1.39"/><circle class="cls-2" cx="446.22" cy="410.92" r="8.05"/><text class="cls-10" transform="translate(441.34 413.7) scale(.94 1)"><tspan x="0" y="0">13</tspan></text></g><g><rect class="cls-18" x="431.47" y="375.68" width="30.42" height="18.14" rx="1.39" ry="1.39"/><circle class="cls-2" cx="446.22" cy="384.75" r="8.05"/><text class="cls-10" transform="translate(441.25 388.2) scale(.94 1)"><tspan x="0" y="0">12</tspan></text></g><g><rect class="cls-18" x="431.47" y="349.51" width="30.42" height="18.14" rx="1.39" ry="1.39"/><circle class="cls-2" cx="446.22" cy="358.58" r="8.05"/><text class="cls-10" transform="translate(441.5 361.37) scale(.94 1)"><tspan x="0" y="0">11</tspan></text></g><g><rect class="cls-18" x="431.47" y="323.34" width="30.42" height="18.14" rx="1.39" ry="1.39"/><circle class="cls-2" cx="446.22" cy="332.41" r="8.05"/><text class="cls-10" transform="translate(441.5 335.85) scale(.94 1)"><tspan x="0" y="0">10</tspan></text></g><g><rect class="cls-18" x="431.47" y="296.94" width="30.42" height="18.14" rx="1.39" ry="1.39"/><circle class="cls-2" cx="446.22" cy="306.01" r="8.05"/><text class="cls-10" transform="translate(441.5 309.45) scale(.94 1)"><tspan x="0" y="0">09</tspan></text></g><g><rect class="cls-18" x="431.47" y="270.74" width="30.42" height="18.14" rx="1.39" ry="1.39"/><circle class="cls-2" cx="446.22" cy="279.81" r="8.05"/><text class="cls-10" transform="translate(441.5 283.25) scale(.94 1)"><tspan x="0" y="0">08</tspan></text></g><g><rect class="cls-18" x="398.96" y="454.19" width="30.42" height="18.14" rx="1.39" ry="1.39"/><circle class="cls-2" cx="413.72" cy="463.25" r="8.05"/><text class="cls-10" transform="translate(408.71 466.04) scale(.94 1)"><tspan x="0" y="0">18</tspan></text></g><g><rect class="cls-18" x="398.96" y="480.35" width="30.42" height="18.14" rx="1.39" ry="1.39"/><circle class="cls-2" cx="413.72" cy="489.42" r="8.05"/><text class="cls-12" transform="translate(409 492.71) scale(.94 1)"><tspan x="0" y="0">17</tspan></text></g><g><rect class="cls-18" x="398.96" y="428.02" width="30.42" height="18.14" rx="1.39" ry="1.39"/><circle class="cls-2" cx="413.72" cy="437.09" r="8.05"/><text class="cls-10" transform="translate(408.62 440.23) scale(.94 1)"><tspan x="0" y="0">19</tspan></text></g><g><rect class="cls-18" x="398.96" y="401.85" width="30.42" height="18.14" rx="1.39" ry="1.39"/><circle class="cls-2" cx="413.72" cy="410.92" r="8.05"/><text class="cls-10" transform="translate(408.83 413.7) scale(.94 1)"><tspan x="0" y="0">20</tspan></text></g><g><rect class="cls-18" x="398.96" y="375.68" width="30.42" height="18.14" rx="1.39" ry="1.39"/><circle class="cls-2" cx="413.72" cy="384.75" r="8.05"/><text class="cls-10" transform="translate(408.75 388.2) scale(.94 1)"><tspan x="0" y="0">21</tspan></text></g><g><rect class="cls-18" x="398.96" y="349.51" width="30.42" height="18.14" rx="1.39" ry="1.39"/><circle class="cls-2" cx="413.72" cy="358.58" r="8.05"/><text class="cls-10" transform="translate(409 361.37) scale(.94 1)"><tspan x="0" y="0">22</tspan></text></g><g><rect class="cls-18" x="398.96" y="323.34" width="30.42" height="18.14" rx="1.39" ry="1.39"/><circle class="cls-2" cx="413.72" cy="332.41" r="8.05"/><text class="cls-10" transform="translate(409 335.85) scale(.94 1)"><tspan x="0" y="0">23</tspan></text></g><g><rect class="cls-18" x="398.96" y="296.94" width="30.42" height="18.14" rx="1.39" ry="1.39"/><circle class="cls-2" cx="413.72" cy="306.01" r="8.05"/><text class="cls-10" transform="translate(409 309.45) scale(.94 1)"><tspan x="0" y="0">24</tspan></text></g><g><rect class="cls-18" x="398.96" y="270.74" width="30.42" height="18.14" rx="1.39" ry="1.39"/><circle class="cls-2" cx="413.72" cy="279.81" r="8.05"/><text class="cls-10" transform="translate(409 283.25) scale(.94 1)"><tspan x="0" y="0">25</tspan></text></g><g><rect class="cls-18" x="366.46" y="454.19" width="30.42" height="18.14" rx="1.39" ry="1.39"/><circle class="cls-2" cx="381.22" cy="463.25" r="8.05"/><text class="cls-10" transform="translate(376.2 466.04) scale(.94 1)"><tspan x="0" y="0">33</tspan></text></g><g><rect class="cls-18" x="366.46" y="480.35" width="30.42" height="18.14" rx="1.39" ry="1.39"/><circle class="cls-2" cx="381.22" cy="489.42" r="8.05"/><text class="cls-12" transform="translate(376.49 492.71) scale(.94 1)"><tspan x="0" y="0">34</tspan></text></g><g><rect class="cls-18" x="366.46" y="428.02" width="30.42" height="18.14" rx="1.39" ry="1.39"/><circle class="cls-2" cx="381.22" cy="437.09" r="8.05"/><text class="cls-10" transform="translate(376.12 440.23) scale(.94 1)"><tspan x="0" y="0">32</tspan></text></g><g><rect class="cls-18" x="366.46" y="401.85" width="30.42" height="18.14" rx="1.39" ry="1.39"/><circle class="cls-2" cx="381.22" cy="410.92" r="8.05"/><text class="cls-10" transform="translate(376.33 413.7) scale(.94 1)"><tspan x="0" y="0">31</tspan></text></g><g><rect class="cls-18" x="366.46" y="375.68" width="30.42" height="18.14" rx="1.39" ry="1.39"/><circle class="cls-2" cx="381.22" cy="384.75" r="8.05"/><text class="cls-10" transform="translate(376.25 388.2) scale(.94 1)"><tspan x="0" y="0">30</tspan></text></g><g><rect class="cls-18" x="366.46" y="349.51" width="30.42" height="18.14" rx="1.39" ry="1.39"/><circle class="cls-2" cx="381.22" cy="358.58" r="8.05"/><text class="cls-10" transform="translate(376.49 361.37) scale(.94 1)"><tspan x="0" y="0">29</tspan></text></g><g><rect class="cls-18" x="366.46" y="323.34" width="30.42" height="18.14" rx="1.39" ry="1.39"/><circle class="cls-2" cx="381.22" cy="332.41" r="8.05"/><text class="cls-10" transform="translate(376.49 335.85) scale(.94 1)"><tspan x="0" y="0">28</tspan></text></g><g><rect class="cls-18" x="366.46" y="296.94" width="30.42" height="18.14" rx="1.39" ry="1.39"/><circle class="cls-2" cx="381.22" cy="306.01" r="8.05"/><text class="cls-10" transform="translate(376.49 309.45) scale(.94 1)"><tspan x="0" y="0">27</tspan></text></g><g><rect class="cls-18" x="366.46" y="270.74" width="30.42" height="18.14" rx="1.39" ry="1.39"/><circle class="cls-2" cx="381.22" cy="279.81" r="8.05"/><text class="cls-11" transform="translate(376.49 283.25) scale(.94 1)"><tspan x="0" y="0">26</tspan></text></g><g><rect class="cls-18" x="333.96" y="454.19" width="30.42" height="18.14" rx="1.39" ry="1.39"/><circle class="cls-2" cx="348.71" cy="463.25" r="8.05"/><text class="cls-9" transform="translate(343.7 466.04) scale(.94 1)"><tspan x="0" y="0">36</tspan></text></g><g><rect class="cls-18" x="333.96" y="480.35" width="30.42" height="18.14" rx="1.39" ry="1.39"/><circle class="cls-2" cx="348.71" cy="489.42" r="8.05"/><text class="cls-9" transform="translate(343.99 492.71) scale(.94 1)"><tspan x="0" y="0">35</tspan></text></g><g><rect class="cls-18" x="333.96" y="428.02" width="30.42" height="18.14" rx="1.39" ry="1.39"/><circle class="cls-2" cx="348.71" cy="437.09" r="8.05"/><text class="cls-9" transform="translate(343.61 440.23) scale(.94 1)"><tspan x="0" y="0">37</tspan></text></g><g><rect class="cls-18" x="333.96" y="401.85" width="30.42" height="18.14" rx="1.39" ry="1.39"/><circle class="cls-2" cx="348.71" cy="410.92" r="8.05"/><text class="cls-9" transform="translate(343.82 413.7) scale(.94 1)"><tspan x="0" y="0">38</tspan></text></g><g><rect class="cls-18" x="333.96" y="375.68" width="30.42" height="18.14" rx="1.39" ry="1.39"/><circle class="cls-2" cx="348.71" cy="384.75" r="8.05"/><text class="cls-9" transform="translate(343.74 388.2) scale(.94 1)"><tspan x="0" y="0">39</tspan></text></g><g><rect class="cls-18" x="333.96" y="349.51" width="30.42" height="18.14" rx="1.39" ry="1.39"/><circle class="cls-2" cx="348.71" cy="358.58" r="8.05"/><text class="cls-9" transform="translate(343.99 361.37) scale(.94 1)"><tspan x="0" y="0">40</tspan></text></g><g><rect class="cls-18" x="333.96" y="323.34" width="30.42" height="18.14" rx="1.39" ry="1.39"/><circle class="cls-2" cx="348.71" cy="332.41" r="8.05"/><text class="cls-9" transform="translate(343.99 335.85) scale(.94 1)"><tspan x="0" y="0">41</tspan></text></g><g><rect class="cls-18" x="333.96" y="296.94" width="30.42" height="18.14" rx="1.39" ry="1.39"/><circle class="cls-2" cx="348.71" cy="306.01" r="8.05"/><text class="cls-9" transform="translate(343.99 309.45) scale(.94 1)"><tspan x="0" y="0">42</tspan></text></g><g><rect class="cls-18" x="333.96" y="270.74" width="30.42" height="18.14" rx="1.39" ry="1.39"/><circle class="cls-2" cx="348.71" cy="279.81" r="8.05"/><text class="cls-9" transform="translate(343.99 283.25) scale(.94 1)"><tspan x="0" y="0">43</tspan></text></g><g><rect class="cls-18" x="272.36" y="454.19" width="30.42" height="18.14" rx="1.39" ry="1.39"/><circle class="cls-2" cx="287.12" cy="463.25" r="8.05"/><text class="cls-5" transform="translate(282.1 466.04) scale(.94 1)"><tspan x="0" y="0">51</tspan></text></g><g><rect class="cls-18" x="272.36" y="480.35" width="30.42" height="18.14" rx="1.39" ry="1.39"/><circle class="cls-2" cx="287.12" cy="489.42" r="8.05"/><text class="cls-5" transform="translate(282.39 492.71) scale(.94 1)"><tspan x="0" y="0">52</tspan></text></g><g><rect class="cls-18" x="272.36" y="428.02" width="30.42" height="18.14" rx="1.39" ry="1.39"/><circle class="cls-2" cx="287.12" cy="437.09" r="8.05"/><text class="cls-5" transform="translate(282.02 440.23) scale(.94 1)"><tspan x="0" y="0">50</tspan></text></g><g><rect class="cls-18" x="272.36" y="401.85" width="30.42" height="18.14" rx="1.39" ry="1.39"/><circle class="cls-2" cx="287.12" cy="410.92" r="8.05"/><text class="cls-5" transform="translate(282.23 413.7) scale(.94 1)"><tspan x="0" y="0">49</tspan></text></g><g><rect class="cls-18" x="272.36" y="375.68" width="30.42" height="18.14" rx="1.39" ry="1.39"/><circle class="cls-2" cx="287.12" cy="384.75" r="8.05"/><text class="cls-5" transform="translate(282.15 388.2) scale(.94 1)"><tspan x="0" y="0">48</tspan></text></g><g><rect class="cls-18" x="272.36" y="349.51" width="30.42" height="18.14" rx="1.39" ry="1.39"/><circle class="cls-2" cx="287.12" cy="358.58" r="8.05"/><text class="cls-5" transform="translate(282.39 361.37) scale(.94 1)"><tspan x="0" y="0">47</tspan></text></g><g><rect class="cls-18" x="272.36" y="323.34" width="30.42" height="18.14" rx="1.39" ry="1.39"/><circle class="cls-2" cx="287.12" cy="332.41" r="8.05"/><text class="cls-5" transform="translate(282.39 335.85) scale(.94 1)"><tspan x="0" y="0">46</tspan></text></g><g><rect class="cls-18" x="272.36" y="296.94" width="30.42" height="18.14" rx="1.39" ry="1.39"/><circle class="cls-2" cx="287.12" cy="306.01" r="8.05"/><text class="cls-5" transform="translate(282.39 309.45) scale(.94 1)"><tspan x="0" y="0">45</tspan></text></g><g><rect class="cls-18" x="272.36" y="270.74" width="30.42" height="18.14" rx="1.39" ry="1.39"/><circle class="cls-2" cx="287.12" cy="279.81" r="8.05"/><text class="cls-4" transform="translate(282.4 283.25) scale(.94 1)"><tspan x="0" y="0">44</tspan></text></g><g><rect class="cls-18" x="239.86" y="454.19" width="30.42" height="18.14" rx="1.39" ry="1.39"/><circle class="cls-2" cx="254.61" cy="463.25" r="8.05"/><text class="cls-4" transform="translate(249.6 466.04) scale(.94 1)"><tspan x="0" y="0">54</tspan></text></g><g><rect class="cls-18" x="239.86" y="480.35" width="30.42" height="18.14" rx="1.39" ry="1.39"/><circle class="cls-2" cx="254.61" cy="489.42" r="8.05"/><text class="cls-4" transform="translate(249.89 492.71) scale(.94 1)"><tspan x="0" y="0">53</tspan></text></g><g><rect class="cls-18" x="239.86" y="428.02" width="30.42" height="18.14" rx="1.39" ry="1.39"/><circle class="cls-2" cx="254.61" cy="437.09" r="8.05"/><text class="cls-4" transform="translate(249.52 440.23) scale(.94 1)"><tspan x="0" y="0">55</tspan></text></g><g><rect class="cls-18" x="239.86" y="401.85" width="30.42" height="18.14" rx="1.39" ry="1.39"/><circle class="cls-2" cx="254.61" cy="410.92" r="8.05"/><text class="cls-4" transform="translate(249.72 413.7) scale(.94 1)"><tspan x="0" y="0">56</tspan></text></g><g><rect class="cls-18" x="239.86" y="375.68" width="30.42" height="18.14" rx="1.39" ry="1.39"/><circle class="cls-2" cx="254.61" cy="384.75" r="8.05"/><text class="cls-4" transform="translate(249.64 388.2) scale(.94 1)"><tspan x="0" y="0">57</tspan></text></g><g><rect class="cls-18" x="239.86" y="349.51" width="30.42" height="18.14" rx="1.39" ry="1.39"/><circle class="cls-2" cx="254.61" cy="358.58" r="8.05"/><text class="cls-4" transform="translate(249.89 361.37) scale(.94 1)"><tspan x="0" y="0">58</tspan></text></g><g><rect class="cls-18" x="239.86" y="323.34" width="30.42" height="18.14" rx="1.39" ry="1.39"/><circle class="cls-2" cx="254.61" cy="332.41" r="8.05"/><text class="cls-4" transform="translate(249.89 335.85) scale(.94 1)"><tspan x="0" y="0">59</tspan></text></g><g><rect class="cls-18" x="239.86" y="296.94" width="30.42" height="18.14" rx="1.39" ry="1.39"/><circle class="cls-2" cx="254.61" cy="306.01" r="8.05"/><text class="cls-4" transform="translate(249.89 309.45) scale(.94 1)"><tspan x="0" y="0">60</tspan></text></g><g><rect class="cls-18" x="239.86" y="270.74" width="30.42" height="18.14" rx="1.39" ry="1.39"/><circle class="cls-2" cx="254.61" cy="279.81" r="8.05"/><text class="cls-4" transform="translate(249.89 283.25) scale(.94 1)"><tspan x="0" y="0">61</tspan></text></g><g><rect class="cls-18" x="207.35" y="454.19" width="30.42" height="18.14" rx="1.39" ry="1.39"/><circle class="cls-2" cx="222.11" cy="463.25" r="8.05"/><text class="cls-4" transform="translate(217.09 466.04) scale(.94 1)"><tspan x="0" y="0">69</tspan></text></g><g><rect class="cls-18" x="207.35" y="480.35" width="30.42" height="18.14" rx="1.39" ry="1.39"/><circle class="cls-2" cx="222.11" cy="489.42" r="8.05"/><text class="cls-4" transform="translate(217.38 492.71) scale(.94 1)"><tspan x="0" y="0">70</tspan></text></g><g><rect class="cls-18" x="207.35" y="428.02" width="30.42" height="18.14" rx="1.39" ry="1.39"/><circle class="cls-2" cx="222.11" cy="437.09" r="8.05"/><text class="cls-4" transform="translate(217.01 440.23) scale(.94 1)"><tspan x="0" y="0">68</tspan></text></g><g><rect class="cls-18" x="207.35" y="401.85" width="30.42" height="18.14" rx="1.39" ry="1.39"/><circle class="cls-2" cx="222.11" cy="410.92" r="8.05"/><text class="cls-4" transform="translate(217.22 413.7) scale(.94 1)"><tspan x="0" y="0">67</tspan></text></g><g><rect class="cls-18" x="207.35" y="375.68" width="30.42" height="18.14" rx="1.39" ry="1.39"/><circle class="cls-2" cx="222.11" cy="384.75" r="8.05"/><text class="cls-4" transform="translate(217.14 388.2) scale(.94 1)"><tspan x="0" y="0">66</tspan></text></g><g><rect class="cls-18" x="207.35" y="349.51" width="30.42" height="18.14" rx="1.39" ry="1.39"/><circle class="cls-2" cx="222.11" cy="358.58" r="8.05"/><text class="cls-4" transform="translate(217.38 361.37) scale(.94 1)"><tspan x="0" y="0">65</tspan></text></g><g><rect class="cls-18" x="207.35" y="323.34" width="30.42" height="18.14" rx="1.39" ry="1.39"/><circle class="cls-2" cx="222.11" cy="332.41" r="8.05"/><text class="cls-4" transform="translate(217.39 335.85) scale(.94 1)"><tspan x="0" y="0">64</tspan></text></g><g><rect class="cls-18" x="207.35" y="296.94" width="30.42" height="18.14" rx="1.39" ry="1.39"/><circle class="cls-2" cx="222.11" cy="306.01" r="8.05"/><text class="cls-4" transform="translate(217.39 309.45) scale(.94 1)"><tspan x="0" y="0">63</tspan></text></g><g><rect class="cls-18" x="207.35" y="270.74" width="30.42" height="18.14" rx="1.39" ry="1.39"/><circle class="cls-2" cx="222.11" cy="279.81" r="8.05"/><text class="cls-4" transform="translate(217.39 283.25) scale(.94 1)"><tspan x="0" y="0">62</tspan></text></g><g><rect class="cls-18" x="174.86" y="454.19" width="30.4" height="18.13" rx="1.39" ry="1.39"/><circle class="cls-2" cx="189.6" cy="463.25" r="8.04"/><text class="cls-8" transform="translate(184.59 466.04) scale(.94 1)"><tspan x="0" y="0">72</tspan></text></g><g><rect class="cls-18" x="174.86" y="480.36" width="30.4" height="18.13" rx="1.39" ry="1.39"/><circle class="cls-2" cx="189.6" cy="489.42" r="8.04"/><text class="cls-8" transform="translate(184.88 492.71) scale(.94 1)"><tspan x="0" y="0">71</tspan></text></g><g><rect class="cls-18" x="174.86" y="428.02" width="30.4" height="18.13" rx="1.39" ry="1.39"/><circle class="cls-2" cx="189.6" cy="437.09" r="8.04"/><text class="cls-8" transform="translate(184.51 440.23) scale(.94 1)"><tspan x="0" y="0">73</tspan></text></g><g><rect class="cls-18" x="174.86" y="401.86" width="30.4" height="18.13" rx="1.39" ry="1.39"/><circle class="cls-2" cx="189.6" cy="410.92" r="8.04"/><text class="cls-8" transform="translate(184.72 413.7) scale(.94 1)"><tspan x="0" y="0">74</tspan></text></g><g><rect class="cls-18" x="174.86" y="375.69" width="30.4" height="18.13" rx="1.39" ry="1.39"/><circle class="cls-2" cx="189.6" cy="384.75" r="8.04"/><text class="cls-8" transform="translate(184.64 388.2) scale(.94 1)"><tspan x="0" y="0">75</tspan></text></g><g><rect class="cls-18" x="174.86" y="349.52" width="30.4" height="18.13" rx="1.39" ry="1.39"/><circle class="cls-2" cx="189.6" cy="358.58" r="8.04"/><text class="cls-8" transform="translate(184.88 361.37) scale(.94 1)"><tspan x="0" y="0">76</tspan></text></g><g><rect class="cls-18" x="174.86" y="323.35" width="30.4" height="18.13" rx="1.39" ry="1.39"/><circle class="cls-2" cx="189.6" cy="332.41" r="8.04"/><text class="cls-8" transform="translate(184.88 335.85) scale(.94 1)"><tspan x="0" y="0">77</tspan></text></g><g><rect class="cls-18" x="174.86" y="296.95" width="30.4" height="18.13" rx="1.39" ry="1.39"/><circle class="cls-2" cx="189.6" cy="306.01" r="8.04"/><text class="cls-8" transform="translate(184.88 309.45) scale(.94 1)"><tspan x="0" y="0">78</tspan></text></g><g><rect class="cls-18" x="174.86" y="270.75" width="30.4" height="18.13" rx="1.39" ry="1.39"/><circle class="cls-2" cx="189.6" cy="279.81" r="8.04"/><text class="cls-8" transform="translate(184.88 283.25) scale(.94 1)"><tspan x="0" y="0">79</tspan></text></g><rect class="cls-17" x="273.49" y="218.14" width="132.19" height="30.85"/><polygon class="cls-22" points="178.89 227.33 178.24 245.5 170.22 245.5 170.22 240.51 130.16 240.74 130.16 245.5 120.86 245.5 121.68 183.83 200.22 183.83 199.99 227.11 178.89 227.33"/><polygon class="cls-17" points="200.22 238.36 286.99 225.37 286.75 246.52 394.1 246.54 393.77 225.41 472.48 241.08 472.48 183.83 200.22 183.83 200.22 238.36"/><rect class="cls-22" x="472.48" y="183.83" width="82.25" height="74.43"/><rect class="cls-22" x="122.17" y="243.64" width="2.73" height="125.59"/><rect class="cls-22" x="122.17" y="391.04" width="2.73" height="116.07"/><rect class="cls-22" x="54.1" y="611.49" width="2.73" height="84.1"/><rect class="cls-22" x="54.1" y="709.23" width="2.73" height="41.12"/><rect class="cls-22" x="187.15" y="670.07" width="2.73" height="75.92"/><rect class="cls-22" x="111.72" y="691.36" width="2.73" height="117.98" transform="translate(-637.27 863.44) rotate(-90)"/><rect class="cls-22" x="432.49" y="507.37" width="2.73" height="27.29" transform="translate(-87.16 954.87) rotate(-90)"/><rect class="cls-22" x="489.52" y="506.33" width="2.73" height="29.37" transform="translate(-30.12 1011.9) rotate(-90)"/><rect class="cls-22" x="178.61" y="737.66" width="2.97" height="19.63" transform="translate(-567.38 927.57) rotate(-90)"/><rect class="cls-22" x="190.07" y="667.13" width="2.29" height="8.18" transform="translate(-480 862.43) rotate(-90)"/><rect class="cls-22" x="122.66" y="503.72" width="9.16" height="3.38"/><polygon class="cls-22" points="173.06 602.66 173.06 507.11 127.39 507.11 127.39 522.16 100.48 522.16 54.1 570.59 54.1 602.66 173.06 602.66"/><rect class="cls-22" x="54.1" y="600.05" width="118.96" height="11.45"/><path class="cls-28" d="M195.31,671.22v-25.36c.12-1.85,.81-9.42,7.09-15.6,6.92-6.81,15.49-6.89,17.13-6.87h24.11c16.58,0,153.37,.87,153.37,.87v-16.58h47.34"/><rect class="cls-22" x="541.61" y="479.62" width="13.12" height="42.54"/><rect class="cls-22" x="541.61" y="258.26" width="13.12" height="172.95"/><rect class="cls-22" x="531.38" y="447.99" width="23.34" height="20.94" rx="5.02" ry="5.02"/><rect class="cls-22" x="502.37" y="258.26" width="11.51" height="264.12"/><rect class="cls-22" x="396.27" y="519.54" width="25.14" height="64.79"/><rect class="cls-22" x="422.5" y="548.12" width="7.64" height="36.21"/><rect class="cls-22" x="437.99" y="555.32" width="7.42" height="23.78"/><g><polygon class="cls-21" points="286.87 183.46 286.14 247.48 286.14 247.48 286.14 248.99 396.74 248.99 396.74 247.98 397.47 183.46 286.87 183.46"/><g><rect class="cls-15" x="286.99" y="246.75" width="108.92" height="1.48"/><polyline class="cls-16" points="399.09 183.46 285.27 183.46 284.51 253.23 398.34 253.23"/></g></g><polyline class="cls-28" points="474.11 607.73 511.42 607.73 524.35 621.68 542.3 621.68 542.3 533.39"/><rect class="cls-22" x="169.59" y="506.94" width="17.23" height="36.65"/><rect class="cls-22" x="171.67" y="598.86" width="13.09" height="18.33"/><rect class="cls-22" x="288.38" y="608.99" width="13.09" height="10.25"/><rect class="cls-22" x="284.67" y="619.24" width="20.51" height="5.13"/><rect class="cls-22" x="392.33" y="517.41" width="18.11" height="9.6"/><path class="cls-29" d="M124.9,369.23h-19.66c-.08,.49-1.68,10.89,5.9,17.5,5.72,4.99,12.57,4.25,13.75,4.1"/><path class="cls-30" d="M56.85,695.48h-12.45c-.05,.31-1.06,6.9,3.74,11.08,3.62,3.16,7.96,2.69,8.71,2.59"/><path class="cls-30" d="M541.61,533.12h12.4c.05-.25,1.06-5.5-3.72-8.83-3.61-2.52-7.93-2.14-8.68-2.07"/><path class="cls-31" d="M444.34,606.66v15.91c.34,.07,7.46,1.36,11.99-4.78,3.42-4.63,2.91-10.18,2.81-11.13"/><path class="cls-31" d="M474.11,606.66v15.91c-.34,.07-7.46,1.36-11.99-4.78-3.42-4.63-2.91-10.18-2.81-11.13"/><path class="cls-31" d="M447,520.28v15.91c.34,.07,7.46,1.36,11.99-4.78,3.42-4.63,2.91-10.18,2.81-11.13"/><path class="cls-31" d="M476.78,520.28v15.91c-.34,.07-7.46,1.36-11.99-4.78-3.42-4.63-2.91-10.18-2.81-11.13"/><path class="cls-26" d="M396.27,607.04h12.13c.05-.26,1.04-5.69-3.64-9.15-3.53-2.61-7.76-2.22-8.49-2.14"/><path class="cls-26" d="M396.27,584.33h12.13c.05,.26,1.04,5.69-3.64,9.15-3.53,2.61-7.76,2.22-8.49,2.14"/><rect class="cls-19" x="313.78" y="373.86" width="9.98" height="6.37" rx="1.14" ry="1.14" transform="translate(-58.27 695.81) rotate(-90)"/><path class="cls-19" d="M318.77,373.69h-6.22c-.81,0-1.28-1-.79-1.7l2.92-4.22,3.3-4.78c.4-.57,1.19-.57,1.59,0l3.3,4.78,2.92,4.22c.49,.7,.02,1.7-.79,1.7h-6.22Z"/><rect class="cls-19" x="313.78" y="393.63" width="9.98" height="6.37" rx="1.14" ry="1.14" transform="translate(715.59 78.05) rotate(90)"/><path class="cls-19" d="M318.77,400.17h6.22c.81,0,1.28,1,.79,1.7l-2.92,4.22-3.3,4.78c-.4,.57-1.19,.57-1.59,0l-3.3-4.78-2.92-4.22c-.49-.7-.02-1.7,.79-1.7h6.22Z"/><rect class="cls-22" x="281.12" y="518.62" width="13.99" height="9.49"/><g><rect class="cls-19" x="299.14" y="520.18" width="9.98" height="6.37" rx="1.14" ry="1.14"/><path class="cls-19" d="M307.49,523.37v-6.22c0-.81,1-1.28,1.7-.79l4.22,2.92,4.78,3.3c.57,.4,.57,1.19,0,1.59l-4.78,3.3-4.22,2.92c-.7,.49-1.7,.02-1.7-.79v-6.22Z"/></g><g><rect class="cls-19" x="267.1" y="519.53" width="9.98" height="6.37" rx="1.14" ry="1.14"/><path class="cls-19" d="M268.73,522.72v6.22c0,.81-1,1.28-1.7,.79l-4.22-2.92-4.78-3.3c-.57-.4-.57-1.19,0-1.59l4.78-3.3,4.22-2.92c.7-.49,1.7-.02,1.7,.79v6.22Z"/></g><ellipse class="cls-22" cx="434.55" cy="562.47" rx="2.42" ry="3.75"/><ellipse class="cls-22" cx="434.55" cy="572.64" rx="2.42" ry="3.75"/><path class="cls-25" d="M200.05,226.68v-11.03c-.23-.05-5.18-.94-8.32,3.31-2.37,3.21-2.02,7.06-1.95,7.72"/><path class="cls-25" d="M179.41,226.68v-11.03c.23-.05,5.18-.94,8.32,3.31,2.37,3.21,2.02,7.06,1.95,7.72"/><path class="cls-27" d="M477.34,258.26v12.56c.27,.05,5.89,1.07,9.47-3.77,2.7-3.66,2.3-8.03,2.22-8.79"/><path class="cls-27" d="M500.84,258.26v12.56c-.27,.05-5.89,1.07-9.47-3.77-2.7-3.66-2.3-8.03-2.22-8.79"/><path class="cls-27" d="M515.99,258.26v12.56c.27,.05,5.89,1.07,9.47-3.77,2.7-3.66,2.3-8.03,2.22-8.79"/><path class="cls-27" d="M539.49,258.26v12.56c-.27,.05-5.89,1.07-9.47-3.77-2.7-3.66-2.3-8.03-2.22-8.79"/><rect class="cls-22" x="472.48" y="256.89" width="2.36" height="32.95"/></g></svg>